{
.appVersion = "895";
copyright = "Copyright 2009, 2010, 2011 by Daniel Johnson.  Released under the terms of the Open Font License.";
customParameters = (
{
name = licenseURL;
value = "http://scripts.sil.org/OFL";
},
{
name = vendorID;
value = PfEd;
},
{
name = panose;
value = (
2,
0,
7,
3,
0,
0,
0,
0,
0,
0
);
},
{
name = unicodeRanges;
value = (
0,
1,
2,
3,
5,
6,
7,
9,
29,
31,
32,
33,
35,
38,
45,
60,
62,
69
);
},
{
name = codePageRanges;
value = (
1252,
1250,
1251,
1253,
1254,
1257
);
},
{
name = glyphOrder;
value = (
.notdef,
uni0000,
uni000D,
space,
exclam,
quotedbl,
numbersign,
dollar,
percent,
ampersand,
quotesingle,
parenleft,
parenright,
asterisk,
plus,
comma,
hyphen,
period,
slash,
zero,
one,
two,
three,
four,
five,
six,
seven,
eight,
nine,
colon,
semicolon,
less,
equal,
greater,
question,
at,
A,
B,
C,
D,
E,
F,
G,
H,
I,
J,
K,
L,
M,
N,
O,
P,
Q,
R,
S,
T,
U,
V,
W,
X,
Y,
Z,
bracketleft,
backslash,
bracketright,
asciicircum,
underscore,
grave,
a,
b,
c,
d,
e,
f,
g,
h,
i,
j,
k,
l,
m,
n,
o,
p,
q,
r,
s,
t,
u,
v,
w,
x,
y,
z,
braceleft,
bar,
braceright,
asciitilde,
exclamdown,
cent,
sterling,
currency,
yen,
brokenbar,
section,
dieresis,
copyright,
ordfeminine,
guillemotleft,
logicalnot,
uni00AD,
registered,
macron,
degree,
plusminus,
twosuperior,
threesuperior,
acute,
uni00B5,
paragraph,
periodcentered,
cedilla,
onesuperior,
ordmasculine,
guillemotright,
onequarter,
onehalf,
threequarters,
questiondown,
Agrave,
Aacute,
Acircumflex,
Atilde,
Adieresis,
Aring,
AE,
Ccedilla,
Egrave,
Eacute,
Ecircumflex,
Edieresis,
Igrave,
Iacute,
Icircumflex,
Idieresis,
Eth,
Ntilde,
Ograve,
Oacute,
Ocircumflex,
Otilde,
Odieresis,
multiply,
Oslash,
Ugrave,
Uacute,
Ucircumflex,
Udieresis,
Yacute,
Thorn,
germandbls,
agrave,
aacute,
acircumflex,
atilde,
adieresis,
aring,
ae,
ccedilla,
egrave,
eacute,
ecircumflex,
edieresis,
igrave,
iacute,
icircumflex,
idieresis,
eth,
ntilde,
ograve,
oacute,
ocircumflex,
otilde,
odieresis,
divide,
oslash,
ugrave,
uacute,
ucircumflex,
udieresis,
yacute,

glyphs = (
{
glyphname = .notdef;
lastChange = "2016-07-31 02:36:39 +0000";
layers = (
{
layerId = "AE6579ED-DC47-4075-A6A3-4B1A21099458";
paths = (
{
closed = 1;
nodes = (
"162 586.886 OFFCURVE",
"173.767 600 OFFCURVE",
"210 600 CURVE SMOOTH",
"328 600 LINE SMOOTH",
"364.233 600 OFFCURVE",
"376 586.886 OFFCURVE",
"376 546 CURVE SMOOTH",
"376 130 LINE SMOOTH",
"376 89.5 OFFCURVE",
"364.586 77 OFFCURVE",
"328 77 CURVE SMOOTH",
"210 77 LINE SMOOTH",
"173.414 77 OFFCURVE",
"162 89.5 OFFCURVE",
"162 130 CURVE SMOOTH",
"162 546 LINE SMOOTH"
);
},
{
closed = 1;
nodes = (
"459 684 LINE",
"79 684 LINE",
"79 -6 LINE",
"459 -6 LINE"
);
}
);
width = 538;
}
);
note = .notdef;
},
{
glyphname = exclam;
lastChange = "2016-07-31 02:36:39 +0000";
layers = (
{
layerId = "AE6579ED-DC47-4075-A6A3-4B1A21099458";
paths = (
{
closed = 1;
nodes = (
"71.2 59.945 OFFCURVE",
"63 45.999 OFFCURVE",
"63 29 CURVE SMOOTH",
"63 -0.603 OFFCURVE",
"95.875 -28 OFFCURVE",
"131 -28 CURVE SMOOTH",
"165.494 -28 OFFCURVE",
"198 0.006 OFFCURVE",
"198 30 CURVE SMOOTH",
"198 58.994 OFFCURVE",
"164.994 86 OFFCURVE",
"130 86 CURVE SMOOTH",
"116.19 86 OFFCURVE",
"101.009 80.919 OFFCURVE",
"86.585 70.933 CURVE SMOOTH"
);
},
{
closed = 1;
nodes = (
"172 646.242 OFFCURVE",
"156.064 665 OFFCURVE",
"130 665 CURVE SMOOTH",
"103.936 665 OFFCURVE",
"88 646.242 OFFCURVE",
"88 616 CURVE SMOOTH",
"88 197 LINE SMOOTH",
"88 164.787 OFFCURVE",
"102.247 148 OFFCURVE",
"130 148 CURVE SMOOTH",
"157.753 148 OFFCURVE",
"172 164.787 OFFCURVE",
"172 197 CURVE SMOOTH",
"172 616 LINE SMOOTH"
);
}
);
width = 260;
}
);
note = exclam;
unicode = 0021;
},
{
glyphname = quotedbl;
lastChange = "2016-07-31 02:36:39 +0000";
layers = (
{
layerId = "AE6579ED-DC47-4075-A6A3-4B1A21099458";
paths = (
{
closed = 1;
nodes = (
"166 433.787 OFFCURVE",
"180.247 417 OFFCURVE",
"208 417 CURVE SMOOTH",
"235.753 417 OFFCURVE",
"250 433.787 OFFCURVE",
"250 466 CURVE SMOOTH",
"250 615 LINE SMOOTH",
"250 645.242 OFFCURVE",
"234.064 664 OFFCURVE",
"208 664 CURVE SMOOTH",
"181.936 664 OFFCURVE",
"166 645.242 OFFCURVE",
"166 615 CURVE SMOOTH",
"166 466 LINE SMOOTH"
);
},
{
closed = 1;
nodes = (
"65 434.004 OFFCURVE",
"79.066 417 OFFCURVE",
"106 417 CURVE SMOOTH",
"132.064 417 OFFCURVE",
"148 435.758 OFFCURVE",
"148 466 CURVE SMOOTH",
"148 615 LINE SMOOTH",
"148 646.996 OFFCURVE",
"133.934 664 OFFCURVE",
"107 664 CURVE SMOOTH",
"80.936 664 OFFCURVE",
"65 645.242 OFFCURVE",
"65 615 CURVE SMOOTH",
"65 466 LINE SMOOTH"
);
}
);
width = 314;
}
);
leftKerningGroup = quotedbl;
note = quotedbl;
rightKerningGroup = quotedbl;
unicode = 0022;
},
{
glyphname = numbersign;
lastChange = "2016-07-31 02:36:39 +0000";
layers = (
{
layerId = "AE6579ED-DC47-4075-A6A3-4B1A21099458";
paths = (
{
closed = 1;
nodes = (
"367.052 588.975 OFFCURVE",
"368 597.102 OFFCURVE",
"368 606 CURVE SMOOTH",
"368 628.919 OFFCURVE",
"349.356 646 OFFCURVE",
"326 646 CURVE SMOOTH",
"306.322 646 OFFCURVE",
"292.164 634.347 OFFCURVE",
"284.337 611.982 CURVE SMOOTH",
"226.782 452 LINE",
"116 452 LINE SMOOTH",
"85.716 452 OFFCURVE",
"68 437.013 OFFCURVE",
"68 411 CURVE SMOOTH",
"68 382.591 OFFCURVE",
"84.403 368 OFFCURVE",
"116 368 CURVE SMOOTH",
"196.414 368 LINE",
"159.807 268 LINE",
"86 268 LINE SMOOTH",
"55.758 268 OFFCURVE",
"37 252.064 OFFCURVE",
"37 226 CURVE SMOOTH",
"37 199.936 OFFCURVE",
"55.758 184 OFFCURVE",
"86 184 CURVE SMOOTH",
"129.349 184 LINE",
"80.38 53.102 LINE",
"80.179 52.455 LINE",
"78.25 44.74 OFFCURVE",
"77 36.03 OFFCURVE",
"77 27 CURVE SMOOTH",
"77 5.475 OFFCURVE",
"96.035 -10 OFFCURVE",
"122 -10 CURVE SMOOTH",
"137.688 -10 OFFCURVE",
"150.5 1.379 OFFCURVE",
"160.472 23.538 CURVE",
"218.218 184 LINE",
"308.268 184 LINE",
"258.399 54.151 LINE",
"258.179 53.455 LINE",
"256.25 45.74 OFFCURVE",
"255 37.03 OFFCURVE",
"255 28 CURVE SMOOTH",
"255 5.34 OFFCURVE",
"273.349 -10 OFFCURVE",
"300 -10 CURVE SMOOTH",
"315.974 -10 OFFCURVE",
"329.721 1.869 OFFCURVE",
"339.472 23.538 CURVE",
"397.218 184 LINE",
"504 184 LINE SMOOTH",
"536.213 184 OFFCURVE",
"553 198.247 OFFCURVE",
"553 226 CURVE SMOOTH",
"553 253.753 OFFCURVE",
"536.213 268 OFFCURVE",
"504 268 CURVE SMOOTH",
"427.586 268 LINE",
"464.193 368 LINE",
"535 368 LINE SMOOTH",
"565.242 368 OFFCURVE",
"584 383.936 OFFCURVE",
"584 410 CURVE SMOOTH",
"584 436.064 OFFCURVE",
"565.242 452 OFFCURVE",
"535 452 CURVE SMOOTH",
"494.673 452 LINE",
"543.615 581.884 LINE",
"543.821 582.545 LINE",
"545.703 590.074 OFFCURVE",
"547 598.799 OFFCURVE",
"547 607 CURVE SMOOTH",
"547 627.634 OFFCURVE",
"527.145 646 OFFCURVE",
"505 646 CURVE SMOOTH",
"485.542 646 OFFCURVE",
"471.412 634.685 OFFCURVE",
"462.429 612.228 CURVE",
"404.782 452 LINE",
"314.709 452 LINE",
"364.606 582.862 LINE SMOOTH"
);
},
{
closed = 1;
nodes = (
"337.807 268 LINE",
"248.586 268 LINE",
"285.193 368 LINE",
"374.414 368 LINE"
);
}
);
width = 622;
}
);
note = numbersign;
rightKerningGroup = numbersign;
unicode = 0023;
},
{
glyphname = dollar;
lastChange = "2016-07-31 02:36:39 +0000";
layers = (
{
layerId = "AE6579ED-DC47-4075-A6A3-4B1A21099458";
paths = (
{
closed = 1;
nodes = (
"278 32 LINE SMOOTH",
"278 2.61 OFFCURVE",
"291.396 -13 OFFCURVE",
"317 -13 CURVE SMOOTH",
"346.355 -13 OFFCURVE",
"362 3.384 OFFCURVE",
"362 34 CURVE SMOOTH",
"362 78 LINE",
"428 78 LINE SMOOTH",
"524.152 78 OFFCURVE",
"573 127.192 OFFCURVE",
"573 224 CURVE SMOOTH",
"573 320.291 OFFCURVE",
"525.662 369 OFFCURVE",
"432 369 CURVE",
"432 363 LINE",
"431 363 OFFCURVE",
"431 363 OFFCURVE",
"430 363 CURVE",
"430 369 LINE",
"362 369 LINE",
"362 479 LINE",
"450 479 LINE SMOOTH",
"483.559 479 OFFCURVE",
"489 473.445 OFFCURVE",
"489 439 CURVE SMOOTH",
"489 410.121 OFFCURVE",
"501.198 393.562 OFFCURVE",
"526.265 393.265 CURVE",
"526.265 393.265 OFFCURVE",
"526.265 393.265 OFFCURVE",
"525.644 392.768 CURVE",
"556.66 389.487 OFFCURVE",
"573 408.191 OFFCURVE",
"573 446 CURVE SMOOTH",
"573 525.786 OFFCURVE",
"536.115 563 OFFCURVE",
"457 563 CURVE SMOOTH",
"362 563 LINE",
"362 603 LINE SMOOTH",
"362 633.103 OFFCURVE",
"346.838 649 OFFCURVE",
"318 649 CURVE SMOOTH",
"291.676 649 OFFCURVE",
"278 632.757 OFFCURVE",
"278 602 CURVE SMOOTH",
"278 563 LINE",
"201 563 LINE SMOOTH",
"104.409 563 OFFCURVE",
"55 517.389 OFFCURVE",
"55 428 CURVE SMOOTH",
"55 335.564 OFFCURVE",
"106.646 285 OFFCURVE",
"201 285 CURVE SMOOTH",
"278 285 LINE",
"278 162 LINE",
"178 162 LINE SMOOTH",
"145.26 162 OFFCURVE",
"139 168.801 OFFCURVE",
"139 205 CURVE SMOOTH",
"139 235.576 OFFCURVE",
"124.429 252 OFFCURVE",
"97 252 CURVE SMOOTH",
"69.247 252 OFFCURVE",
"55 235.213 OFFCURVE",
"55 203 CURVE SMOOTH",
"55 116.745 OFFCURVE",
"90.247 78 OFFCURVE",
"171 78 CURVE SMOOTH",
"278 78 LINE"
);
},
{
closed = 1;
nodes = (
"470.227 285 OFFCURVE",
"489 255.476 OFFCURVE",
"489 216 CURVE SMOOTH",
"489 175.766 OFFCURVE",
"477.836 162 OFFCURVE",
"446 162 CURVE SMOOTH",
"362 162 LINE",
"362 285 LINE",
"446 285 LINE SMOOTH"
);
},
{
closed = 1;
nodes = (
"156.476 369 OFFCURVE",
"139 394.142 OFFCURVE",
"139 432 CURVE SMOOTH",
"139 469.04 OFFCURVE",
"148.197 479 OFFCURVE",
"182 479 CURVE SMOOTH",
"278 479 LINE",
"278 369 LINE",
"182 369 LINE SMOOTH"
);
}
);
width = 628;
}
);
note = dollar;
rightKerningGroup = numbersign;
unicode = 0024;
},
{
glyphname = percent;
lastChange = "2016-07-31 02:36:39 +0000";
layers = (
{
layerId = "AE6579ED-DC47-4075-A6A3-4B1A21099458";
paths = (
{
closed = 1;
nodes = (
"418.286 195.801 OFFCURVE",
"421.704 197 OFFCURVE",
"425 197 CURVE SMOOTH",
"434.521 197 OFFCURVE",
"439 192.521 OFFCURVE",
"439 183 CURVE SMOOTH",
"439 175.479 OFFCURVE",
"433.181 169 OFFCURVE",
"425 169 CURVE SMOOTH",
"417.479 169 OFFCURVE",
"411 174.819 OFFCURVE",
"411 183 CURVE SMOOTH",
"411 186.296 OFFCURVE",
"412.199 189.714 OFFCURVE",
"415.243 192.757 CURVE SMOOTH"
);
},
{
closed = 1;
nodes = (
"371.17 94.523 OFFCURVE",
"395.588 85 OFFCURVE",
"424 85 CURVE SMOOTH",
"479.251 85 OFFCURVE",
"523 128.957 OFFCURVE",
"523 183 CURVE SMOOTH",
"523 237.043 OFFCURVE",
"479.251 281 OFFCURVE",
"424 281 CURVE SMOOTH",
"366.431 281 OFFCURVE",
"316 235.93 OFFCURVE",
"316 183 CURVE SMOOTH",
"316 155.495 OFFCURVE",
"327.525 131.933 OFFCURVE",
"349.095 113.444 CURVE SMOOTH"
);
},
{
closed = 1;
nodes = (
"178.194 470 OFFCURVE",
"186 464.576 OFFCURVE",
"186 460 CURVE SMOOTH",
"186 455.193 OFFCURVE",
"177.253 447 OFFCURVE",
"172 447 CURVE SMOOTH",
"166.236 447 OFFCURVE",
"158 454.719 OFFCURVE",
"158 460 CURVE SMOOTH",
"158 465.012 OFFCURVE",
"164.286 470 OFFCURVE",
"171 470 CURVE SMOOTH"
);
},
{
closed = 1;
nodes = (
"229.488 363 OFFCURVE",
"280 408.1 OFFCURVE",
"280 460 CURVE SMOOTH",
"280 511.137 OFFCURVE",
"230.412 554 OFFCURVE",
"173 554 CURVE SMOOTH",
"117.535 554 OFFCURVE",
"73 512.817 OFFCURVE",
"73 460 CURVE SMOOTH",
"73 406.354 OFFCURVE",
"117.726 363 OFFCURVE",
"173 363 CURVE SMOOTH"
);
},
{
closed = 1;
nodes = (
"67.116 160.601 OFFCURVE",
"61 149.123 OFFCURVE",
"61 137 CURVE SMOOTH",
"61 113.762 OFFCURVE",
"80.232 95 OFFCURVE",
"104 95 CURVE SMOOTH",
"114.703 95 OFFCURVE",
"126 100.629 OFFCURVE",
"137.014 110.54 CURVE SMOOTH",
"518.04 457.564 LINE",
"529.215 468.729 OFFCURVE",
"535 480.236 OFFCURVE",
"535 493 CURVE SMOOTH",
"535 514.761 OFFCURVE",
"515.268 534 OFFCURVE",
"493 534 CURVE SMOOTH",
"482.796 534 OFFCURVE",
"472.968 529.09 OFFCURVE",
"460.201 518.644 CURVE",
"78.966 172.442 LINE"
);
}
);
width = 597;
}
);
note = percent;
rightKerningGroup = numbersign;
unicode = 0025;
},
{
glyphname = ampersand;
lastChange = "2016-07-31 02:36:39 +0000";
layers = (
{
layerId = "AE6579ED-DC47-4075-A6A3-4B1A21099458";
paths = (
{
closed = 1;
nodes = (
"320.141 64.603 OFFCURVE",
"290.92 54 OFFCURVE",
"260 54 CURVE SMOOTH",
"235.935 54 OFFCURVE",
"216.139 57.308 OFFCURVE",
"197.982 63.663 CURVE SMOOTH",
"151.389 78.439 OFFCURVE",
"119 126.303 OFFCURVE",
"119 182 CURVE SMOOTH",
"119 234.235 OFFCURVE",
"134.818 272.013 OFFCURVE",
"166.144 296.831 CURVE",
"348.398 86.759 LINE"
);
},
{
closed = 1;
nodes = (
"60.733 315.426 OFFCURVE",
"35 255.657 OFFCURVE",
"35 182 CURVE SMOOTH",
"35 112.346 OFFCURVE",
"64.626 50.483 OFFCURVE",
"114.596 16.059 CURVE SMOOTH",
"161.101 -14.945 OFFCURVE",
"209.263 -30 OFFCURVE",
"260 -30 CURVE SMOOTH",
"312.459 -30 OFFCURVE",
"360.159 -12.136 OFFCURVE",
"402.37 22.627 CURVE",
"427.493 -5.961 LINE SMOOTH",
"440.783 -20.36 OFFCURVE",
"453.154 -28 OFFCURVE",
"465 -28 CURVE SMOOTH",
"491.382 -28 OFFCURVE",
"508 -13.02 OFFCURVE",
"508 11 CURVE SMOOTH",
"508 23.049 OFFCURVE",
"504.708 33.56 OFFCURVE",
"497.556 41.905 CURVE SMOOTH",
"458.586 84.59 LINE",
"486.226 127.11 OFFCURVE",
"500 173.875 OFFCURVE",
"500 227 CURVE SMOOTH",
"500 261.402 OFFCURVE",
"486.692 279 OFFCURVE",
"460 279 CURVE SMOOTH",
"431.62 279 OFFCURVE",
"417 260.089 OFFCURVE",
"417 226 CURVE SMOOTH",
"417 198.645 OFFCURVE",
"411.715 174.043 OFFCURVE",
"400.863 152.479 CURVE",
"180.536 406.928 LINE SMOOTH",
"157.561 432.775 OFFCURVE",
"146 456.572 OFFCURVE",
"146 476 CURVE SMOOTH",
"146 537.174 OFFCURVE",
"193.486 584 OFFCURVE",
"254 584 CURVE SMOOTH",
"279.185 584 OFFCURVE",
"302.963 566.657 OFFCURVE",
"316.633 539.317 CURVE SMOOTH",
"332.661 505.923 OFFCURVE",
"352.726 487 OFFCURVE",
"373 487 CURVE SMOOTH",
"395.979 487 OFFCURVE",
"414 505.681 OFFCURVE",
"414 528 CURVE SMOOTH",
"414 538.155 OFFCURVE",
"407.984 553.507 OFFCURVE",
"396.315 575.784 CURVE",
"372.717 616.833 OFFCURVE",
"315.285 668 OFFCURVE",
"254 668 CURVE SMOOTH",
"150.262 668 OFFCURVE",
"60 579.336 OFFCURVE",
"60 476 CURVE SMOOTH",
"60 436.384 OFFCURVE",
"77.725 397.524 OFFCURVE",
"112.293 359.554 CURVE"
);
}
);
width = 534;
}
);
leftKerningGroup = ampersand;
note = ampersand;
rightKerningGroup = ampersand;
unicode = 0026;
},
{
glyphname = quotesingle;
lastChange = "2016-07-31 02:36:39 +0000";
layers = (
{
layerId = "AE6579ED-DC47-4075-A6A3-4B1A21099458";
paths = (
{
closed = 1;
nodes = (
"65 434.004 OFFCURVE",
"79.066 417 OFFCURVE",
"106 417 CURVE SMOOTH",
"132.064 417 OFFCURVE",
"148 435.758 OFFCURVE",
"148 466 CURVE SMOOTH",
"148 615 LINE SMOOTH",
"148 646.996 OFFCURVE",
"133.934 664 OFFCURVE",
"107 664 CURVE SMOOTH",
"80.936 664 OFFCURVE",
"65 645.242 OFFCURVE",
"65 615 CURVE SMOOTH",
"65 466 LINE SMOOTH"
);
}
);
width = 212;
}
);
leftKerningGroup = quotedbl;
note = quotesingle;
rightKerningGroup = quotedbl;
unicode = 0027;
},
{
glyphname = parenleft;
lastChange = "2016-07-31 02:36:39 +0000";
layers = (
{
layerId = "AE6579ED-DC47-4075-A6A3-4B1A21099458";
paths = (
{
closed = 1;
nodes = (
"225.884 21 OFFCURVE",
"218.419 21 OFFCURVE",
"212 21 CURVE SMOOTH",
"192.392 21 OFFCURVE",
"178.616 22.835 OFFCURVE",
"172.364 25.515 CURVE SMOOTH",
"164.765 28.771 OFFCURVE",
"162.229 30.958 OFFCURVE",
"161.367 32.683 CURVE SMOOTH",
"154.903 44.694 OFFCURVE",
"151 79.578 OFFCURVE",
"151 133 CURVE SMOOTH",
"151 503 LINE SMOOTH",
"151 536 OFFCURVE",
"151 558.77 OFFCURVE",
"151.982 571.54 CURVE SMOOTH",
"153.003 584.811 OFFCURVE",
"156.094 595.063 OFFCURVE",
"161.736 602.316 CURVE",
"173.229 618.223 OFFCURVE",
"179.67 614.741 OFFCURVE",
"229 615.017 CURVE",
"229 699 LINE",
"225.884 699 OFFCURVE",
"218.419 699 OFFCURVE",
"212 699 CURVE SMOOTH",
"183.668 699 OFFCURVE",
"161.521 696.819 OFFCURVE",
"144.307 691.756 CURVE SMOOTH",
"115.357 683.178 OFFCURVE",
"102.938 666.244 OFFCURVE",
"87.755 638.914 CURVE SMOOTH",
"73.811 612.103 OFFCURVE",
"67 565.307 OFFCURVE",
"67 503 CURVE SMOOTH",
"67 133 LINE SMOOTH",
"67 102.616 OFFCURVE",
"68.915 73.171 OFFCURVE",
"73.06 44.151 CURVE SMOOTH",
"80.278 -14.63 OFFCURVE",
"103.941 -64.623 OFFCURVE",
"229 -62.96 CURVE",
"229 21 LINE"
);
}
);
width = 271;
}
);
note = parenleft;
rightKerningGroup = parenleft;
unicode = 0028;
},
{
glyphname = parenright;
lastChange = "2016-07-31 02:36:39 +0000";
layers = (
{
layerId = "AE6579ED-DC47-4075-A6A3-4B1A21099458";
paths = (
{
closed = 1;
nodes = (
"45.116 -63 OFFCURVE",
"52.581 -63 OFFCURVE",
"59 -63 CURVE SMOOTH",
"88.188 -63 OFFCURVE",
"110.377 -60.849 OFFCURVE",
"127.693 -55.756 CURVE SMOOTH",
"156.787 -47.136 OFFCURVE",
"168.127 -30.126 OFFCURVE",
"183.245 -2.914 CURVE SMOOTH",
"197.189 23.897 OFFCURVE",
"204 70.693 OFFCURVE",
"204 133 CURVE SMOOTH",
"204 503 LINE SMOOTH",
"204 533.211 OFFCURVE",
"202.106 562.642 OFFCURVE",
"197.944 592.82 CURVE SMOOTH",
"189.679 650.675 OFFCURVE",
"166.053 700.634 OFFCURVE",
"42 698.959 CURVE",
"42 615 LINE",
"66.23 614.992 OFFCURVE",
"82.92 615.088 OFFCURVE",
"91.256 614.046 CURVE",
"105.278 613.158 OFFCURVE",
"118.165 594.432 OFFCURVE",
"119.004 571.778 CURVE",
"120 558.77 OFFCURVE",
"120 536 OFFCURVE",
"120 503 CURVE SMOOTH",
"120 133 LINE SMOOTH",
"120 111 OFFCURVE",
"120 91.176 OFFCURVE",
"119.01 74.352 CURVE SMOOTH",
"117.993 37.823 OFFCURVE",
"119.456 21 OFFCURVE",
"55 21 CURVE SMOOTH",
"51.199 21 OFFCURVE",
"48.294 21 OFFCURVE",
"42 21 CURVE",
"42 -63 LINE"
);
}
);
width = 271;
}
);
leftKerningGroup = parenright;
note = parenright;
rightKerningGroup = numbersign;
unicode = 0029;
},
{
glyphname = asterisk;
lastChange = "2016-07-31 02:36:39 +0000";
layers = (
{
layerId = "AE6579ED-DC47-4075-A6A3-4B1A21099458";
paths = (
{
closed = 1;
nodes = (
"251.737 416.423 OFFCURVE",
"254.549 415.018 OFFCURVE",
"257.317 413.633 CURVE",
"261.557 411.069 OFFCURVE",
"266.687 407.99 OFFCURVE",
"270.299 406.598 CURVE",
"273.519 404.533 OFFCURVE",
"277.565 402.509 OFFCURVE",
"281.317 400.633 CURVE",
"288.539 396.496 OFFCURVE",
"291.935 395.364 OFFCURVE",
"296.772 393.429 CURVE",
"299.05 392.267 OFFCURVE",
"299.789 391.701 OFFCURVE",
"300.273 391.207 CURVE",
"303.725 389.998 OFFCURVE",
"306.803 388 OFFCURVE",
"312 388 CURVE SMOOTH",
"313.66 388 OFFCURVE",
"315.66 388 OFFCURVE",
"316 388 CURVE SMOOTH",
"337.386 388 OFFCURVE",
"357 408.274 OFFCURVE",
"357 429 CURVE SMOOTH",
"357 443.908 OFFCURVE",
"348.047 456.847 OFFCURVE",
"331.328 467.992 CURVE",
"291.909 491.815 LINE",
"330.942 513.771 LINE",
"348.126 525.206 OFFCURVE",
"357 536.988 OFFCURVE",
"357 550 CURVE SMOOTH",
"357 574.304 OFFCURVE",
"338.963 594.25 OFFCURVE",
"315.561 593.997 CURVE",
"310.159 593.519 OFFCURVE",
"282.795 580.876 OFFCURVE",
"249 563.784 CURVE",
"249 608 LINE",
"249 640.213 OFFCURVE",
"234.753 657 OFFCURVE",
"207 657 CURVE SMOOTH",
"179.247 657 OFFCURVE",
"165 640.213 OFFCURVE",
"165 608 CURVE SMOOTH",
"165 564.246 LINE",
"162.577 565.569 OFFCURVE",
"160.214 566.869 OFFCURVE",
"158.087 568.145 CURVE",
"151.389 571.514 OFFCURVE",
"146.409 574.556 OFFCURVE",
"143.622 576.47 CURVE",
"141.819 576.965 OFFCURVE",
"137.982 578.556 OFFCURVE",
"134.328 580.992 CURVE",
"133.683 581.367 LINE",
"125.427 585.495 OFFCURVE",
"123.017 587.2 OFFCURVE",
"118.683 589.367 CURVE",
"117.897 589.692 LINE",
"115.302 590.557 OFFCURVE",
"113.683 591.367 OFFCURVE",
"111.683 592.367 CURVE SMOOTH",
"108.696 593.86 OFFCURVE",
"106.048 594 OFFCURVE",
"102 594 CURVE SMOOTH",
"93 594 LINE SMOOTH",
"76.584 594 OFFCURVE",
"58 572.774 OFFCURVE",
"58 553 CURVE SMOOTH",
"58 536.017 OFFCURVE",
"66.728 523.012 OFFCURVE",
"84.176 513.706 CURVE SMOOTH",
"122.996 491.868 LINE",
"82.944 468.163 LINE SMOOTH",
"66.349 458.206 OFFCURVE",
"58 446.63 OFFCURVE",
"58 433 CURVE SMOOTH",
"58 407.007 OFFCURVE",
"75.145 387.758 OFFCURVE",
"98.438 388.003 CURVE",
"103.839 388.48 OFFCURVE",
"131.204 401.123 OFFCURVE",
"165 418.216 CURVE",
"165 374 LINE SMOOTH",
"165 343.758 OFFCURVE",
"180.936 325 OFFCURVE",
"207 325 CURVE SMOOTH",
"233.064 325 OFFCURVE",
"249 343.758 OFFCURVE",
"249 374 CURVE",
"249 417.843 LINE"
);
}
);
width = 415;
}
);
leftKerningGroup = asterisk;
note = asterisk;
rightKerningGroup = asterisk;
unicode = 002A;
},
{
glyphname = plus;
lastChange = "2016-07-31 02:36:39 +0000";
layers = (
{
layerId = "AE6579ED-DC47-4075-A6A3-4B1A21099458";
paths = (
{
closed = 1;
nodes = (
"223 -11.394 OFFCURVE",
"237.406 -28 OFFCURVE",
"265 -28 CURVE SMOOTH",
"292.594 -28 OFFCURVE",
"307 -11.394 OFFCURVE",
"307 20 CURVE SMOOTH",
"307 188 LINE",
"453 188 LINE SMOOTH",
"481.473 188 OFFCURVE",
"503 204.932 OFFCURVE",
"503 229 CURVE SMOOTH",
"503 257.608 OFFCURVE",
"485.374 273 OFFCURVE",
"453 273 CURVE SMOOTH",
"307 273 LINE",
"307 440 LINE SMOOTH",
"307 472.213 OFFCURVE",
"292.753 489 OFFCURVE",
"265 489 CURVE SMOOTH",
"237.247 489 OFFCURVE",
"223 472.213 OFFCURVE",
"223 440 CURVE SMOOTH",
"223 273 LINE",
"75 273 LINE SMOOTH",
"47.37 273 OFFCURVE",
"28 255.796 OFFCURVE",
"28 231 CURVE SMOOTH",
"28 202.76 OFFCURVE",
"44.226 188 OFFCURVE",
"75 188 CURVE SMOOTH",
"223 188 LINE",
"223 20 LINE SMOOTH"
);
}
);
width = 531;
}
);
note = plus;
rightKerningGroup = numbersign;
unicode = 002B;
},
{
glyphname = comma;
lastChange = "2016-07-31 02:36:39 +0000";
layers = (
{
layerId = "AE6579ED-DC47-4075-A6A3-4B1A21099458";
paths = (
{
closed = 1;
nodes = (
"163.522 24.585 OFFCURVE",
"166 34.442 OFFCURVE",
"166 44 CURVE SMOOTH",
"166 64.949 OFFCURVE",
"139.927 82 OFFCURVE",
"109 82 CURVE SMOOTH",
"88.874 82 OFFCURVE",
"74.823 69.722 OFFCURVE",
"68.231 46.648 CURVE SMOOTH",
"44.216 -40.404 LINE",
"44.082 -41.014 LINE",
"42.19 -52.363 OFFCURVE",
"41.198 -58.318 OFFCURVE",
"41.082 -59.014 CURVE",
"41 -60 LINE",
"41 -86.413 OFFCURVE",
"54.447 -101 OFFCURVE",
"79 -101 CURVE SMOOTH",
"95.503 -101 OFFCURVE",
"108.393 -89.858 OFFCURVE",
"118.472 -67.462 CURVE SMOOTH",
"158.405 15.395 LINE"
);
}
);
width = 226;
}
);
leftKerningGroup = comma;
note = comma;
rightKerningGroup = comma;
unicode = 002C;
},
{
glyphname = hyphen;
lastChange = "2016-07-31 02:36:39 +0000";
layers = (
{
layerId = "AE6579ED-DC47-4075-A6A3-4B1A21099458";
paths = (
{
closed = 1;
nodes = (
"86.37 273 OFFCURVE",
"67 255.796 OFFCURVE",
"67 231 CURVE SMOOTH",
"67 202.76 OFFCURVE",
"83.226 188 OFFCURVE",
"114 188 CURVE SMOOTH",
"359 188 LINE SMOOTH",
"387.473 188 OFFCURVE",
"409 204.932 OFFCURVE",
"409 229 CURVE SMOOTH",
"409 257.608 OFFCURVE",
"391.374 273 OFFCURVE",
"359 273 CURVE SMOOTH",
"114 273 LINE SMOOTH"
);
}
);
width = 476;
}
);
leftKerningGroup = hyphen;
note = hyphen;
rightKerningGroup = hyphen;
unicode = 002D;
},
{
glyphname = period;
lastChange = "2016-07-31 02:36:39 +0000";
layers = (
{
layerId = "AE6579ED-DC47-4075-A6A3-4B1A21099458";
paths = (
{
closed = 1;
nodes = (
"192 58.364 OFFCURVE",
"159.342 86 OFFCURVE",
"125 86 CURVE SMOOTH",
"90.658 86 OFFCURVE",
"58 58.364 OFFCURVE",
"58 29 CURVE SMOOTH",
"58 -0.967 OFFCURVE",
"89.458 -28 OFFCURVE",
"124 -28 CURVE SMOOTH",
"159.125 -28 OFFCURVE",
"192 -0.603 OFFCURVE",
"192 29 CURVE SMOOTH"
);
}
);
width = 250;
}
);
leftKerningGroup = comma;
note = period;
rightKerningGroup = comma;
unicode = 002E;
},
{
glyphname = slash;
lastChange = "2016-07-31 02:36:39 +0000";
layers = (
{
layerId = "AE6579ED-DC47-4075-A6A3-4B1A21099458";
paths = (
{
closed = 1;
nodes = (
"336.571 603.768 OFFCURVE",
"340 617.735 OFFCURVE",
"340 629 CURVE SMOOTH",
"340 649.327 OFFCURVE",
"320.463 666 OFFCURVE",
"297 666 CURVE SMOOTH",
"279.925 666 OFFCURVE",
"266.923 655.408 OFFCURVE",
"256.578 633.569 CURVE",
"256.361 633.049 LINE",
"46.361 55.049 LINE SMOOTH",
"39.388 36.124 OFFCURVE",
"36 23.116 OFFCURVE",
"36 16 CURVE SMOOTH",
"36 8 LINE SMOOTH",
"36 -12.755 OFFCURVE",
"54.109 -29 OFFCURVE",
"77 -29 CURVE SMOOTH",
"95.394 -29 OFFCURVE",
"109.49 -17.798 OFFCURVE",
"118.53 3.672 CURVE",
"330.64 587.953 LINE SMOOTH"
);
}
);
width = 375;
}
);
leftKerningGroup = slash;
note = slash;
rightKerningGroup = slash;
unicode = 002F;
},
{
glyphname = zero;
lastChange = "2016-07-31 02:36:39 +0000";
layers = (
{
layerId = "AE6579ED-DC47-4075-A6A3-4B1A21099458";
paths = (
{
closed = 1;
nodes = (
"122 527.52 OFFCURVE",
"171.855 562 OFFCURVE",
"227 562 CURVE SMOOTH",
"365 562 LINE SMOOTH",
"420.145 562 OFFCURVE",
"470 527.52 OFFCURVE",
"470 491 CURVE SMOOTH",
"470 144 LINE SMOOTH",
"470 107.48 OFFCURVE",
"420.145 73 OFFCURVE",
"365 73 CURVE SMOOTH",
"227 73 LINE SMOOTH",
"171.855 73 OFFCURVE",
"122 107.48 OFFCURVE",
"122 144 CURVE SMOOTH",
"122 491 LINE SMOOTH"
);
},
{
closed = 1;
nodes = (
"554 577.06 OFFCURVE",
"470.389 647 OFFCURVE",
"354 647 CURVE SMOOTH",
"238 647 LINE SMOOTH",
"121.611 647 OFFCURVE",
"38 577.06 OFFCURVE",
"38 478 CURVE SMOOTH",
"38 158 LINE SMOOTH",
"38 58.94 OFFCURVE",
"121.611 -11 OFFCURVE",
"238 -11 CURVE SMOOTH",
"354 -11 LINE SMOOTH",
"470.389 -11 OFFCURVE",
"554 58.94 OFFCURVE",
"554 158 CURVE SMOOTH",
"554 478 LINE SMOOTH"
);
}
);
width = 592;
}
);
leftKerningGroup = zero;
note = zero;
rightKerningGroup = zero;
unicode = 0030;
},
{
glyphname = one;
lastChange = "2016-07-31 02:36:39 +0000";
layers = (
{
layerId = "AE6579ED-DC47-4075-A6A3-4B1A21099458";
paths = (
{
closed = 1;
nodes = (
"263 2.752 OFFCURVE",
"277.296 -13 OFFCURVE",
"305 -13 CURVE SMOOTH",
"332.704 -13 OFFCURVE",
"347 2.752 OFFCURVE",
"347 33 CURVE SMOOTH",
"347 647 LINE SMOOTH",
"347 672.28 OFFCURVE",
"327.832 691 OFFCURVE",
"302 691 CURVE SMOOTH",
"291.001 691 OFFCURVE",
"278.733 685.088 OFFCURVE",
"266.159 674.609 CURVE",
"204.793 614.278 LINE",
"192.036 602.589 OFFCURVE",
"185 591.106 OFFCURVE",
"185 580 CURVE SMOOTH",
"185 555.334 OFFCURVE",
"200.742 540 OFFCURVE",
"226 540 CURVE SMOOTH",
"240.422 540 OFFCURVE",
"253.868 546.383 OFFCURVE",
"265.243 557.757 CURVE",
"263 555.777 LINE",
"263 33 LINE SMOOTH"
);
}
);
width = 592;
}
);
leftKerningGroup = one;
note = one;
rightKerningGroup = numbersign;
unicode = 0031;
},
{
glyphname = two;
lastChange = "2016-07-31 02:36:39 +0000";
layers = (
{
layerId = "AE6579ED-DC47-4075-A6A3-4B1A21099458";
paths = (
{
closed = 1;
nodes = (
"554 595.946 OFFCURVE",
"489.594 647 OFFCURVE",
"314 647 CURVE SMOOTH",
"154 647 LINE SMOOTH",
"73.114 647 OFFCURVE",
"39 608.918 OFFCURVE",
"39 519 CURVE SMOOTH",
"39 485.632 OFFCURVE",
"53.345 468 OFFCURVE",
"81 468 CURVE SMOOTH",
"108.655 468 OFFCURVE",
"123 485.632 OFFCURVE",
"123 519 CURVE SMOOTH",
"123 555.572 OFFCURVE",
"129.551 563 OFFCURVE",
"161 563 CURVE SMOOTH",
"314 563 LINE SMOOTH",
"445.135 563 OFFCURVE",
"470 545.987 OFFCURVE",
"470 454 CURVE SMOOTH",
"470 413.299 OFFCURVE",
"421.84 373.459 OFFCURVE",
"321.636 330.515 CURVE SMOOTH",
"276.836 310.72 OFFCURVE",
"234.899 290.625 OFFCURVE",
"194.216 269.315 CURVE SMOOTH",
"96.772 218.273 OFFCURVE",
"39 137.535 OFFCURVE",
"39 52 CURVE SMOOTH",
"39 -11 LINE",
"503 -11 LINE SMOOTH",
"536.368 -11 OFFCURVE",
"554 3.345 OFFCURVE",
"554 31 CURVE SMOOTH",
"554 58.655 OFFCURVE",
"536.368 73 OFFCURVE",
"503 73 CURVE SMOOTH",
"123.722 73 LINE",
"128.077 103.518 OFFCURVE",
"144.6 132.958 OFFCURVE",
"173.099 159.618 CURVE SMOOTH",
"234.262 216.836 OFFCURVE",
"322.417 251.503 OFFCURVE",
"404.631 291.607 CURVE SMOOTH",
"502.39 338.103 OFFCURVE",
"554 394.604 OFFCURVE",
"554 456 CURVE SMOOTH"
);
}
);
width = 592;
}
);
note = two;
rightKerningGroup = numbersign;
unicode = 0032;
},
{
glyphname = three;
lastChange = "2016-07-31 02:36:39 +0000";
layers = (
{
layerId = "AE6579ED-DC47-4075-A6A3-4B1A21099458";
paths = (
{
closed = 1;
nodes = (
"434.799 563 OFFCURVE",
"471 536.717 OFFCURVE",
"471 470 CURVE SMOOTH",
"471 409.931 OFFCURVE",
"374.75 368 OFFCURVE",
"297 368 CURVE SMOOTH",
"255.136 368 OFFCURVE",
"232 353.829 OFFCURVE",
"232 326 CURVE SMOOTH",
"232 298.439 OFFCURVE",
"253.751 284.086 OFFCURVE",
"293.838 283.002 CURVE SMOOTH",
"375.9 283 OFFCURVE",
"471 222.068 OFFCURVE",
"471 168 CURVE SMOOTH",
"471 100.487 OFFCURVE",
"433.911 73 OFFCURVE",
"342 73 CURVE SMOOTH",
"250 73 LINE SMOOTH",
"184.89 73 OFFCURVE",
"122 96.684 OFFCURVE",
"122 119 CURVE SMOOTH",
"122 151.213 OFFCURVE",
"107.753 168 OFFCURVE",
"80 168 CURVE SMOOTH",
"52.284 168 OFFCURVE",
"38 149.35 OFFCURVE",
"38 114 CURVE SMOOTH",
"38 41.981 OFFCURVE",
"125.524 -11 OFFCURVE",
"243 -11 CURVE SMOOTH",
"329 -11 LINE SMOOTH",
"491.395 -11 OFFCURVE",
"554 44.538 OFFCURVE",
"554 189 CURVE SMOOTH",
"554 229.785 OFFCURVE",
"505.079 291.67 OFFCURVE",
"447.691 325.756 CURVE",
"510.36 359.174 OFFCURVE",
"554 408.103 OFFCURVE",
"554 447 CURVE SMOOTH",
"554 591.462 OFFCURVE",
"491.395 647 OFFCURVE",
"329 647 CURVE SMOOTH",
"243 647 LINE SMOOTH",
"125.524 647 OFFCURVE",
"38 594.019 OFFCURVE",
"38 522 CURVE SMOOTH",
"38 486.65 OFFCURVE",
"52.284 468 OFFCURVE",
"80 468 CURVE SMOOTH",
"107.753 468 OFFCURVE",
"122 484.787 OFFCURVE",
"122 517 CURVE SMOOTH",
"122 539.128 OFFCURVE",
"185.413 563 OFFCURVE",
"250 563 CURVE SMOOTH",
"342 563 LINE SMOOTH"
);
}
);
width = 592;
}
);
note = three;
rightKerningGroup = three;
unicode = 0033;
},
{
glyphname = four;
lastChange = "2016-07-31 02:36:39 +0000";
layers = (
{
layerId = "AE6579ED-DC47-4075-A6A3-4B1A21099458";
paths = (
{
closed = 1;
nodes = (
"539.394 154 OFFCURVE",
"556 168.406 OFFCURVE",
"556 196 CURVE SMOOTH",
"556 223.594 OFFCURVE",
"539.394 238 OFFCURVE",
"508 238 CURVE SMOOTH",
"468 238 LINE",
"468 647 LINE",
"375.177 647 LINE",
"36 237.161 LINE",
"36 154 LINE",
"380 154 LINE",
"380 32 LINE SMOOTH",
"380 4.788 OFFCURVE",
"398.205 -13 OFFCURVE",
"426 -13 CURVE SMOOTH",
"453.535 -13 OFFCURVE",
"468 2.569 OFFCURVE",
"468 32 CURVE SMOOTH",
"468 154 LINE",
"508 154 LINE SMOOTH"
);
},
{
closed = 1;
nodes = (
"380 533.282 LINE",
"380 238 LINE",
"136.718 238 LINE"
);
}
);
width = 592;
}
);
leftKerningGroup = four;
note = four;
rightKerningGroup = four;
unicode = 0034;
},
{
glyphname = five;
lastChange = "2016-07-31 02:36:39 +0000";
layers = (
{
layerId = "AE6579ED-DC47-4075-A6A3-4B1A21099458";
paths = (
{
closed = 1;
nodes = (
"43 50.979 OFFCURVE",
"182.823 -15 OFFCURVE",
"291 -15 CURVE SMOOTH",
"444.885 -15 OFFCURVE",
"549 81.573 OFFCURVE",
"549 226 CURVE SMOOTH",
"549 359.691 OFFCURVE",
"448.811 455 OFFCURVE",
"310 455 CURVE SMOOTH",
"138.506 455 LINE",
"143.98 522.515 LINE SMOOTH",
"147.498 554.147 OFFCURVE",
"155.898 563 OFFCURVE",
"182 563 CURVE SMOOTH",
"459 563 LINE SMOOTH",
"489.284 563 OFFCURVE",
"507 577.987 OFFCURVE",
"507 604 CURVE SMOOTH",
"507 632.409 OFFCURVE",
"490.597 647 OFFCURVE",
"459 647 CURVE SMOOTH",
"190 647 LINE SMOOTH",
"101.47 647 OFFCURVE",
"65.108 608.738 OFFCURVE",
"58.015 508.423 CURVE SMOOTH",
"48.574 371 LINE",
"319 371 LINE SMOOTH",
"405.562 371 OFFCURVE",
"465 314.895 OFFCURVE",
"465 230 CURVE SMOOTH",
"465 125.866 OFFCURVE",
"404.283 69 OFFCURVE",
"291 69 CURVE SMOOTH",
"223.416 69 OFFCURVE",
"159.084 101.166 OFFCURVE",
"122.45 126.909 CURVE SMOOTH",
"103.062 140.175 OFFCURVE",
"89.857 147 OFFCURVE",
"81 147 CURVE SMOOTH",
"62.101 147 OFFCURVE",
"43 125.783 OFFCURVE",
"43 105 CURVE SMOOTH"
);
}
);
width = 592;
}
);
note = five;
rightKerningGroup = five;
unicode = 0035;
},
{
glyphname = six;
lastChange = "2016-07-31 02:36:39 +0000";
layers = (
{
layerId = "AE6579ED-DC47-4075-A6A3-4B1A21099458";
paths = (
{
closed = 1;
nodes = (
"447.519 -15 OFFCURVE",
"554 79.229 OFFCURVE",
"554 215 CURVE SMOOTH",
"554 349.978 OFFCURVE",
"447.286 444 OFFCURVE",
"296 444 CURVE SMOOTH",
"244.385 444 OFFCURVE",
"199.933 434.312 OFFCURVE",
"162.018 415.111 CURVE",
"196.09 484.904 OFFCURVE",
"253.119 540.812 OFFCURVE",
"319.383 569.494 CURVE",
"341.738 580.661 OFFCURVE",
"353 594.421 OFFCURVE",
"353 611 CURVE SMOOTH",
"353 636.818 OFFCURVE",
"336.183 650 OFFCURVE",
"304 650 CURVE SMOOTH",
"292.152 650 OFFCURVE",
"276.431 644.955 OFFCURVE",
"256.206 634.31 CURVE SMOOTH",
"212.148 610.587 OFFCURVE",
"157.821 557.694 OFFCURVE",
"117.056 498.399 CURVE SMOOTH",
"66.887 425.427 OFFCURVE",
"38 318.774 OFFCURVE",
"38 207 CURVE SMOOTH",
"38 78.578 OFFCURVE",
"146.913 -15 OFFCURVE",
"296 -15 CURVE SMOOTH"
);
},
{
closed = 1;
nodes = (
"196.949 346.612 OFFCURVE",
"239.748 360 OFFCURVE",
"296 360 CURVE SMOOTH",
"406.346 360 OFFCURVE",
"470 305.875 OFFCURVE",
"470 214 CURVE SMOOTH",
"470 122.874 OFFCURVE",
"405.55 69 OFFCURVE",
"296 69 CURVE SMOOTH",
"186.45 69 OFFCURVE",
"122 122.874 OFFCURVE",
"122 214 CURVE SMOOTH",
"122 259.334 OFFCURVE",
"137.181 294.556 OFFCURVE",
"166.941 320.476 CURVE SMOOTH"
);
}
);
width = 592;
}
);
leftKerningGroup = six;
note = six;
rightKerningGroup = six;
unicode = 0036;
},
{
glyphname = seven;
lastChange = "2016-07-31 02:36:39 +0000";
layers = (
{
layerId = "AE6579ED-DC47-4075-A6A3-4B1A21099458";
paths = (
{
closed = 1;
nodes = (
"287.409 -16 OFFCURVE",
"302.463 -3.819 OFFCURVE",
"312.515 19.636 CURVE SMOOTH",
"540.568 587.765 LINE SMOOTH",
"543.59 594.812 OFFCURVE",
"545 602.125 OFFCURVE",
"545 613 CURVE SMOOTH",
"545 638.539 OFFCURVE",
"530.428 652 OFFCURVE",
"503 652 CURVE SMOOTH",
"163 652 LINE SMOOTH",
"82.213 652 OFFCURVE",
"47 613.041 OFFCURVE",
"47 524 CURVE SMOOTH",
"47 490.632 OFFCURVE",
"61.345 473 OFFCURVE",
"89 473 CURVE SMOOTH",
"116.655 473 OFFCURVE",
"131 490.632 OFFCURVE",
"131 524 CURVE SMOOTH",
"131 559.687 OFFCURVE",
"138.648 568 OFFCURVE",
"171 568 CURVE SMOOTH",
"443.978 568 LINE",
"226.467 49.32 LINE",
"226.755 49.914 LINE",
"221.376 40.231 OFFCURVE",
"219 30.408 OFFCURVE",
"219 20 CURVE SMOOTH",
"219 -0.231 OFFCURVE",
"240.822 -16 OFFCURVE",
"268 -16 CURVE SMOOTH"
);
}
);
width = 592;
}
);
leftKerningGroup = seven;
note = seven;
rightKerningGroup = seven;
unicode = 0037;
},
{
glyphname = eight;
lastChange = "2016-07-31 02:36:39 +0000";
layers = (
{
layerId = "AE6579ED-DC47-4075-A6A3-4B1A21099458";
paths = (
{
closed = 1;
nodes = (
"446.087 286 OFFCURVE",
"470 270.093 OFFCURVE",
"470 180 CURVE SMOOTH",
"470 89.47 OFFCURVE",
"445.48 73 OFFCURVE",
"314 73 CURVE SMOOTH",
"279 73 LINE SMOOTH",
"146.062 73 OFFCURVE",
"122 89.716 OFFCURVE",
"122 180 CURVE SMOOTH",
"122 269.805 OFFCURVE",
"146.487 286 OFFCURVE",
"279 286 CURVE SMOOTH",
"314 286 LINE SMOOTH"
);
},
{
closed = 1;
nodes = (
"532.197 49.142 OFFCURVE",
"554 99.893 OFFCURVE",
"554 173 CURVE SMOOTH",
"554 242.04 OFFCURVE",
"537.106 293.018 OFFCURVE",
"502.562 325.529 CURVE",
"536.986 352.327 OFFCURVE",
"554 397.632 OFFCURVE",
"554 460 CURVE SMOOTH",
"554 588.715 OFFCURVE",
"518.342 645.983 OFFCURVE",
"314.03 647 CURVE SMOOTH",
"279 647 LINE SMOOTH",
"246.813 645.997 OFFCURVE",
"220.735 644.994 OFFCURVE",
"200.7 643.993 CURVE",
"83.509 632.386 OFFCURVE",
"38 583.09 OFFCURVE",
"38 468 CURVE SMOOTH",
"38 402.787 OFFCURVE",
"55.376 354.901 OFFCURVE",
"90.528 325.77 CURVE",
"55.356 293.767 OFFCURVE",
"38 243.103 OFFCURVE",
"38 175 CURVE SMOOTH",
"38 38.233 OFFCURVE",
"102.084 -11 OFFCURVE",
"279 -11 CURVE SMOOTH",
"314 -11 LINE SMOOTH",
"394.366 -11 OFFCURVE",
"445.057 -4.793 OFFCURVE",
"489.191 22.919 CURVE SMOOTH"
);
},
{
closed = 1;
nodes = (
"456.113 390.476 OFFCURVE",
"441.579 384.492 OFFCURVE",
"424.445 376.429 CURVE",
"416.967 372.29 OFFCURVE",
"382.334 370 OFFCURVE",
"314 370 CURVE SMOOTH",
"279 370 LINE SMOOTH",
"243.103 370 OFFCURVE",
"214.388 370.99 OFFCURVE",
"193.569 372.973 CURVE SMOOTH",
"179.364 373.989 OFFCURVE",
"170.461 375.978 OFFCURVE",
"165.683 378.367 CURVE",
"165.154 378.6 LINE",
"152.365 383.519 OFFCURVE",
"135.882 391.326 OFFCURVE",
"131.692 403.897 CURVE SMOOTH",
"125.082 423.729 OFFCURVE",
"122 442.815 OFFCURVE",
"122 466 CURVE SMOOTH",
"122 489.206 OFFCURVE",
"125.098 509 OFFCURVE",
"131.727 530.21 CURVE SMOOTH",
"135.833 542.525 OFFCURVE",
"152.443 549.518 OFFCURVE",
"169.555 557.571 CURVE SMOOTH",
"176.138 560.861 OFFCURVE",
"212.942 563 OFFCURVE",
"277 563 CURVE SMOOTH",
"314 563 LINE SMOOTH",
"357.906 563 OFFCURVE",
"389.48 562.013 OFFCURVE",
"410.151 559.06 CURVE SMOOTH",
"439.204 555.311 OFFCURVE",
"444.538 549.976 OFFCURVE",
"457.343 534.216 CURVE",
"466.805 521.593 OFFCURVE",
"470 504.361 OFFCURVE",
"470 468 CURVE SMOOTH",
"470 436.776 OFFCURVE",
"465.247 418.714 OFFCURVE",
"460.308 403.897 CURVE SMOOTH"
);
}
);
width = 592;
}
);
leftKerningGroup = eight;
note = eight;
rightKerningGroup = eight;
unicode = 0038;
},
{
glyphname = nine;
lastChange = "2016-07-31 02:36:39 +0000";
layers = (
{
layerId = "AE6579ED-DC47-4075-A6A3-4B1A21099458";
paths = (
{
closed = 1;
nodes = (
"38 346.1 OFFCURVE",
"130.682 286 OFFCURVE",
"314 286 CURVE SMOOTH",
"368.892 286 OFFCURVE",
"413.792 292.404 OFFCURVE",
"447.796 304.838 CURVE",
"424.167 228.395 OFFCURVE",
"375.671 159.992 OFFCURVE",
"317.652 120.979 CURVE SMOOTH",
"264.703 85.376 OFFCURVE",
"205.101 63 OFFCURVE",
"166 63 CURVE SMOOTH",
"131.772 63 OFFCURVE",
"113 48.33 OFFCURVE",
"113 21 CURVE SMOOTH",
"113 -7.24 OFFCURVE",
"129.226 -22 OFFCURVE",
"160 -22 CURVE SMOOTH",
"259.755 -22 OFFCURVE",
"358.765 27.031 OFFCURVE",
"432.532 112.068 CURVE SMOOTH",
"509.377 200.653 OFFCURVE",
"554 331.438 OFFCURVE",
"554 466 CURVE SMOOTH",
"554 586.575 OFFCURVE",
"473.555 647 OFFCURVE",
"314 647 CURVE SMOOTH",
"311 647 OFFCURVE",
"308 647 OFFCURVE",
"305 647 CURVE SMOOTH",
"274.243 647 OFFCURVE",
"241.777 643.878 OFFCURVE",
"206.986 637.914 CURVE SMOOTH",
"101.585 621.406 OFFCURVE",
"38 557.558 OFFCURVE",
"38 466 CURVE SMOOTH"
);
},
{
closed = 1;
nodes = (
"423.7 563 OFFCURVE",
"470 533.425 OFFCURVE",
"470 466 CURVE SMOOTH",
"470 398.327 OFFCURVE",
"425.25 370 OFFCURVE",
"314 370 CURVE SMOOTH",
"291.158 370 OFFCURVE",
"272.315 370.992 OFFCURVE",
"256.374 371.988 CURVE SMOOTH",
"166.203 376.836 OFFCURVE",
"122 408.551 OFFCURVE",
"122 466 CURVE SMOOTH",
"122 530.654 OFFCURVE",
"185.053 563 OFFCURVE",
"314 563 CURVE SMOOTH"
);
}
);
width = 592;
}
);
leftKerningGroup = nine;
note = nine;
rightKerningGroup = nine;
unicode = 0039;
},
{
glyphname = colon;
lastChange = "2016-07-31 02:36:39 +0000";
layers = (
{
layerId = "AE6579ED-DC47-4075-A6A3-4B1A21099458";
paths = (
{
closed = 1;
nodes = (
"201 109.364 OFFCURVE",
"168.342 137 OFFCURVE",
"134 137 CURVE SMOOTH",
"99.658 137 OFFCURVE",
"67 109.364 OFFCURVE",
"67 80 CURVE SMOOTH",
"67 50.033 OFFCURVE",
"98.458 23 OFFCURVE",
"133 23 CURVE SMOOTH",
"168.125 23 OFFCURVE",
"201 50.397 OFFCURVE",
"201 80 CURVE SMOOTH"
);
},
{
closed = 1;
nodes = (
"201 462.364 OFFCURVE",
"168.342 490 OFFCURVE",
"134 490 CURVE SMOOTH",
"99.658 490 OFFCURVE",
"67 462.364 OFFCURVE",
"67 433 CURVE SMOOTH",
"67 403.033 OFFCURVE",
"98.458 376 OFFCURVE",
"133 376 CURVE SMOOTH",
"168.125 376 OFFCURVE",
"201 403.397 OFFCURVE",
"201 433 CURVE SMOOTH"
);
}
);
width = 268;
}
);
leftKerningGroup = colon;
note = colon;
rightKerningGroup = numbersign;
unicode = 003A;
},
{
glyphname = semicolon;
lastChange = "2016-07-31 02:36:39 +0000";
layers = (
{
layerId = "AE6579ED-DC47-4075-A6A3-4B1A21099458";
paths = (
{
closed = 1;
nodes = (
"196.522 75.585 OFFCURVE",
"199 85.442 OFFCURVE",
"199 95 CURVE SMOOTH",
"199 115.949 OFFCURVE",
"172.927 133 OFFCURVE",
"142 133 CURVE SMOOTH",
"121.874 133 OFFCURVE",
"107.823 120.722 OFFCURVE",
"101.231 97.648 CURVE SMOOTH",
"77.216 10.596 LINE",
"77.082 9.986 LINE",
"75.19 -1.363 OFFCURVE",
"74.198 -7.318 OFFCURVE",
"74.082 -8.014 CURVE",
"74 -9 LINE",
"74 -35.413 OFFCURVE",
"87.447 -50 OFFCURVE",
"112 -50 CURVE SMOOTH",
"128.503 -50 OFFCURVE",
"141.393 -38.858 OFFCURVE",
"151.472 -16.462 CURVE SMOOTH",
"191.405 66.395 LINE"
);
},
{
closed = 1;
nodes = (
"201 462.364 OFFCURVE",
"168.342 490 OFFCURVE",
"134 490 CURVE SMOOTH",
"99.658 490 OFFCURVE",
"67 462.364 OFFCURVE",
"67 433 CURVE SMOOTH",
"67 403.033 OFFCURVE",
"98.458 376 OFFCURVE",
"133 376 CURVE SMOOTH",
"168.125 376 OFFCURVE",
"201 403.397 OFFCURVE",
"201 433 CURVE SMOOTH"
);
}
);
width = 271;
}
);
leftKerningGroup = semicolon;
note = semicolon;
rightKerningGroup = numbersign;
unicode = 003B;
},
{
glyphname = less;
lastChange = "2016-07-31 02:36:39 +0000";
layers = (
{
layerId = "AE6579ED-DC47-4075-A6A3-4B1A21099458";
paths = (
{
closed = 1;
nodes = (
"426.297 75.924 OFFCURVE",
"435.39 73 OFFCURVE",
"445 73 CURVE SMOOTH",
"466.93 73 OFFCURVE",
"486 93.049 OFFCURVE",
"486 116 CURVE SMOOTH",
"486 130.659 OFFCURVE",
"476.626 143.24 OFFCURVE",
"458.042 154.172 CURVE SMOOTH",
"151.944 332.972 LINE",
"458.002 509.805 LINE",
"457.483 509.538 LINE",
"473.648 516.886 OFFCURVE",
"486 535.693 OFFCURVE",
"486 553 CURVE SMOOTH",
"486 574.186 OFFCURVE",
"468.163 590 OFFCURVE",
"446 590 CURVE SMOOTH",
"436.511 590 OFFCURVE",
"426.448 587.106 OFFCURVE",
"416.82 581.088 CURVE",
"52.008 371.201 LINE SMOOTH",
"35.321 361.19 OFFCURVE",
"27 348.582 OFFCURVE",
"27 333 CURVE SMOOTH",
"27 316.276 OFFCURVE",
"35.464 302.724 OFFCURVE",
"51.913 292.855 CURVE SMOOTH",
"416.002 82.803 LINE"
);
}
);
width = 548;
}
);
note = less;
rightKerningGroup = numbersign;
unicode = 003C;
},
{
glyphname = equal;
lastChange = "2016-07-31 02:36:39 +0000";
layers = (
{
layerId = "AE6579ED-DC47-4075-A6A3-4B1A21099458";
paths = (
{
closed = 1;
nodes = (
"92.37 426 OFFCURVE",
"73 408.796 OFFCURVE",
"73 384 CURVE SMOOTH",
"73 355.76 OFFCURVE",
"89.226 341 OFFCURVE",
"120 341 CURVE SMOOTH",
"365 341 LINE SMOOTH",
"393.473 341 OFFCURVE",
"415 357.932 OFFCURVE",
"415 382 CURVE SMOOTH",
"415 410.608 OFFCURVE",
"397.374 426 OFFCURVE",
"365 426 CURVE SMOOTH",
"120 426 LINE SMOOTH"
);
},
{
closed = 1;
nodes = (
"92.37 323 OFFCURVE",
"73 305.796 OFFCURVE",
"73 281 CURVE SMOOTH",
"73 252.76 OFFCURVE",
"89.226 238 OFFCURVE",
"120 238 CURVE SMOOTH",
"365 238 LINE SMOOTH",
"393.473 238 OFFCURVE",
"415 254.932 OFFCURVE",
"415 279 CURVE SMOOTH",
"415 307.608 OFFCURVE",
"397.374 323 OFFCURVE",
"365 323 CURVE SMOOTH",
"120 323 LINE SMOOTH"
);
}
);
width = 488;
}
);
note = equal;
rightKerningGroup = numbersign;
unicode = 003D;
},
{
glyphname = greater;
lastChange = "2016-07-31 02:36:39 +0000";
layers = (
{
layerId = "AE6579ED-DC47-4075-A6A3-4B1A21099458";
paths = (
{
closed = 1;
nodes = (
"512.536 302.724 OFFCURVE",
"521 316.276 OFFCURVE",
"521 333 CURVE SMOOTH",
"521 348.582 OFFCURVE",
"512.679 361.19 OFFCURVE",
"496.087 371.145 CURVE SMOOTH",
"130.992 581.201 LINE",
"121.552 587.106 OFFCURVE",
"111.489 590 OFFCURVE",
"102 590 CURVE SMOOTH",
"79.837 590 OFFCURVE",
"62 574.186 OFFCURVE",
"62 553 CURVE SMOOTH",
"62 535.693 OFFCURVE",
"74.352 516.886 OFFCURVE",
"90.517 509.538 CURVE",
"89.998 509.805 LINE",
"396.056 332.972 LINE",
"89.974 154.181 LINE SMOOTH",
"71.616 143.382 OFFCURVE",
"62 130.836 OFFCURVE",
"62 117 CURVE SMOOTH",
"62 92.814 OFFCURVE",
"80.395 73 OFFCURVE",
"103 73 CURVE SMOOTH",
"112.61 73 OFFCURVE",
"121.703 75.924 OFFCURVE",
"132.328 83.008 CURVE",
"495.998 292.803 LINE SMOOTH"
);
}
);
width = 548;
}
);
note = greater;
rightKerningGroup = numbersign;
unicode = 003E;
},
{
glyphname = question;
lastChange = "2016-07-31 02:36:39 +0000";
layers = (
{
layerId = "AE6579ED-DC47-4075-A6A3-4B1A21099458";
paths = (
{
closed = 1;
nodes = (
"327 58.364 OFFCURVE",
"294.342 86 OFFCURVE",
"260 86 CURVE SMOOTH",
"225.658 86 OFFCURVE",
"193 58.364 OFFCURVE",
"193 29 CURVE SMOOTH",
"193 -0.967 OFFCURVE",
"224.458 -28 OFFCURVE",
"259 -28 CURVE SMOOTH",
"294.125 -28 OFFCURVE",
"327 -0.603 OFFCURVE",
"327 29 CURVE SMOOTH"
);
},
{
closed = 1;
nodes = (
"218 164.608 OFFCURVE",
"235.086 145 OFFCURVE",
"261 145 CURVE SMOOTH",
"286.216 145 OFFCURVE",
"302 164.058 OFFCURVE",
"302 194 CURVE SMOOTH",
"302 286.451 LINE",
"379.62 308.223 LINE SMOOTH",
"479.135 336.368 OFFCURVE",
"519 386.318 OFFCURVE",
"519 483 CURVE SMOOTH",
"519 530.308 OFFCURVE",
"506.034 571.282 OFFCURVE",
"480.834 605.554 CURVE SMOOTH",
"453.837 643.351 OFFCURVE",
"400.582 665 OFFCURVE",
"337 665 CURVE SMOOTH",
"261 665 LINE SMOOTH",
"93.129 665 OFFCURVE",
"31 613.36 OFFCURVE",
"31 471 CURVE SMOOTH",
"31 441.608 OFFCURVE",
"48.086 422 OFFCURVE",
"74 422 CURVE SMOOTH",
"99.564 422 OFFCURVE",
"116 441.341 OFFCURVE",
"116 471 CURVE SMOOTH",
"116 564.281 OFFCURVE",
"138.592 581 OFFCURVE",
"261 581 CURVE SMOOTH",
"354 581 LINE SMOOTH",
"403.691 581 OFFCURVE",
"435 543.233 OFFCURVE",
"435 485 CURVE SMOOTH",
"435 440.925 OFFCURVE",
"415.125 404.431 OFFCURVE",
"387.404 396.784 CURVE SMOOTH",
"218 350.583 LINE",
"218 194 LINE SMOOTH"
);
}
);
width = 553;
}
);
leftKerningGroup = question;
note = question;
rightKerningGroup = numbersign;
unicode = 003F;
},
{
glyphname = at;
lastChange = "2016-07-31 02:36:39 +0000";
layers = (
{
layerId = "AE6579ED-DC47-4075-A6A3-4B1A21099458";
paths = (
{
closed = 1;
nodes = (
"63 80.027 OFFCURVE",
"151.177 -21 OFFCURVE",
"292 -21 CURVE SMOOTH",
"433 -21 LINE SMOOTH",
"512.231 -21 OFFCURVE",
"550 18.774 OFFCURVE",
"550 102 CURVE SMOOTH",
"550 137.858 OFFCURVE",
"535.637 158 OFFCURVE",
"508 158 CURVE SMOOTH",
"480.247 158 OFFCURVE",
"466 141.213 OFFCURVE",
"466 109 CURVE SMOOTH",
"466 71.995 OFFCURVE",
"458.048 63 OFFCURVE",
"426 63 CURVE SMOOTH",
"292 63 LINE SMOOTH",
"197.155 63 OFFCURVE",
"147 123.683 OFFCURVE",
"147 241 CURVE SMOOTH",
"147 395 LINE SMOOTH",
"147 512.317 OFFCURVE",
"197.155 573 OFFCURVE",
"292 573 CURVE SMOOTH",
"321 573 LINE SMOOTH",
"411.807 573 OFFCURVE",
"466 510.685 OFFCURVE",
"466 406 CURVE SMOOTH",
"466 356.193 OFFCURVE",
"464.066 321.957 OFFCURVE",
"460.143 304.302 CURVE",
"457.608 295.205 OFFCURVE",
"454.27 287.938 OFFCURVE",
"450.17 282.471 CURVE",
"452.12 296.109 OFFCURVE",
"453 312.532 OFFCURVE",
"453 332 CURVE SMOOTH",
"453 449.552 OFFCURVE",
"414.162 494 OFFCURVE",
"311 494 CURVE SMOOTH",
"206.559 494 OFFCURVE",
"168 450.186 OFFCURVE",
"168 332 CURVE SMOOTH",
"168 213.571 OFFCURVE",
"206.701 169 OFFCURVE",
"310 169 CURVE SMOOTH",
"393.011 169 OFFCURVE",
"453.595 182.466 OFFCURVE",
"491.537 210.153 CURVE SMOOTH",
"507.275 220.971 OFFCURVE",
"520.379 237.986 OFFCURVE",
"530.515 261.636 CURVE SMOOTH",
"547.92 304.634 OFFCURVE",
"550 334.793 OFFCURVE",
"550 395 CURVE SMOOTH",
"550 555.973 OFFCURVE",
"461.823 657 OFFCURVE",
"321 657 CURVE SMOOTH",
"292 657 LINE SMOOTH",
"151.177 657 OFFCURVE",
"63 555.973 OFFCURVE",
"63 395 CURVE SMOOTH",
"63 241 LINE SMOOTH"
);
},
{
closed = 1;
nodes = (
"252 401.654 OFFCURVE",
"258.555 410 OFFCURVE",
"311 410 CURVE SMOOTH",
"362.096 410 OFFCURVE",
"369 401.058 OFFCURVE",
"369 332 CURVE SMOOTH",
"369 261.988 OFFCURVE",
"362.137 253 OFFCURVE",
"311 253 CURVE SMOOTH",
"258.918 253 OFFCURVE",
"252 261.926 OFFCURVE",
"252 332 CURVE SMOOTH"
);
}
);
width = 612;
}
);
note = at;
rightKerningGroup = numbersign;
unicode = 0040;
},
{
glyphname = A;
lastChange = "2016-07-31 02:36:39 +0000";
layers = (
{
layerId = "AE6579ED-DC47-4075-A6A3-4B1A21099458";
paths = (
{
closed = 1;
nodes = (
"21.421 39.207 LINE",
"18.97 31.883 OFFCURVE",
"18 22.979 OFFCURVE",
"18 14 CURVE SMOOTH",
"18 -5.37 OFFCURVE",
"37.567 -22 OFFCURVE",
"60 -22 CURVE SMOOTH",
"79.607 -22 OFFCURVE",
"93.619 -11.491 OFFCURVE",
"102.53 9.672 CURVE SMOOTH",
"170.101 183 LINE",
"439.899 183 LINE",
"507.41 9.821 LINE SMOOTH",
"515.022 -10.844 OFFCURVE",
"529.857 -22 OFFCURVE",
"550 -22 CURVE SMOOTH",
"572.433 -22 OFFCURVE",
"592 -5.37 OFFCURVE",
"592 14 CURVE SMOOTH",
"592 22.979 OFFCURVE",
"591.03 31.883 OFFCURVE",
"588.692 38.897 CURVE",
"350.079 642 LINE",
"259.921 642 LINE"
);
},
{
closed = 1;
nodes = (
"406.059 267 LINE",
"203.88 267 LINE",
"304.051 516.047 LINE"
);
}
);
width = 610;
}
);
leftKerningGroup = A;
note = A;
rightKerningGroup = A;
unicode = 0041;
},
{
glyphname = B;
lastChange = "2016-07-31 02:36:39 +0000";
layers = (
{
layerId = "AE6579ED-DC47-4075-A6A3-4B1A21099458";
paths = (
{
closed = 1;
nodes = (
"485.391 306 OFFCURVE",
"510 289.62 OFFCURVE",
"510 200 CURVE SMOOTH",
"510 184 LINE SMOOTH",
"510 94.045 OFFCURVE",
"484.299 78 OFFCURVE",
"336 78 CURVE SMOOTH",
"162 78 LINE",
"162 306 LINE",
"354 306 LINE SMOOTH"
);
},
{
closed = 1;
nodes = (
"78 11.909 OFFCURVE",
"91.601 -6 OFFCURVE",
"118 -6 CURVE SMOOTH",
"336 -6 LINE SMOOTH",
"527.474 -6 OFFCURVE",
"594 42.244 OFFCURVE",
"594 184 CURVE SMOOTH",
"594 203 LINE SMOOTH",
"594 283.249 OFFCURVE",
"567.931 338.432 OFFCURVE",
"516.03 367.51 CURVE",
"540.294 393.362 OFFCURVE",
"552 429.111 OFFCURVE",
"552 475 CURVE SMOOTH",
"552 595.161 OFFCURVE",
"481.873 642 OFFCURVE",
"306 642 CURVE SMOOTH",
"118 642 LINE SMOOTH",
"91.601 642 OFFCURVE",
"78 624.091 OFFCURVE",
"78 592 CURVE SMOOTH",
"78 44 LINE SMOOTH"
);
},
{
closed = 1;
nodes = (
"162 553 LINE",
"306 553 LINE SMOOTH",
"437.162 553 OFFCURVE",
"468 537.251 OFFCURVE",
"468 472 CURVE SMOOTH",
"468 406.323 OFFCURVE",
"436.396 390 OFFCURVE",
"306 390 CURVE SMOOTH",
"162 390 LINE"
);
}
);
width = 644;
}
);
leftKerningGroup = B;
note = B;
rightKerningGroup = B;
unicode = 0042;
},
{
glyphname = C;
lastChange = "2016-07-31 02:36:39 +0000";
layers = (
{
layerId = "AE6579ED-DC47-4075-A6A3-4B1A21099458";
paths = (
{
closed = 1;
nodes = (
"544.223 -6 OFFCURVE",
"581 32.748 OFFCURVE",
"581 116 CURVE SMOOTH",
"581 151.946 OFFCURVE",
"566.571 171.856 OFFCURVE",
"539.25 172.995 CURVE",
"512.455 173 OFFCURVE",
"497 153.237 OFFCURVE",
"497 120 CURVE SMOOTH",
"497 86.739 OFFCURVE",
"488.815 78 OFFCURVE",
"458 78 CURVE SMOOTH",
"324 78 LINE SMOOTH",
"173.803 78 OFFCURVE",
"149 93.687 OFFCURVE",
"149 186 CURVE SMOOTH",
"149 450 LINE SMOOTH",
"149 541.146 OFFCURVE",
"174.01 558 OFFCURVE",
"306 558 CURVE SMOOTH",
"458 558 LINE SMOOTH",
"488.815 558 OFFCURVE",
"497 549.261 OFFCURVE",
"497 516 CURVE SMOOTH",
"497 482.763 OFFCURVE",
"512.455 463 OFFCURVE",
"539 463 CURVE SMOOTH",
"566.637 463 OFFCURVE",
"581 483.142 OFFCURVE",
"581 519 CURVE SMOOTH",
"581 602.648 OFFCURVE",
"543.963 642 OFFCURVE",
"465 642 CURVE SMOOTH",
"306 642 LINE SMOOTH",
"129.834 642 OFFCURVE",
"65 591.687 OFFCURVE",
"65 452 CURVE SMOOTH",
"65 184 LINE SMOOTH",
"65 42.134 OFFCURVE",
"131.635 -6 OFFCURVE",
"324 -6 CURVE SMOOTH",
"465 -6 LINE SMOOTH"
);
}
);
width = 631;
}
);
leftKerningGroup = C;
note = C;
rightKerningGroup = C;
unicode = 0043;
},
{
glyphname = D;
lastChange = "2016-07-31 02:36:39 +0000";
layers = (
{
layerId = "AE6579ED-DC47-4075-A6A3-4B1A21099458";
paths = (
{
closed = 1;
nodes = (
"594 591.108 OFFCURVE",
"529.453 642 OFFCURVE",
"354 642 CURVE SMOOTH",
"118 642 LINE SMOOTH",
"91.601 642 OFFCURVE",
"78 624.091 OFFCURVE",
"78 592 CURVE SMOOTH",
"78 44 LINE SMOOTH",
"78 11.909 OFFCURVE",
"91.601 -6 OFFCURVE",
"118 -6 CURVE SMOOTH",
"336 -6 LINE SMOOTH",
"527.474 -6 OFFCURVE",
"594 42.244 OFFCURVE",
"594 184 CURVE SMOOTH",
"594 452 LINE SMOOTH"
);
},
{
closed = 1;
nodes = (
"510 93.414 OFFCURVE",
"485.774 78 OFFCURVE",
"336 78 CURVE SMOOTH",
"162 78 LINE",
"162 558 LINE",
"354 558 LINE SMOOTH",
"485.567 558 OFFCURVE",
"510 541.439 OFFCURVE",
"510 450 CURVE SMOOTH",
"510 186 LINE SMOOTH"
);
}
);
width = 659;
}
);
leftKerningGroup = B;
note = D;
rightKerningGroup = D;
unicode = 0044;
},
{
glyphname = E;
lastChange = "2016-07-31 02:36:39 +0000";
layers = (
{
layerId = "AE6579ED-DC47-4075-A6A3-4B1A21099458";
paths = (
{
closed = 1;
nodes = (
"457.104 316 OFFCURVE",
"477 329.456 OFFCURVE",
"477 356 CURVE SMOOTH",
"477 384.738 OFFCURVE",
"457.305 400 OFFCURVE",
"421 400 CURVE SMOOTH",
"162 400 LINE",
"162 558 LINE",
"544 558 LINE SMOOTH",
"576.091 558 OFFCURVE",
"594 571.601 OFFCURVE",
"594 598 CURVE SMOOTH",
"594 626.608 OFFCURVE",
"576.374 642 OFFCURVE",
"544 642 CURVE SMOOTH",
"118 642 LINE SMOOTH",
"91.601 642 OFFCURVE",
"78 624.091 OFFCURVE",
"78 592 CURVE SMOOTH",
"78 44 LINE SMOOTH",
"78 11.909 OFFCURVE",
"91.601 -6 OFFCURVE",
"118 -6 CURVE SMOOTH",
"544 -6 LINE SMOOTH",
"576.091 -6 OFFCURVE",
"594 7.601 OFFCURVE",
"594 34 CURVE SMOOTH",
"594 62.608 OFFCURVE",
"576.374 78 OFFCURVE",
"544 78 CURVE SMOOTH",
"162 78 LINE",
"162 316 LINE",
"421 316 LINE SMOOTH"
);
}
);
width = 636;
}
);
leftKerningGroup = B;
note = E;
rightKerningGroup = E;
unicode = 0045;
},
{
glyphname = F;
lastChange = "2016-07-31 02:36:39 +0000";
layers = (
{
layerId = "AE6579ED-DC47-4075-A6A3-4B1A21099458";
paths = (
{
closed = 1;
nodes = (
"421 316 LINE SMOOTH",
"457.104 316 OFFCURVE",
"477 329.456 OFFCURVE",
"477 356 CURVE SMOOTH",
"477 384.738 OFFCURVE",
"457.305 400 OFFCURVE",
"421 400 CURVE SMOOTH",
"162 400 LINE",
"162 558 LINE",
"544 558 LINE SMOOTH",
"576.091 558 OFFCURVE",
"594 571.601 OFFCURVE",
"594 598 CURVE SMOOTH",
"594 626.608 OFFCURVE",
"576.374 642 OFFCURVE",
"544 642 CURVE SMOOTH",
"118 642 LINE SMOOTH",
"91.601 642 OFFCURVE",
"78 624.091 OFFCURVE",
"78 592 CURVE SMOOTH",
"78 36 LINE SMOOTH",
"78 3.787 OFFCURVE",
"92.247 -13 OFFCURVE",
"120 -13 CURVE SMOOTH",
"147.594 -13 OFFCURVE",
"162 3.606 OFFCURVE",
"162 35 CURVE SMOOTH",
"162 316 LINE"
);
}
);
width = 615;
}
);
leftKerningGroup = B;
note = F;
rightKerningGroup = F;
unicode = 0046;
},
{
glyphname = G;
lastChange = "2016-07-31 02:36:39 +0000";
layers = (
{
layerId = "AE6579ED-DC47-4075-A6A3-4B1A21099458";
paths = (
{
closed = 1;
nodes = (
"497 84.69 OFFCURVE",
"490.717 78 OFFCURVE",
"458 78 CURVE SMOOTH",
"306 78 LINE SMOOTH",
"173.151 78 OFFCURVE",
"149 94.629 OFFCURVE",
"149 184 CURVE SMOOTH",
"149 452 LINE SMOOTH",
"149 541.688 OFFCURVE",
"175.283 558 OFFCURVE",
"324 558 CURVE SMOOTH",
"458 558 LINE SMOOTH",
"489.99 558 OFFCURVE",
"497 550.065 OFFCURVE",
"497 513 CURVE SMOOTH",
"497 480.672 OFFCURVE",
"511.312 463 OFFCURVE",
"538 463 CURVE",
"542.243 464.757 LINE",
"541.544 464.058 LINE",
"567.518 465.27 OFFCURVE",
"581 485.259 OFFCURVE",
"581 520 CURVE SMOOTH",
"581 603.252 OFFCURVE",
"544.223 642 OFFCURVE",
"465 642 CURVE SMOOTH",
"324 642 LINE SMOOTH",
"130.295 642 OFFCURVE",
"65 596.179 OFFCURVE",
"65 455 CURVE SMOOTH",
"65 181 LINE SMOOTH",
"65 42.883 OFFCURVE",
"128.285 -6 OFFCURVE",
"306 -6 CURVE SMOOTH",
"465 -6 LINE SMOOTH",
"545.435 -6 OFFCURVE",
"581 31.815 OFFCURVE",
"581 115 CURVE SMOOTH",
"581 314 LINE",
"376 314 LINE SMOOTH",
"340.142 314 OFFCURVE",
"320 299.637 OFFCURVE",
"320 272 CURVE SMOOTH",
"320 244.363 OFFCURVE",
"340.142 230 OFFCURVE",
"376 230 CURVE SMOOTH",
"497 230 LINE",
"497 120 LINE SMOOTH"
);
}
);
width = 645;
}
);
leftKerningGroup = C;
note = G;
rightKerningGroup = G;
unicode = 0047;
},
{
glyphname = H;
lastChange = "2016-07-31 02:36:39 +0000";
layers = (
{
background = {
paths = (
{
closed = 1;
nodes = (
"516 307 LINE",
"516 35 LINE SMOOTH",
"516 7 OFFCURVE",
"528 -7 OFFCURVE",
"552 -7 CURVE SMOOTH",
"576 -7 OFFCURVE",
"588 7 OFFCURVE",
"588 35 CURVE SMOOTH",
"588 600 LINE SMOOTH",
"588 629 OFFCURVE",
"576 643 OFFCURVE",
"552 643 CURVE SMOOTH",
"528 643 OFFCURVE",
"516 629 OFFCURVE",
"516 600 CURVE SMOOTH",
"516 379 LINE",
"156 379 LINE",
"156 600 LINE SMOOTH",
"156 629 OFFCURVE",
"143 643 OFFCURVE",
"118 643 CURVE SMOOTH",
"95 643 OFFCURVE",
"84 629 OFFCURVE",
"84 600 CURVE SMOOTH",
"84 35 LINE SMOOTH",
"84 7 OFFCURVE",
"96 -7 OFFCURVE",
"120 -7 CURVE SMOOTH",
"144 -7 OFFCURVE",
"156 7 OFFCURVE",
"156 35 CURVE SMOOTH",
"156 307 LINE"
);
}
);
};
layerId = "AE6579ED-DC47-4075-A6A3-4B1A21099458";
paths = (
{
closed = 1;
nodes = (
"510 301 LINE",
"510 35 LINE SMOOTH",
"510 3.606 OFFCURVE",
"524.406 -13 OFFCURVE",
"552 -13 CURVE SMOOTH",
"579.594 -13 OFFCURVE",
"594 3.606 OFFCURVE",
"594 35 CURVE SMOOTH",
"594 600 LINE SMOOTH",
"594 632.213 OFFCURVE",
"579.753 649 OFFCURVE",
"552 649 CURVE SMOOTH",
"524.247 649 OFFCURVE",
"510 632.213 OFFCURVE",
"510 600 CURVE SMOOTH",
"510 385 LINE",
"162 385 LINE",
"162 600 LINE SMOOTH",
"162 632.049 OFFCURVE",
"146.88 649 OFFCURVE",
"118 649 CURVE SMOOTH",
"91.365 649 OFFCURVE",
"78 632.405 OFFCURVE",
"78 600 CURVE SMOOTH",
"78 35 LINE SMOOTH",
"78 3.606 OFFCURVE",
"92.406 -13 OFFCURVE",
"120 -13 CURVE SMOOTH",
"147.594 -13 OFFCURVE",
"162 3.606 OFFCURVE",
"162 35 CURVE SMOOTH",
"162 301 LINE"
);
}
);
width = 672;
}
);
leftKerningGroup = B;
note = H;
rightKerningGroup = H;
unicode = 0048;
},
{
glyphname = I;
lastChange = "2016-07-31 02:36:39 +0000";
layers = (
{
layerId = "AE6579ED-DC47-4075-A6A3-4B1A21099458";
paths = (
{
closed = 1;
nodes = (
"162 632.576 OFFCURVE",
"147.429 649 OFFCURVE",
"120 649 CURVE SMOOTH",
"92.571 649 OFFCURVE",
"78 632.576 OFFCURVE",
"78 602 CURVE SMOOTH",
"78 33 LINE SMOOTH",
"78 2.752 OFFCURVE",
"92.296 -13 OFFCURVE",
"120 -13 CURVE SMOOTH",
"147.704 -13 OFFCURVE",
"162 2.752 OFFCURVE",
"162 33 CURVE SMOOTH",
"162 602 LINE SMOOTH"
);
}
);
width = 240;
}
);
leftKerningGroup = B;
note = I;
rightKerningGroup = H;
unicode = 0049;
},
{
glyphname = J;
lastChange = "2016-07-31 02:36:39 +0000";
layers = (
{
layerId = "AE6579ED-DC47-4075-A6A3-4B1A21099458";
paths = (
{
closed = 1;
nodes = (
"112 210.165 OFFCURVE",
"95.281 231 OFFCURVE",
"71 231 CURVE SMOOTH",
"42.12 231 OFFCURVE",
"27 214.049 OFFCURVE",
"27 182 CURVE SMOOTH",
"27 100.82 OFFCURVE",
"48.818 47.102 OFFCURVE",
"92.931 20.844 CURVE SMOOTH",
"135.347 -5.184 OFFCURVE",
"181.826 -14 OFFCURVE",
"272 -14 CURVE SMOOTH",
"451.897 -14 OFFCURVE",
"516 34.896 OFFCURVE",
"516 173 CURVE SMOOTH",
"516 602 LINE SMOOTH",
"516 632.576 OFFCURVE",
"501.429 649 OFFCURVE",
"474 649 CURVE SMOOTH",
"448.353 649 OFFCURVE",
"432 630.995 OFFCURVE",
"432 603 CURVE SMOOTH",
"432 176 LINE SMOOTH",
"432 87.616 OFFCURVE",
"405.915 70 OFFCURVE",
"272 70 CURVE SMOOTH",
"136.331 70 OFFCURVE",
"112 86.67 OFFCURVE",
"112 182 CURVE SMOOTH"
);
}
);
width = 591;
}
);
leftKerningGroup = J;
note = J;
rightKerningGroup = J;
unicode = 004A;
},
{
glyphname = K;
lastChange = "2016-07-31 02:36:39 +0000";
layers = (
{
layerId = "AE6579ED-DC47-4075-A6A3-4B1A21099458";
paths = (
{
closed = 1;
nodes = (
"479.271 576.786 LINE",
"488.073 586.675 OFFCURVE",
"493 598.041 OFFCURVE",
"493 610 CURVE SMOOTH",
"493 631.73 OFFCURVE",
"473.665 649 OFFCURVE",
"451 649 CURVE SMOOTH",
"438.441 649 OFFCURVE",
"425.79 641.314 OFFCURVE",
"414.42 627.876 CURVE",
"162 361.073 LINE",
"162 600 LINE SMOOTH",
"162 630.242 OFFCURVE",
"146.064 649 OFFCURVE",
"120 649 CURVE SMOOTH",
"92.571 649 OFFCURVE",
"78 632.576 OFFCURVE",
"78 602 CURVE SMOOTH",
"78 33 LINE SMOOTH",
"78 2.752 OFFCURVE",
"92.296 -13 OFFCURVE",
"120 -13 CURVE SMOOTH",
"147.594 -13 OFFCURVE",
"162 3.606 OFFCURVE",
"162 35 CURVE SMOOTH",
"162 261.841 LINE",
"199.29 306.935 LINE",
"480.63 7.889 LINE",
"492.127 -5.712 OFFCURVE",
"503.743 -13 OFFCURVE",
"516 -13 CURVE SMOOTH",
"538.364 -13 OFFCURVE",
"560 5.979 OFFCURVE",
"560 27 CURVE SMOOTH",
"560 38.052 OFFCURVE",
"554.988 48.427 OFFCURVE",
"545.46 59.014 CURVE",
"259.394 353.964 LINE"
);
}
);
width = 560;
}
);
leftKerningGroup = B;
note = K;
rightKerningGroup = K;
unicode = 004B;
},
{
glyphname = L;
lastChange = "2016-07-31 02:36:39 +0000";
layers = (
{
layerId = "AE6579ED-DC47-4075-A6A3-4B1A21099458";
paths = (
{
closed = 1;
nodes = (
"521.213 -6 OFFCURVE",
"538 8.247 OFFCURVE",
"538 36 CURVE SMOOTH",
"538 63.753 OFFCURVE",
"521.213 78 OFFCURVE",
"489 78 CURVE SMOOTH",
"162 78 LINE",
"162 603 LINE SMOOTH",
"162 630.995 OFFCURVE",
"145.647 649 OFFCURVE",
"120 649 CURVE SMOOTH",
"94.353 649 OFFCURVE",
"78 630.995 OFFCURVE",
"78 603 CURVE SMOOTH",
"78 43 LINE SMOOTH",
"78 10.595 OFFCURVE",
"91.365 -6 OFFCURVE",
"118 -6 CURVE SMOOTH",
"489 -6 LINE SMOOTH"
);
}
);
width = 554;
}
);
leftKerningGroup = B;
note = L;
rightKerningGroup = L;
unicode = 004C;
},
{
glyphname = M;
lastChange = "2016-07-31 02:36:39 +0000";
layers = (
{
layerId = "AE6579ED-DC47-4075-A6A3-4B1A21099458";
paths = (
{
closed = 1;
nodes = (
"531 38 LINE SMOOTH",
"531 4.632 OFFCURVE",
"545.345 -13 OFFCURVE",
"573 -13 CURVE SMOOTH",
"600.594 -13 OFFCURVE",
"615 3.606 OFFCURVE",
"615 35 CURVE SMOOTH",
"615 600 LINE SMOOTH",
"615 631.996 OFFCURVE",
"600.934 649 OFFCURVE",
"574 649 CURVE SMOOTH",
"558.213 649 OFFCURVE",
"544.345 640.162 OFFCURVE",
"532.162 623.548 CURVE SMOOTH",
"346.013 364.305 LINE",
"160.882 623.487 LINE SMOOTH",
"148.533 640.329 OFFCURVE",
"134.598 649 OFFCURVE",
"118 649 CURVE SMOOTH",
"91.365 649 OFFCURVE",
"78 632.405 OFFCURVE",
"78 600 CURVE SMOOTH",
"78 35 LINE SMOOTH",
"78 3.606 OFFCURVE",
"92.406 -13 OFFCURVE",
"120 -13 CURVE SMOOTH",
"147.655 -13 OFFCURVE",
"162 4.632 OFFCURVE",
"162 38 CURVE SMOOTH",
"162 504.023 LINE",
"314.382 287.137 LINE",
"323.422 277.932 OFFCURVE",
"334.121 273 OFFCURVE",
"347 273 CURVE SMOOTH",
"359.05 273 OFFCURVE",
"369.713 278.07 OFFCURVE",
"378.618 287.137 CURVE",
"531 504.023 LINE"
);
}
);
width = 693;
}
);
leftKerningGroup = B;
note = M;
rightKerningGroup = H;
unicode = 004D;
},
{
glyphname = N;
lastChange = "2016-07-31 02:36:39 +0000";
layers = (
{
layerId = "AE6579ED-DC47-4075-A6A3-4B1A21099458";
paths = (
{
closed = 1;
nodes = (
"579.779 -13 OFFCURVE",
"594 3.818 OFFCURVE",
"594 35 CURVE SMOOTH",
"594 600 LINE SMOOTH",
"594 632.213 OFFCURVE",
"579.753 649 OFFCURVE",
"552 649 CURVE SMOOTH",
"524.196 649 OFFCURVE",
"510 631.188 OFFCURVE",
"510 597 CURVE SMOOTH",
"510 136.662 LINE",
"160.876 623.497 LINE SMOOTH",
"148.533 640.329 OFFCURVE",
"134.598 649 OFFCURVE",
"118 649 CURVE SMOOTH",
"91.365 649 OFFCURVE",
"78 632.405 OFFCURVE",
"78 600 CURVE SMOOTH",
"78 35 LINE SMOOTH",
"78 3.606 OFFCURVE",
"92.406 -13 OFFCURVE",
"120 -13 CURVE SMOOTH",
"147.535 -13 OFFCURVE",
"162 2.569 OFFCURVE",
"162 32 CURVE SMOOTH",
"162 498.265 LINE",
"520.116 -3.486 LINE",
"524.083 -10.133 OFFCURVE",
"534.562 -13 OFFCURVE",
"553 -13 CURVE SMOOTH"
);
}
);
width = 672;
}
);
leftKerningGroup = B;
note = N;
rightKerningGroup = H;
unicode = 004E;
},
{
glyphname = O;
lastChange = "2016-07-31 02:36:39 +0000";
layers = (
{
layerId = "AE6579ED-DC47-4075-A6A3-4B1A21099458";
paths = (
{
closed = 1;
nodes = (
"574 555.118 OFFCURVE",
"472.978 651 OFFCURVE",
"316 651 CURVE SMOOTH",
"157.995 651 OFFCURVE",
"58 556.093 OFFCURVE",
"58 406 CURVE SMOOTH",
"58 230 LINE SMOOTH",
"58 79.907 OFFCURVE",
"157.995 -15 OFFCURVE",
"316 -15 CURVE SMOOTH",
"472.978 -15 OFFCURVE",
"574 80.882 OFFCURVE",
"574 230 CURVE SMOOTH",
"574 406 LINE SMOOTH"
);
},
{
closed = 1;
nodes = (
"475.398 496.117 OFFCURVE",
"490 455.849 OFFCURVE",
"490 403 CURVE SMOOTH",
"490 233 LINE SMOOTH",
"490 126.771 OFFCURVE",
"428.767 69 OFFCURVE",
"316 69 CURVE SMOOTH",
"203.233 69 OFFCURVE",
"142 126.771 OFFCURVE",
"142 233 CURVE SMOOTH",
"142 403 LINE SMOOTH",
"142 509.674 OFFCURVE",
"202.761 567 OFFCURVE",
"316 567 CURVE SMOOTH",
"373.394 567 OFFCURVE",
"417.006 552.585 OFFCURVE",
"446.901 524.618 CURVE SMOOTH"
);
}
);
width = 632;
}
);
leftKerningGroup = O;
note = O;
rightKerningGroup = O;
unicode = 004F;
},
{
glyphname = P;
lastChange = "2016-07-31 02:36:39 +0000";
layers = (
{
layerId = "AE6579ED-DC47-4075-A6A3-4B1A21099458";
paths = (
{
closed = 1;
nodes = (
"357 316 LINE SMOOTH",
"483.793 316 OFFCURVE",
"552 376.4 OFFCURVE",
"552 489 CURVE SMOOTH",
"552 600.308 OFFCURVE",
"478.995 647 OFFCURVE",
"309 647 CURVE SMOOTH",
"118 647 LINE SMOOTH",
"91.601 647 OFFCURVE",
"78 629.091 OFFCURVE",
"78 597 CURVE SMOOTH",
"78 33 LINE SMOOTH",
"78 2.752 OFFCURVE",
"92.296 -13 OFFCURVE",
"120 -13 CURVE SMOOTH",
"147.704 -13 OFFCURVE",
"162 2.752 OFFCURVE",
"162 33 CURVE SMOOTH",
"162 316 LINE"
);
},
{
closed = 1;
nodes = (
"162 563 LINE",
"309 563 LINE SMOOTH",
"438.455 563 OFFCURVE",
"468 547.625 OFFCURVE",
"468 482 CURVE SMOOTH",
"468 448.768 OFFCURVE",
"458.297 427.31 OFFCURVE",
"439.216 417.315 CURVE",
"419.568 406.092 OFFCURVE",
"376.102 400 OFFCURVE",
"309 400 CURVE SMOOTH",
"162 400 LINE"
);
}
);
width = 580;
}
);
leftKerningGroup = B;
note = P;
rightKerningGroup = P;
unicode = 0050;
},
{
glyphname = Q;
lastChange = "2016-07-31 02:36:39 +0000";
layers = (
{
layerId = "AE6579ED-DC47-4075-A6A3-4B1A21099458";
paths = (
{
closed = 1;
nodes = (
"475.398 496.117 OFFCURVE",
"490 455.849 OFFCURVE",
"490 403 CURVE SMOOTH",
"490 233 LINE SMOOTH",
"490 197.188 OFFCURVE",
"482.97 165.995 OFFCURVE",
"468.528 139.469 CURVE",
"428.046 176.431 LINE SMOOTH",
"414.875 188.504 OFFCURVE",
"401.529 195 OFFCURVE",
"388 195 CURVE SMOOTH",
"361.754 195 OFFCURVE",
"343 176.685 OFFCURVE",
"343 151 CURVE SMOOTH",
"343 143.136 OFFCURVE",
"345.455 136.182 OFFCURVE",
"350.318 130.135 CURVE",
"404.785 84.561 LINE",
"379.493 74.117 OFFCURVE",
"349.774 69 OFFCURVE",
"316 69 CURVE SMOOTH",
"203.233 69 OFFCURVE",
"142 126.771 OFFCURVE",
"142 233 CURVE SMOOTH",
"142 403 LINE SMOOTH",
"142 509.674 OFFCURVE",
"202.761 567 OFFCURVE",
"316 567 CURVE SMOOTH",
"373.394 567 OFFCURVE",
"417.006 552.585 OFFCURVE",
"446.901 524.618 CURVE SMOOTH"
);
},
{
closed = 1;
nodes = (
"377.412 -15 OFFCURVE",
"428.594 -2.997 OFFCURVE",
"469.056 20.459 CURVE",
"494.757 -5.243 LINE",
"504.076 -13.414 OFFCURVE",
"515.52 -18 OFFCURVE",
"528 -18 CURVE SMOOTH",
"552.737 -18 OFFCURVE",
"571 -0.185 OFFCURVE",
"571 24 CURVE SMOOTH",
"571 34.703 OFFCURVE",
"565.371 46 OFFCURVE",
"555.46 57.014 CURVE",
"555.083 57.397 LINE",
"531.033 79.728 LINE",
"559.718 119.256 OFFCURVE",
"574 169.948 OFFCURVE",
"574 230 CURVE SMOOTH",
"574 406 LINE SMOOTH",
"574 555.592 OFFCURVE",
"473.477 651 OFFCURVE",
"316 651 CURVE SMOOTH",
"157.995 651 OFFCURVE",
"58 556.093 OFFCURVE",
"58 406 CURVE SMOOTH",
"58 230 LINE SMOOTH",
"58 79.907 OFFCURVE",
"157.995 -15 OFFCURVE",
"316 -15 CURVE SMOOTH"
);
}
);
width = 632;
}
);
leftKerningGroup = O;
note = Q;
rightKerningGroup = O;
unicode = 0051;
},
{
glyphname = R;
lastChange = "2016-07-31 02:36:39 +0000";
layers = (
{
layerId = "AE6579ED-DC47-4075-A6A3-4B1A21099458";
paths = (
{
closed = 1;
nodes = (
"517.327 356.01 OFFCURVE",
"552 406.756 OFFCURVE",
"552 485 CURVE SMOOTH",
"552 605.161 OFFCURVE",
"481.873 652 OFFCURVE",
"306 652 CURVE SMOOTH",
"118 652 LINE SMOOTH",
"91.601 652 OFFCURVE",
"78 634.091 OFFCURVE",
"78 602 CURVE SMOOTH",
"78 33 LINE SMOOTH",
"78 2.752 OFFCURVE",
"92.296 -13 OFFCURVE",
"120 -13 CURVE SMOOTH",
"147.704 -13 OFFCURVE",
"162 2.752 OFFCURVE",
"162 33 CURVE SMOOTH",
"162 316 LINE",
"340.077 316 LINE",
"395.104 275.983 OFFCURVE",
"444.49 164.385 OFFCURVE",
"462.205 98.443 CURVE SMOOTH",
"470.955 66.361 OFFCURVE",
"476.055 44.118 OFFCURVE",
"477.025 33.457 CURVE SMOOTH",
"479.724 5.115 OFFCURVE",
"494.758 -13 OFFCURVE",
"516 -13 CURVE",
"539.087 -14.106 OFFCURVE",
"560 6.214 OFFCURVE",
"560 30 CURVE SMOOTH",
"560 40.508 OFFCURVE",
"555.254 65.721 OFFCURVE",
"546.821 99.455 CURVE SMOOTH",
"529.498 167.783 OFFCURVE",
"487.995 278.162 OFFCURVE",
"447.98 332.834 CURVE"
);
},
{
closed = 1;
nodes = (
"436.638 563 OFFCURVE",
"468 546.989 OFFCURVE",
"468 482 CURVE SMOOTH",
"468 416.124 OFFCURVE",
"437.773 400 OFFCURVE",
"306 400 CURVE SMOOTH",
"162 400 LINE",
"162 563 LINE",
"306 563 LINE SMOOTH"
);
}
);
width = 609;
}
);
leftKerningGroup = B;
note = R;
rightKerningGroup = R;
unicode = 0052;
},
{
glyphname = S;
lastChange = "2016-07-31 02:36:39 +0000";
layers = (
{
layerId = "AE6579ED-DC47-4075-A6A3-4B1A21099458";
paths = (
{
closed = 1;
nodes = (
"495.211 566 OFFCURVE",
"518 551.228 OFFCURVE",
"518 456 CURVE SMOOTH",
"518 428.45 OFFCURVE",
"535.234 407 OFFCURVE",
"559 407 CURVE SMOOTH",
"586.262 407 OFFCURVE",
"603 425.753 OFFCURVE",
"603 456 CURVE SMOOTH",
"603 536.037 OFFCURVE",
"580.207 588.942 OFFCURVE",
"533.964 615.217 CURVE SMOOTH",
"485.975 642.785 OFFCURVE",
"433.41 650 OFFCURVE",
"344 650 CURVE SMOOTH",
"268 650 LINE SMOOTH",
"131.143 650 OFFCURVE",
"55 588.899 OFFCURVE",
"55 478 CURVE SMOOTH",
"55 380.387 OFFCURVE",
"97.944 330.292 OFFCURVE",
"198.823 310.117 CURVE SMOOTH",
"471.898 259.102 LINE SMOOTH",
"494.875 254.725 OFFCURVE",
"519 210.342 OFFCURVE",
"519 168 CURVE SMOOTH",
"519 106.41 OFFCURVE",
"486.533 70 OFFCURVE",
"430 70 CURVE SMOOTH",
"312 70 LINE SMOOTH",
"165.02 70 OFFCURVE",
"140 86.639 OFFCURVE",
"140 182 CURVE SMOOTH",
"140 210.165 OFFCURVE",
"123.281 231 OFFCURVE",
"99 231 CURVE SMOOTH",
"70.12 231 OFFCURVE",
"55 214.049 OFFCURVE",
"55 182 CURVE SMOOTH",
"55 35.17 OFFCURVE",
"121.206 -14 OFFCURVE",
"312 -14 CURVE SMOOTH",
"408 -14 LINE SMOOTH",
"530.479 -14 OFFCURVE",
"603 49.811 OFFCURVE",
"603 158 CURVE SMOOTH",
"603 260.023 OFFCURVE",
"552.353 325.739 OFFCURVE",
"461.046 341.908 CURVE SMOOTH",
"186.053 390.907 LINE SMOOTH",
"160.889 395.567 OFFCURVE",
"139 434.73 OFFCURVE",
"139 476 CURVE SMOOTH",
"139 530.959 OFFCURVE",
"176.819 566 OFFCURVE",
"238 566 CURVE SMOOTH",
"344 566 LINE SMOOTH"
);
}
);
width = 658;
}
);
leftKerningGroup = S;
note = S;
rightKerningGroup = S;
unicode = 0053;
},
{
glyphname = T;
lastChange = "2016-07-31 02:36:39 +0000";
layers = (
{
layerId = "AE6579ED-DC47-4075-A6A3-4B1A21099458";
paths = (
{
closed = 1;
nodes = (
"38.758 642 OFFCURVE",
"20 626.064 OFFCURVE",
"20 600 CURVE SMOOTH",
"20 573.936 OFFCURVE",
"38.758 558 OFFCURVE",
"69 558 CURVE SMOOTH",
"213 558 LINE",
"213 33 LINE SMOOTH",
"213 4.471 OFFCURVE",
"230.471 -13 OFFCURVE",
"259 -13 CURVE SMOOTH",
"288.068 -13 OFFCURVE",
"308 5.65 OFFCURVE",
"308 33 CURVE SMOOTH",
"308 558 LINE",
"450 558 LINE SMOOTH",
"482.213 558 OFFCURVE",
"499 572.247 OFFCURVE",
"499 600 CURVE SMOOTH",
"499 627.753 OFFCURVE",
"482.213 642 OFFCURVE",
"450 642 CURVE SMOOTH",
"69 642 LINE SMOOTH"
);
}
);
width = 520;
}
);
leftKerningGroup = T;
note = T;
rightKerningGroup = T;
unicode = 0054;
},
{
glyphname = U;
lastChange = "2016-07-31 02:36:39 +0000";
layers = (
{
layerId = "AE6579ED-DC47-4075-A6A3-4B1A21099458";
paths = (
{
closed = 1;
nodes = (
"503 126.771 OFFCURVE",
"441.767 69 OFFCURVE",
"329 69 CURVE SMOOTH",
"216.233 69 OFFCURVE",
"155 126.771 OFFCURVE",
"155 233 CURVE SMOOTH",
"155 603 LINE SMOOTH",
"155 630.995 OFFCURVE",
"138.647 649 OFFCURVE",
"113 649 CURVE SMOOTH",
"85.571 649 OFFCURVE",
"71 632.576 OFFCURVE",
"71 602 CURVE SMOOTH",
"71 230 LINE SMOOTH",
"71 79.623 OFFCURVE",
"170.306 -15 OFFCURVE",
"328 -15 CURVE SMOOTH",
"485.785 -15 OFFCURVE",
"587 80.69 OFFCURVE",
"587 230 CURVE SMOOTH",
"587 602 LINE SMOOTH",
"587 632.576 OFFCURVE",
"572.429 649 OFFCURVE",
"545 649 CURVE SMOOTH",
"517.296 649 OFFCURVE",
"503 633.248 OFFCURVE",
"503 603 CURVE SMOOTH",
"503 233 LINE SMOOTH"
);
}
);
width = 658;
}
);
leftKerningGroup = U;
note = U;
rightKerningGroup = U;
unicode = 0055;
},
{
glyphname = V;
lastChange = "2016-07-31 02:36:39 +0000";
layers = (
{
layerId = "AE6579ED-DC47-4075-A6A3-4B1A21099458";
paths = (
{
closed = 1;
nodes = (
"102.567 626.238 LINE SMOOTH",
"94.978 646.844 OFFCURVE",
"80.143 658 OFFCURVE",
"60 658 CURVE SMOOTH",
"37.567 658 OFFCURVE",
"18 641.37 OFFCURVE",
"18 622 CURVE SMOOTH",
"18 613.021 OFFCURVE",
"18.97 604.117 OFFCURVE",
"21.308 597.103 CURVE",
"259.921 -6 LINE",
"350.079 -6 LINE",
"588.579 596.793 LINE",
"591.03 604.117 OFFCURVE",
"592 613.021 OFFCURVE",
"592 622 CURVE SMOOTH",
"592 641.37 OFFCURVE",
"572.433 658 OFFCURVE",
"550 658 CURVE SMOOTH",
"530.393 658 OFFCURVE",
"516.381 647.491 OFFCURVE",
"507.47 626.328 CURVE SMOOTH",
"305.973 120.156 LINE"
);
}
);
width = 610;
}
);
leftKerningGroup = V;
note = V;
rightKerningGroup = V;
unicode = 0056;
},
{
glyphname = W;
lastChange = "2016-07-31 02:36:39 +0000";
layers = (
{
layerId = "AE6579ED-DC47-4075-A6A3-4B1A21099458";
paths = (
{
closed = 1;
nodes = (
"516.785 645.4 OFFCURVE",
"500.625 658 OFFCURVE",
"478 658 CURVE SMOOTH",
"455.629 658 OFFCURVE",
"439.367 645.692 OFFCURVE",
"430.393 622.136 CURVE",
"263.18 115.683 LINE",
"104.731 626.777 LINE SMOOTH",
"98.031 647.993 OFFCURVE",
"82.002 659 OFFCURVE",
"58 659 CURVE SMOOTH",
"33.908 659 OFFCURVE",
"21 646.844 OFFCURVE",
"21 624 CURVE SMOOTH",
"21 617.447 OFFCURVE",
"22.395 609.859 OFFCURVE",
"25.382 601.893 CURVE",
"221.632 -6 LINE",
"303.317 -6 LINE",
"477.016 512.17 LINE",
"651.691 -6 LINE",
"734.366 -6 LINE",
"929.709 598.154 LINE",
"932.622 605.904 OFFCURVE",
"934 612.672 OFFCURVE",
"934 618 CURVE SMOOTH",
"934 642.173 OFFCURVE",
"920.8 655 OFFCURVE",
"896 655 CURVE SMOOTH",
"871.764 655 OFFCURVE",
"855.773 643.714 OFFCURVE",
"850.198 622.527 CURVE",
"693.785 115.652 LINE",
"525.693 620.894 LINE SMOOTH"
);
}
);
width = 955;
}
);
leftKerningGroup = W;
note = W;
rightKerningGroup = W;
unicode = 0057;
},
{
glyphname = X;
lastChange = "2016-07-31 02:36:39 +0000";
layers = (
{
layerId = "AE6579ED-DC47-4075-A6A3-4B1A21099458";
paths = (
{
closed = 1;
nodes = (
"112.782 624.624 LINE",
"113.145 624.087 LINE",
"102.97 641.046 OFFCURVE",
"90.323 650 OFFCURVE",
"76 650 CURVE SMOOTH",
"74.34 650 OFFCURVE",
"73.347 650 OFFCURVE",
"74 650 CURVE",
"51.549 650 OFFCURVE",
"33 632.404 OFFCURVE",
"33 611 CURVE SMOOTH",
"33 598.278 OFFCURVE",
"36.68 586.968 OFFCURVE",
"44.485 578.049 CURVE",
"246.409 317.007 LINE",
"44.261 56.68 LINE SMOOTH",
"36.981 47.32 OFFCURVE",
"33 37.135 OFFCURVE",
"33 26 CURVE SMOOTH",
"33 3.317 OFFCURVE",
"52.196 -13 OFFCURVE",
"77 -13 CURVE SMOOTH",
"89.811 -13 OFFCURVE",
"101.51 -5.278 OFFCURVE",
"112.756 9.342 CURVE SMOOTH",
"302.012 260.057 LINE",
"492.22 9.373 LINE",
"504.773 -5.475 OFFCURVE",
"516.215 -13 OFFCURVE",
"528 -13 CURVE SMOOTH",
"553.559 -13 OFFCURVE",
"572 3.232 OFFCURVE",
"572 26 CURVE SMOOTH",
"572 37.536 OFFCURVE",
"568.382 47.96 OFFCURVE",
"560.515 56.951 CURVE",
"358.591 317.007 LINE",
"560.746 578.329 LINE SMOOTH",
"568.662 588.506 OFFCURVE",
"572 598.848 OFFCURVE",
"572 611 CURVE SMOOTH",
"572 632.601 OFFCURVE",
"552.855 649 OFFCURVE",
"528 649 CURVE SMOOTH",
"515.609 649 OFFCURVE",
"503.908 640.566 OFFCURVE",
"492.162 624.548 CURVE SMOOTH",
"302.012 374.918 LINE"
);
}
);
width = 605;
}
);
leftKerningGroup = X;
note = X;
rightKerningGroup = X;
unicode = 0058;
},
{
glyphname = Y;
lastChange = "2016-07-31 02:36:39 +0000";
layers = (
{
layerId = "AE6579ED-DC47-4075-A6A3-4B1A21099458";
paths = (
{
closed = 1;
nodes = (
"238.122 2.717 OFFCURVE",
"253.896 -13 OFFCURVE",
"282 -13 CURVE SMOOTH",
"310.662 -13 OFFCURVE",
"326 2.709 OFFCURVE",
"326 32 CURVE SMOOTH",
"326 303.952 LINE",
"538.748 579.332 LINE",
"539.062 579.779 LINE",
"546.37 591.263 OFFCURVE",
"550 602.443 OFFCURVE",
"550 612 CURVE SMOOTH",
"550 631.507 OFFCURVE",
"528.85 649 OFFCURVE",
"507 649 CURVE SMOOTH",
"495.344 649 OFFCURVE",
"482.658 640.177 OFFCURVE",
"470.315 624.748 CURVE SMOOTH",
"280.988 374.918 LINE",
"90.773 624.636 LINE SMOOTH",
"79.092 640.566 OFFCURVE",
"67.391 649 OFFCURVE",
"55 649 CURVE SMOOTH",
"32.002 649 OFFCURVE",
"12 631.928 OFFCURVE",
"12 612 CURVE SMOOTH",
"12 602.443 OFFCURVE",
"15.63 591.263 OFFCURVE",
"22.938 579.779 CURVE",
"23.26 579.321 LINE",
"237 303.945 LINE",
"237 32 LINE"
);
}
);
width = 563;
}
);
leftKerningGroup = Y;
note = Y;
rightKerningGroup = Y;
unicode = 0059;
},
{
glyphname = Z;
lastChange = "2016-07-31 02:36:39 +0000";
layers = (
{
layerId = "AE6579ED-DC47-4075-A6A3-4B1A21099458";
paths = (
{
closed = 1;
nodes = (
"541.368 -6 OFFCURVE",
"559 8.345 OFFCURVE",
"559 36 CURVE SMOOTH",
"559 63.655 OFFCURVE",
"541.368 78 OFFCURVE",
"508 78 CURVE SMOOTH",
"156.708 78 LINE",
"559 566.849 LINE",
"559 642 LINE",
"95 642 LINE SMOOTH",
"60.812 642 OFFCURVE",
"43 627.804 OFFCURVE",
"43 600 CURVE SMOOTH",
"43 572.196 OFFCURVE",
"60.812 558 OFFCURVE",
"95 558 CURVE SMOOTH",
"448.301 558 LINE",
"44 66.15 LINE",
"44 -6 LINE",
"508 -6 LINE SMOOTH"
);
}
);
width = 602;
}
);
leftKerningGroup = Z;
note = Z;
rightKerningGroup = Z;
unicode = 005A;
},
{
glyphname = bracketleft;
lastChange = "2016-07-31 02:36:39 +0000";
layers = (
{
layerId = "AE6579ED-DC47-4075-A6A3-4B1A21099458";
paths = (
{
closed = 1;
nodes = (
"237 615 LINE",
"237 699 LINE",
"75 699 LINE",
"75 -63 LINE",
"237 -63 LINE",
"237 21 LINE",
"159 21 LINE",
"159 615 LINE"
);
}
);
width = 279;
}
);
note = bracketleft;
rightKerningGroup = bracketleft;
unicode = 005B;
},
{
glyphname = backslash;
lastChange = "2016-07-31 02:36:39 +0000";
layers = (
{
layerId = "AE6579ED-DC47-4075-A6A3-4B1A21099458";
paths = (
{
closed = 1;
nodes = (
"265.51 -17.798 OFFCURVE",
"279.606 -29 OFFCURVE",
"298 -29 CURVE SMOOTH",
"321.24 -29 OFFCURVE",
"340 -12.592 OFFCURVE",
"340 8 CURVE SMOOTH",
"340 18.952 OFFCURVE",
"336.539 33.607 OFFCURVE",
"328.63 55.074 CURVE SMOOTH",
"118.639 633.049 LINE",
"118.422 633.569 LINE",
"108.077 655.408 OFFCURVE",
"95.075 666 OFFCURVE",
"78 666 CURVE SMOOTH",
"54.333 666 OFFCURVE",
"35 649.031 OFFCURVE",
"35 628 CURVE SMOOTH",
"35 616.038 OFFCURVE",
"38.276 603.155 OFFCURVE",
"44.429 587.772 CURVE SMOOTH",
"256.36 3.953 LINE"
);
}
);
width = 375;
}
);
leftKerningGroup = backslash;
note = backslash;
rightKerningGroup = backslash;
unicode = 005C;
},
{
glyphname = bracketright;
lastChange = "2016-07-31 02:36:39 +0000";
layers = (
{
layerId = "AE6579ED-DC47-4075-A6A3-4B1A21099458";
paths = (
{
closed = 1;
nodes = (
"42 -63 LINE",
"204 -63 LINE",
"204 699 LINE",
"42 699 LINE",
"42 615 LINE",
"120 615 LINE",
"120 21 LINE",
"42 21 LINE"
);
}
);
width = 279;
}
);
leftKerningGroup = bracketright;
note = bracketright;
rightKerningGroup = numbersign;
unicode = 005D;
},
{
glyphname = asciicircum;
lastChange = "2016-07-31 02:36:39 +0000";
layers = (
{
layerId = "AE6579ED-DC47-4075-A6A3-4B1A21099458";
paths = (
{
closed = 1;
nodes = (
"122.654 344 OFFCURVE",
"137.586 354.544 OFFCURVE",
"146.483 374.563 CURVE SMOOTH",
"221.931 542.227 LINE",
"295.506 374.589 LINE",
"295.755 374.086 LINE",
"306.714 354.36 OFFCURVE",
"320.364 344 OFFCURVE",
"336 344 CURVE SMOOTH",
"362.741 344 OFFCURVE",
"379 357.45 OFFCURVE",
"379 380 CURVE SMOOTH",
"379 388.872 OFFCURVE",
"377.803 395.66 OFFCURVE",
"376.749 400.844 CURVE",
"261.885 657 LINE",
"182.129 657 LINE",
"66.316 400.993 LINE",
"64.84 395.302 OFFCURVE",
"64 388.758 OFFCURVE",
"64 381 CURVE SMOOTH",
"64 361.517 OFFCURVE",
"83.178 344 OFFCURVE",
"103 344 CURVE SMOOTH"
);
}
);
width = 443;
}
);
note = asciicircum;
rightKerningGroup = numbersign;
unicode = 005E;
},
{
glyphname = underscore;
lastChange = "2016-07-31 02:36:39 +0000";
layers = (
{
layerId = "AE6579ED-DC47-4075-A6A3-4B1A21099458";
paths = (
{
closed = 1;
nodes = (
"-4.213 21 OFFCURVE",
"-21 6.753 OFFCURVE",
"-21 -21 CURVE SMOOTH",
"-21 -48.753 OFFCURVE",
"-4.213 -63 OFFCURVE",
"28 -63 CURVE SMOOTH",
"447 -63 LINE SMOOTH",
"479.213 -63 OFFCURVE",
"496 -48.753 OFFCURVE",
"496 -21 CURVE SMOOTH",
"496 6.753 OFFCURVE",
"479.213 21 OFFCURVE",
"447 21 CURVE SMOOTH",
"28 21 LINE SMOOTH"
);
}
);
width = 475;
}
);
note = underscore;
rightKerningGroup = numbersign;
unicode = 005F;
},
{
glyphname = grave;
lastChange = "2016-07-31 02:36:39 +0000";
layers = (
{
layerId = "AE6579ED-DC47-4075-A6A3-4B1A21099458";
paths = (
{
closed = 1;
nodes = (
"80.21 691.314 OFFCURVE",
"67.559 699 OFFCURVE",
"55 699 CURVE SMOOTH",
"31.681 699 OFFCURVE",
"13 680.979 OFFCURVE",
"13 657 CURVE SMOOTH",
"13 644.822 OFFCURVE",
"17.353 634.342 OFFCURVE",
"25.485 625.049 CURVE SMOOTH",
"121.394 510.155 LINE",
"133.878 496.619 OFFCURVE",
"146.472 489 OFFCURVE",
"158 489 CURVE SMOOTH",
"180.083 489 OFFCURVE",
"200 507.775 OFFCURVE",
"200 530 CURVE SMOOTH",
"200 539.723 OFFCURVE",
"196.036 550.84 OFFCURVE",
"187.915 562.441 CURVE",
"187.606 562.845 LINE",
"91.606 677.845 LINE SMOOTH"
);
}
);
width = 212;
}
);
note = grave;
rightKerningGroup = numbersign;
unicode = 0060;
},
{
glyphname = a;
lastChange = "2016-07-31 02:36:39 +0000";
layers = (
{
layerId = "AE6579ED-DC47-4075-A6A3-4B1A21099458";
paths = (
{
closed = 1;
nodes = (
"125.572 311 OFFCURVE",
"55 262.168 OFFCURVE",
"55 129 CURVE SMOOTH",
"55 48.581 OFFCURVE",
"104.641 -6 OFFCURVE",
"178 -6 CURVE SMOOTH",
"271 -6 LINE SMOOTH",
"345.315 -6 OFFCURVE",
"403.663 8.496 OFFCURVE",
"445 37.855 CURVE",
"445 38 LINE",
"445 4.632 OFFCURVE",
"459.345 -13 OFFCURVE",
"487 -13 CURVE SMOOTH",
"514.594 -13 OFFCURVE",
"529 3.606 OFFCURVE",
"529 35 CURVE SMOOTH",
"529 331 LINE SMOOTH",
"529 431.108 OFFCURVE",
"498.532 467 OFFCURVE",
"413 467 CURVE SMOOTH",
"258 467 LINE SMOOTH",
"116.676 467 OFFCURVE",
"55 432.254 OFFCURVE",
"55 350 CURVE SMOOTH",
"55 316.632 OFFCURVE",
"69.345 299 OFFCURVE",
"97 299 CURVE SMOOTH",
"124.655 299 OFFCURVE",
"139 316.632 OFFCURVE",
"139 350 CURVE SMOOTH",
"139 362.056 OFFCURVE",
"146.05 370.026 OFFCURVE",
"161.897 375.308 CURVE",
"179.951 380.315 OFFCURVE",
"216.292 383 OFFCURVE",
"265 383 CURVE SMOOTH",
"406 383 LINE SMOOTH",
"438.293 383 OFFCURVE",
"445 376.732 OFFCURVE",
"445 347 CURVE SMOOTH",
"445 311 LINE",
"314 311 LINE SMOOTH"
);
},
{
closed = 1;
nodes = (
"445 233 LINE",
"445 231.34 OFFCURVE",
"445 229.34 OFFCURVE",
"445 229 CURVE SMOOTH",
"445 153.765 OFFCURVE",
"425.357 78 OFFCURVE",
"271 78 CURVE SMOOTH",
"178 78 LINE SMOOTH",
"159.415 78 OFFCURVE",
"139 101.241 OFFCURVE",
"139 124 CURVE SMOOTH",
"139 212.491 OFFCURVE",
"162.957 227 OFFCURVE",
"314 227 CURVE SMOOTH",
"451 227 LINE"
);
}
);
width = 594;
}
);
leftKerningGroup = a;
note = a;
rightKerningGroup = a;
unicode = 0061;
},
{
glyphname = b;
lastChange = "2016-07-31 02:36:39 +0000";
layers = (
{
layerId = "AE6579ED-DC47-4075-A6A3-4B1A21099458";
paths = (
{
closed = 1;
nodes = (
"153 631.004 OFFCURVE",
"137.926 649 OFFCURVE",
"109 649 CURVE SMOOTH",
"82.308 649 OFFCURVE",
"69 631.402 OFFCURVE",
"69 597 CURVE SMOOTH",
"69 35 LINE SMOOTH",
"69 3.606 OFFCURVE",
"83.406 -13 OFFCURVE",
"111 -13 CURVE SMOOTH",
"138.655 -13 OFFCURVE",
"153 4.632 OFFCURVE",
"153 38 CURVE",
"195.107 8.66 OFFCURVE",
"254.176 -6 OFFCURVE",
"328 -6 CURVE SMOOTH",
"357 -6 LINE SMOOTH",
"548.272 -6 OFFCURVE",
"615 40.833 OFFCURVE",
"615 178 CURVE SMOOTH",
"615 283 LINE SMOOTH",
"615 420.167 OFFCURVE",
"548.272 467 OFFCURVE",
"357 467 CURVE SMOOTH",
"328 467 LINE SMOOTH",
"254.176 467 OFFCURVE",
"195.107 452.34 OFFCURVE",
"153 422.987 CURVE",
"153 597 LINE SMOOTH"
);
},
{
closed = 1;
nodes = (
"507.097 383 OFFCURVE",
"531 368.445 OFFCURVE",
"531 280 CURVE SMOOTH",
"531 181 LINE SMOOTH",
"531 92.555 OFFCURVE",
"507.097 78 OFFCURVE",
"357 78 CURVE SMOOTH",
"328 78 LINE SMOOTH",
"208.41 78 OFFCURVE",
"153 125.589 OFFCURVE",
"153 228 CURVE SMOOTH",
"153 232 LINE SMOOTH",
"153 335.72 OFFCURVE",
"207.689 383 OFFCURVE",
"328 383 CURVE SMOOTH",
"357 383 LINE SMOOTH"
);
}
);
width = 670;
}
);
leftKerningGroup = b;
note = b;
rightKerningGroup = b;
unicode = 0062;
},
{
glyphname = c;
lastChange = "2016-07-31 02:36:39 +0000";
layers = (
{
layerId = "AE6579ED-DC47-4075-A6A3-4B1A21099458";
paths = (
{
closed = 1;
nodes = (
"534.223 -6 OFFCURVE",
"571 32.748 OFFCURVE",
"571 116 CURVE SMOOTH",
"571 151.946 OFFCURVE",
"556.571 171.856 OFFCURVE",
"529.25 172.995 CURVE",
"502.455 173 OFFCURVE",
"487 153.237 OFFCURVE",
"487 120 CURVE SMOOTH",
"487 86.739 OFFCURVE",
"478.815 78 OFFCURVE",
"448 78 CURVE SMOOTH",
"314 78 LINE SMOOTH",
"162.957 78 OFFCURVE",
"139 92.509 OFFCURVE",
"139 181 CURVE SMOOTH",
"139 280 LINE SMOOTH",
"139 368.491 OFFCURVE",
"162.957 383 OFFCURVE",
"314 383 CURVE SMOOTH",
"448 383 LINE SMOOTH",
"478.442 383 OFFCURVE",
"487 373.666 OFFCURVE",
"487 340 CURVE SMOOTH",
"487 307.016 OFFCURVE",
"502.168 288 OFFCURVE",
"529 288 CURVE SMOOTH",
"556.637 288 OFFCURVE",
"571 308.142 OFFCURVE",
"571 344 CURVE SMOOTH",
"571 427.648 OFFCURVE",
"533.963 467 OFFCURVE",
"455 467 CURVE SMOOTH",
"314 467 LINE SMOOTH",
"121.837 467 OFFCURVE",
"55 420.274 OFFCURVE",
"55 283 CURVE SMOOTH",
"55 178 LINE SMOOTH",
"55 40.726 OFFCURVE",
"121.837 -6 OFFCURVE",
"314 -6 CURVE SMOOTH",
"455 -6 LINE SMOOTH"
);
}
);
width = 624;
}
);
leftKerningGroup = c;
note = c;
rightKerningGroup = c;
unicode = 0063;
},
{
glyphname = d;
lastChange = "2016-07-31 02:36:39 +0000";
layers = (
{
layerId = "AE6579ED-DC47-4075-A6A3-4B1A21099458";
paths = (
{
closed = 1;
nodes = (
"139 368.717 OFFCURVE",
"162.475 383 OFFCURVE",
"305 383 CURVE SMOOTH",
"517 383 LINE",
"517 229 LINE SMOOTH",
"517 125.28 OFFCURVE",
"462.311 78 OFFCURVE",
"342 78 CURVE SMOOTH",
"313 78 LINE SMOOTH",
"162.903 78 OFFCURVE",
"139 92.555 OFFCURVE",
"139 181 CURVE SMOOTH",
"139 280 LINE SMOOTH"
);
},
{
closed = 1;
nodes = (
"55 40.833 OFFCURVE",
"121.728 -6 OFFCURVE",
"313 -6 CURVE SMOOTH",
"342 -6 LINE SMOOTH",
"415.824 -6 OFFCURVE",
"474.893 8.66 OFFCURVE",
"517 38.013 CURVE",
"517 4.632 OFFCURVE",
"531.345 -13 OFFCURVE",
"559 -13 CURVE SMOOTH",
"586.594 -13 OFFCURVE",
"601 3.606 OFFCURVE",
"601 35 CURVE SMOOTH",
"601 598 LINE SMOOTH",
"601 630.916 OFFCURVE",
"587.549 649 OFFCURVE",
"561 649 CURVE SMOOTH",
"532.23 649 OFFCURVE",
"517 631.189 OFFCURVE",
"517 598 CURVE SMOOTH",
"517 467 LINE",
"305 467 LINE SMOOTH",
"120.85 467 OFFCURVE",
"55 419.282 OFFCURVE",
"55 283 CURVE SMOOTH",
"55 178 LINE SMOOTH"
);
}
);
width = 670;
}
);
leftKerningGroup = c;
note = d;
rightKerningGroup = d;
unicode = 0064;
},
{
glyphname = e;
lastChange = "2016-07-31 02:36:39 +0000";
layers = (
{
layerId = "AE6579ED-DC47-4075-A6A3-4B1A21099458";
paths = (
{
closed = 1;
nodes = (
"601 420.167 OFFCURVE",
"534.272 467 OFFCURVE",
"343 467 CURVE SMOOTH",
"314 467 LINE SMOOTH",
"121.837 467 OFFCURVE",
"55 420.274 OFFCURVE",
"55 283 CURVE SMOOTH",
"55 178 LINE SMOOTH",
"55 40.726 OFFCURVE",
"121.837 -6 OFFCURVE",
"314 -6 CURVE SMOOTH",
"475 -6 LINE SMOOTH",
"554.223 -6 OFFCURVE",
"591 32.748 OFFCURVE",
"591 116 CURVE SMOOTH",
"591 151.946 OFFCURVE",
"576.571 171.856 OFFCURVE",
"549.25 172.995 CURVE",
"522.455 173 OFFCURVE",
"507 153.237 OFFCURVE",
"507 120 CURVE SMOOTH",
"507 86.739 OFFCURVE",
"498.815 78 OFFCURVE",
"468 78 CURVE SMOOTH",
"314 78 LINE SMOOTH",
"162.957 78 OFFCURVE",
"139 92.509 OFFCURVE",
"139 181 CURVE SMOOTH",
"139 229 LINE",
"601 229 LINE",
"601 283 LINE SMOOTH"
);
},
{
closed = 1;
nodes = (
"409.249 383 OFFCURVE",
"456.973 378.352 OFFCURVE",
"480.893 369.382 CURVE",
"500.599 361.167 OFFCURVE",
"512.503 342.497 OFFCURVE",
"516.325 313 CURVE",
"139.493 313 LINE",
"142.424 341.584 OFFCURVE",
"153.762 359.962 OFFCURVE",
"173.392 368.498 CURVE SMOOTH",
"195.01 377.897 OFFCURVE",
"241.884 383 OFFCURVE",
"314 383 CURVE SMOOTH",
"343 383 LINE SMOOTH"
);
}
);
width = 651;
}
);
leftKerningGroup = c;
note = e;
rightKerningGroup = e;
unicode = 0065;
},
{
glyphname = f;
lastChange = "2016-07-31 02:36:39 +0000";
layers = (
{
layerId = "AE6579ED-DC47-4075-A6A3-4B1A21099458";
paths = (
{
closed = 1;
nodes = (
"337.402 558 OFFCURVE",
"355 571.308 OFFCURVE",
"355 598 CURVE SMOOTH",
"355 626.926 OFFCURVE",
"337.004 642 OFFCURVE",
"303 642 CURVE SMOOTH",
"143.884 642 OFFCURVE",
"80.336 593.848 OFFCURVE",
"74.206 465.067 CURVE",
"53.489 460.658 OFFCURVE",
"43 448.266 OFFCURVE",
"43 428 CURVE SMOOTH",
"43 407.654 OFFCURVE",
"53.508 394.578 OFFCURVE",
"74 389.204 CURVE",
"74 36 LINE SMOOTH",
"74 3.595 OFFCURVE",
"87.365 -13 OFFCURVE",
"114 -13 CURVE SMOOTH",
"142.88 -13 OFFCURVE",
"158 3.951 OFFCURVE",
"158 36 CURVE SMOOTH",
"158 383 LINE",
"280 383 LINE SMOOTH",
"314.402 383 OFFCURVE",
"332 396.308 OFFCURVE",
"332 423 CURVE SMOOTH",
"332 451.926 OFFCURVE",
"314.004 467 OFFCURVE",
"280 467 CURVE SMOOTH",
"158.258 467 LINE",
"162.081 541.916 OFFCURVE",
"188.793 558 OFFCURVE",
"303 558 CURVE SMOOTH"
);
}
);
width = 345;
}
);
leftKerningGroup = f;
note = f;
rightKerningGroup = f;
unicode = 0066;
},
{
glyphname = g;
lastChange = "2016-07-31 02:36:39 +0000";
layers = (
{
layerId = "AE6579ED-DC47-4075-A6A3-4B1A21099458";
paths = (
{
closed = 1;
nodes = (
"601 457.394 OFFCURVE",
"586.594 474 OFFCURVE",
"559 474 CURVE SMOOTH",
"531.345 474 OFFCURVE",
"517 456.368 OFFCURVE",
"517 423 CURVE",
"474.893 452.34 OFFCURVE",
"415.824 467 OFFCURVE",
"342 467 CURVE SMOOTH",
"313 467 LINE SMOOTH",
"121.728 467 OFFCURVE",
"55 420.167 OFFCURVE",
"55 283 CURVE SMOOTH",
"55 178 LINE SMOOTH",
"55 41.404 OFFCURVE",
"122.001 -6 OFFCURVE",
"311 -6 CURVE SMOOTH",
"517 -6 LINE",
"517 -93 LINE SMOOTH",
"517 -123.362 OFFCURVE",
"513.673 -127 OFFCURVE",
"487 -127 CURVE SMOOTH",
"178 -127 LINE SMOOTH",
"146.385 -127 OFFCURVE",
"139 -118.468 OFFCURVE",
"139 -81 CURVE SMOOTH",
"139 -48.787 OFFCURVE",
"124.753 -32 OFFCURVE",
"97 -32 CURVE SMOOTH",
"69.363 -32 OFFCURVE",
"55 -52.142 OFFCURVE",
"55 -88 CURVE SMOOTH",
"55 -171.648 OFFCURVE",
"92.037 -211 OFFCURVE",
"171 -211 CURVE SMOOTH",
"494 -211 LINE SMOOTH",
"572.556 -211 OFFCURVE",
"601 -174.467 OFFCURVE",
"601 -77 CURVE SMOOTH",
"601 426 LINE SMOOTH"
);
},
{
closed = 1;
nodes = (
"163.319 78 OFFCURVE",
"139 92.301 OFFCURVE",
"139 181 CURVE SMOOTH",
"139 280 LINE SMOOTH",
"139 368.445 OFFCURVE",
"162.903 383 OFFCURVE",
"313 383 CURVE SMOOTH",
"342 383 LINE SMOOTH",
"461.59 383 OFFCURVE",
"517 335.411 OFFCURVE",
"517 233 CURVE SMOOTH",
"517 78 LINE",
"311 78 LINE SMOOTH"
);
}
);
width = 670;
}
);
leftKerningGroup = c;
note = g;
rightKerningGroup = g;
unicode = 0067;
},
{
glyphname = h;
lastChange = "2016-07-31 02:36:39 +0000";
layers = (
{
layerId = "AE6579ED-DC47-4075-A6A3-4B1A21099458";
paths = (
{
closed = 1;
nodes = (
"507.097 383 OFFCURVE",
"531 368.445 OFFCURVE",
"531 280 CURVE SMOOTH",
"531 35 LINE SMOOTH",
"531 3.606 OFFCURVE",
"545.406 -13 OFFCURVE",
"573 -13 CURVE SMOOTH",
"600.594 -13 OFFCURVE",
"615 3.606 OFFCURVE",
"615 35 CURVE SMOOTH",
"615 283 LINE SMOOTH",
"615 420.167 OFFCURVE",
"548.272 467 OFFCURVE",
"357 467 CURVE SMOOTH",
"328 467 LINE SMOOTH",
"254.176 467 OFFCURVE",
"195.107 452.34 OFFCURVE",
"153 422.987 CURVE",
"153 597 LINE SMOOTH",
"153 631.004 OFFCURVE",
"137.926 649 OFFCURVE",
"109 649 CURVE SMOOTH",
"82.308 649 OFFCURVE",
"69 631.402 OFFCURVE",
"69 597 CURVE SMOOTH",
"69 35 LINE SMOOTH",
"69 3.606 OFFCURVE",
"83.406 -13 OFFCURVE",
"111 -13 CURVE SMOOTH",
"138.594 -13 OFFCURVE",
"153 3.606 OFFCURVE",
"153 35 CURVE SMOOTH",
"153 229 LINE SMOOTH",
"153 333.92 OFFCURVE",
"208.683 383 OFFCURVE",
"328 383 CURVE SMOOTH",
"357 383 LINE SMOOTH"
);
}
);
width = 679;
}
);
leftKerningGroup = h;
note = h;
rightKerningGroup = h;
unicode = 0068;
},
{
glyphname = i;
lastChange = "2016-07-31 02:36:39 +0000";
layers = (
{
layerId = "AE6579ED-DC47-4075-A6A3-4B1A21099458";
paths = (
{
closed = 1;
nodes = (
"67 -10.284 OFFCURVE",
"81.987 -28 OFFCURVE",
"108 -28 CURVE SMOOTH",
"136.409 -28 OFFCURVE",
"151 -11.597 OFFCURVE",
"151 20 CURVE SMOOTH",
"151 440 LINE SMOOTH",
"151 470.242 OFFCURVE",
"135.064 489 OFFCURVE",
"109 489 CURVE SMOOTH",
"82.936 489 OFFCURVE",
"67 470.242 OFFCURVE",
"67 440 CURVE SMOOTH",
"67 20 LINE SMOOTH"
);
},
{
closed = 1;
nodes = (
"167.883 570.083 OFFCURVE",
"176 584.134 OFFCURVE",
"176 601 CURVE SMOOTH",
"176 630.603 OFFCURVE",
"143.125 658 OFFCURVE",
"108 658 CURVE SMOOTH",
"73.458 658 OFFCURVE",
"42 630.967 OFFCURVE",
"42 601 CURVE SMOOTH",
"42 571.636 OFFCURVE",
"74.658 544 OFFCURVE",
"109 544 CURVE SMOOTH",
"123.151 544 OFFCURVE",
"138.385 549.33 OFFCURVE",
"153.487 560.118 CURVE SMOOTH"
);
}
);
width = 218;
}
);
leftKerningGroup = i;
note = i;
rightKerningGroup = numbersign;
unicode = 0069;
},
{
glyphname = j;
lastChange = "2016-07-31 02:36:39 +0000";
layers = (
{
layerId = "AE6579ED-DC47-4075-A6A3-4B1A21099458";
paths = (
{
closed = 1;
nodes = (
"169.883 570.083 OFFCURVE",
"178 584.134 OFFCURVE",
"178 601 CURVE SMOOTH",
"178 630.603 OFFCURVE",
"145.125 658 OFFCURVE",
"110 658 CURVE SMOOTH",
"75.458 658 OFFCURVE",
"44 630.967 OFFCURVE",
"44 601 CURVE SMOOTH",
"44 571.636 OFFCURVE",
"76.658 544 OFFCURVE",
"111 544 CURVE SMOOTH",
"125.151 544 OFFCURVE",
"140.385 549.33 OFFCURVE",
"155.487 560.118 CURVE SMOOTH"
);
},
{
closed = 1;
nodes = (
"153 456.188 OFFCURVE",
"138.804 474 OFFCURVE",
"111 474 CURVE SMOOTH",
"83.196 474 OFFCURVE",
"69 456.188 OFFCURVE",
"69 422 CURVE SMOOTH",
"69 0 LINE SMOOTH",
"69 -81.936 OFFCURVE",
"45.986 -97 OFFCURVE",
"-76 -97 CURVE SMOOTH",
"-110.188 -97 OFFCURVE",
"-128 -111.196 OFFCURVE",
"-128 -139 CURVE SMOOTH",
"-128 -166.804 OFFCURVE",
"-110.188 -181 OFFCURVE",
"-76 -181 CURVE SMOOTH",
"92.291 -181 OFFCURVE",
"153 -133.816 OFFCURVE",
"153 0 CURVE SMOOTH",
"153 422 LINE SMOOTH"
);
}
);
width = 222;
}
);
leftKerningGroup = i;
note = j;
rightKerningGroup = numbersign;
unicode = 006A;
},
{
glyphname = k;
lastChange = "2016-07-31 02:36:39 +0000";
layers = (
{
layerId = "AE6579ED-DC47-4075-A6A3-4B1A21099458";
paths = (
{
closed = 1;
nodes = (
"397.748 398.315 LINE",
"409.536 406.88 OFFCURVE",
"416 417.717 OFFCURVE",
"416 431 CURVE SMOOTH",
"416 453.728 OFFCURVE",
"396.598 472 OFFCURVE",
"374 472 CURVE SMOOTH",
"362.713 472 OFFCURVE",
"351.643 466.824 OFFCURVE",
"339.201 456.644 CURVE SMOOTH",
"153 295.147 LINE",
"153 600 LINE SMOOTH",
"153 630.242 OFFCURVE",
"137.064 649 OFFCURVE",
"111 649 CURVE SMOOTH",
"84.936 649 OFFCURVE",
"69 630.242 OFFCURVE",
"69 600 CURVE SMOOTH",
"69 32 LINE SMOOTH",
"69 2.569 OFFCURVE",
"83.465 -13 OFFCURVE",
"111 -13 CURVE SMOOTH",
"138.594 -13 OFFCURVE",
"153 3.606 OFFCURVE",
"153 35 CURVE SMOOTH",
"153 209.515 LINE",
"166.243 222.758 LINE",
"413.015 3.515 LINE",
"425.643 -6.824 OFFCURVE",
"436.713 -12 OFFCURVE",
"448 -12 CURVE SMOOTH",
"470.664 -12 OFFCURVE",
"488 7.371 OFFCURVE",
"488 31 CURVE SMOOTH",
"488 43.462 OFFCURVE",
"482.355 53.436 OFFCURVE",
"471.684 61.736 CURVE SMOOTH",
"228.507 262.922 LINE"
);
}
);
width = 496;
}
);
leftKerningGroup = h;
note = k;
rightKerningGroup = k;
unicode = 006B;
},
{
glyphname = l;
lastChange = "2016-07-31 02:36:39 +0000";
layers = (
{
layerId = "AE6579ED-DC47-4075-A6A3-4B1A21099458";
paths = (
{
closed = 1;
nodes = (
"241.368 -6 OFFCURVE",
"259 8.345 OFFCURVE",
"259 36 CURVE SMOOTH",
"259 63.655 OFFCURVE",
"241.368 78 OFFCURVE",
"208 78 CURVE SMOOTH",
"175.902 78 OFFCURVE",
"169 85.053 OFFCURVE",
"169 118 CURVE SMOOTH",
"169 598 LINE SMOOTH",
"169 631.368 OFFCURVE",
"154.655 649 OFFCURVE",
"127 649 CURVE SMOOTH",
"99.345 649 OFFCURVE",
"85 631.368 OFFCURVE",
"85 598 CURVE SMOOTH",
"85 133 LINE SMOOTH",
"85 31.355 OFFCURVE",
"116.009 -6 OFFCURVE",
"201 -6 CURVE SMOOTH",
"208 -6 LINE SMOOTH"
);
}
);
width = 294;
}
);
leftKerningGroup = l;
note = l;
rightKerningGroup = l;
unicode = 006C;
},
{
glyphname = m;
lastChange = "2016-07-31 02:36:39 +0000";
layers = (
{
layerId = "AE6579ED-DC47-4075-A6A3-4B1A21099458";
paths = (
{
closed = 1;
nodes = (
"393 3.403 OFFCURVE",
"407.591 -13 OFFCURVE",
"436 -13 CURVE SMOOTH",
"464.409 -13 OFFCURVE",
"479 3.403 OFFCURVE",
"479 35 CURVE SMOOTH",
"479 229 LINE SMOOTH",
"479.971 332.817 OFFCURVE",
"522.802 383 OFFCURVE",
"610 383 CURVE SMOOTH",
"703.529 383 OFFCURVE",
"721 367.376 OFFCURVE",
"721 280 CURVE SMOOTH",
"721 35 LINE SMOOTH",
"721 3.606 OFFCURVE",
"735.406 -13 OFFCURVE",
"763 -13 CURVE SMOOTH",
"790.594 -13 OFFCURVE",
"805 3.606 OFFCURVE",
"805 35 CURVE SMOOTH",
"805 283 LINE SMOOTH",
"805 415.335 OFFCURVE",
"747.779 467 OFFCURVE",
"604 467 CURVE SMOOTH",
"541.17 467 OFFCURVE",
"489.785 444.893 OFFCURVE",
"450.807 400.284 CURVE",
"419.983 448.164 OFFCURVE",
"366.361 467 OFFCURVE",
"265 467 CURVE SMOOTH",
"221.074 467 OFFCURVE",
"182.864 453.886 OFFCURVE",
"152 427.688 CURVE",
"152 422 LINE",
"152 456.004 OFFCURVE",
"136.926 474 OFFCURVE",
"108 474 CURVE SMOOTH",
"81.365 474 OFFCURVE",
"68 457.405 OFFCURVE",
"68 425 CURVE SMOOTH",
"68 35 LINE SMOOTH",
"68 3.606 OFFCURVE",
"82.406 -13 OFFCURVE",
"110 -13 CURVE SMOOTH",
"137.594 -13 OFFCURVE",
"152 3.606 OFFCURVE",
"152 35 CURVE SMOOTH",
"152 229 LINE SMOOTH",
"152 334.126 OFFCURVE",
"193.024 383 OFFCURVE",
"279 383 CURVE SMOOTH",
"373.819 383 OFFCURVE",
"393 366.234 OFFCURVE",
"393 280 CURVE SMOOTH",
"393 35 LINE SMOOTH"
);
}
);
width = 869;
}
);
leftKerningGroup = m;
note = m;
rightKerningGroup = h;
unicode = 006D;
},
{
glyphname = n;
lastChange = "2016-07-31 02:36:39 +0000";
layers = (
{
layerId = "AE6579ED-DC47-4075-A6A3-4B1A21099458";
paths = (
{
closed = 1;
nodes = (
"506.097 383 OFFCURVE",
"530 368.445 OFFCURVE",
"530 280 CURVE SMOOTH",
"530 35 LINE SMOOTH",
"530 3.606 OFFCURVE",
"544.406 -13 OFFCURVE",
"572 -13 CURVE SMOOTH",
"599.594 -13 OFFCURVE",
"614 3.606 OFFCURVE",
"614 35 CURVE SMOOTH",
"614 283 LINE SMOOTH",
"614 420.167 OFFCURVE",
"547.272 467 OFFCURVE",
"356 467 CURVE SMOOTH",
"327 467 LINE SMOOTH",
"253.176 467 OFFCURVE",
"194.107 452.34 OFFCURVE",
"152 422.987 CURVE",
"152 422 LINE",
"152 456.004 OFFCURVE",
"136.926 474 OFFCURVE",
"108 474 CURVE SMOOTH",
"81.365 474 OFFCURVE",
"68 457.405 OFFCURVE",
"68 425 CURVE SMOOTH",
"68 35 LINE SMOOTH",
"68 3.606 OFFCURVE",
"82.406 -13 OFFCURVE",
"110 -13 CURVE SMOOTH",
"137.594 -13 OFFCURVE",
"152 3.606 OFFCURVE",
"152 35 CURVE SMOOTH",
"152 229 LINE SMOOTH",
"152 333.92 OFFCURVE",
"207.683 383 OFFCURVE",
"327 383 CURVE SMOOTH",
"356 383 LINE SMOOTH"
);
}
);
width = 678;
}
);
leftKerningGroup = m;
note = n;
rightKerningGroup = h;
unicode = 006E;
},
{
glyphname = o;
lastChange = "2016-07-31 02:36:39 +0000";
layers = (
{
layerId = "AE6579ED-DC47-4075-A6A3-4B1A21099458";
paths = (
{
closed = 1;
nodes = (
"534.272 -6 OFFCURVE",
"601 40.833 OFFCURVE",
"601 178 CURVE SMOOTH",
"601 283 LINE SMOOTH",
"601 420.167 OFFCURVE",
"534.272 467 OFFCURVE",
"343 467 CURVE SMOOTH",
"314 467 LINE SMOOTH",
"121.837 467 OFFCURVE",
"55 420.274 OFFCURVE",
"55 283 CURVE SMOOTH",
"55 178 LINE SMOOTH",
"55 40.726 OFFCURVE",
"121.837 -6 OFFCURVE",
"314 -6 CURVE SMOOTH",
"343 -6 LINE SMOOTH"
);
},
{
closed = 1;
nodes = (
"162.957 78 OFFCURVE",
"139 92.509 OFFCURVE",
"139 181 CURVE SMOOTH",
"139 280 LINE SMOOTH",
"139 368.491 OFFCURVE",
"162.957 383 OFFCURVE",
"314 383 CURVE SMOOTH",
"343 383 LINE SMOOTH",
"493.097 383 OFFCURVE",
"517 368.445 OFFCURVE",
"517 280 CURVE SMOOTH",
"517 181 LINE SMOOTH",
"517 92.555 OFFCURVE",
"493.097 78 OFFCURVE",
"343 78 CURVE SMOOTH",
"314 78 LINE SMOOTH"
);
}
);
width = 656;
}
);
leftKerningGroup = c;
note = o;
rightKerningGroup = b;
unicode = 006F;
},
{
glyphname = p;
lastChange = "2016-07-31 02:36:39 +0000";
layers = (
{
layerId = "AE6579ED-DC47-4075-A6A3-4B1A21099458";
paths = (
{
closed = 1;
nodes = (
"531 92.696 OFFCURVE",
"507.257 78 OFFCURVE",
"360 78 CURVE SMOOTH",
"153 78 LINE",
"153 232 LINE SMOOTH",
"153 335.72 OFFCURVE",
"207.689 383 OFFCURVE",
"328 383 CURVE SMOOTH",
"357 383 LINE SMOOTH",
"507.097 383 OFFCURVE",
"531 368.445 OFFCURVE",
"531 280 CURVE SMOOTH",
"531 181 LINE SMOOTH"
);
},
{
closed = 1;
nodes = (
"615 420.167 OFFCURVE",
"548.272 467 OFFCURVE",
"357 467 CURVE SMOOTH",
"328 467 LINE SMOOTH",
"254.176 467 OFFCURVE",
"195.107 452.34 OFFCURVE",
"153 422.987 CURVE",
"153 456.368 OFFCURVE",
"138.655 474 OFFCURVE",
"111 474 CURVE SMOOTH",
"83.406 474 OFFCURVE",
"69 457.394 OFFCURVE",
"69 426 CURVE SMOOTH",
"69 -137 LINE SMOOTH",
"69 -169.916 OFFCURVE",
"82.451 -188 OFFCURVE",
"109 -188 CURVE SMOOTH",
"137.77 -188 OFFCURVE",
"153 -170.189 OFFCURVE",
"153 -137 CURVE SMOOTH",
"153 -6 LINE",
"360 -6 LINE SMOOTH",
"548.601 -6 OFFCURVE",
"615 41.158 OFFCURVE",
"615 178 CURVE SMOOTH",
"615 283 LINE SMOOTH"
);
}
);
width = 670;
}
);
leftKerningGroup = m;
note = p;
rightKerningGroup = b;
unicode = 0070;
},
{
glyphname = q;
lastChange = "2016-07-31 02:36:39 +0000";
layers = (
{
layerId = "AE6579ED-DC47-4075-A6A3-4B1A21099458";
paths = (
{
closed = 1;
nodes = (
"139 368.491 OFFCURVE",
"162.957 383 OFFCURVE",
"314 383 CURVE SMOOTH",
"343 383 LINE SMOOTH",
"459.806 383 OFFCURVE",
"517 333.235 OFFCURVE",
"517 232 CURVE SMOOTH",
"517 78 LINE",
"311 78 LINE SMOOTH",
"163.319 78 OFFCURVE",
"139 92.301 OFFCURVE",
"139 181 CURVE SMOOTH",
"139 280 LINE SMOOTH"
);
},
{
closed = 1;
nodes = (
"55 41.404 OFFCURVE",
"122.001 -6 OFFCURVE",
"311 -6 CURVE SMOOTH",
"517 -6 LINE",
"517 -137 LINE SMOOTH",
"517 -168.164 OFFCURVE",
"533.977 -188 OFFCURVE",
"561 -188 CURVE SMOOTH",
"587.549 -188 OFFCURVE",
"601 -169.916 OFFCURVE",
"601 -137 CURVE SMOOTH",
"601 426 LINE SMOOTH",
"601 457.394 OFFCURVE",
"586.594 474 OFFCURVE",
"559 474 CURVE SMOOTH",
"531.345 474 OFFCURVE",
"517 456.368 OFFCURVE",
"517 423 CURVE",
"517 423.145 LINE",
"475.663 452.504 OFFCURVE",
"417.315 467 OFFCURVE",
"343 467 CURVE SMOOTH",
"314 467 LINE SMOOTH",
"121.837 467 OFFCURVE",
"55 420.274 OFFCURVE",
"55 283 CURVE SMOOTH",
"55 178 LINE SMOOTH"
);
}
);
width = 670;
}
);
leftKerningGroup = c;
note = q;
rightKerningGroup = g;
unicode = 0071;
},
{
glyphname = r;
lastChange = "2016-07-31 02:36:39 +0000";
layers = (
{
layerId = "AE6579ED-DC47-4075-A6A3-4B1A21099458";
paths = (
{
closed = 1;
nodes = (
"376.368 383 OFFCURVE",
"394 397.345 OFFCURVE",
"394 425 CURVE SMOOTH",
"394 452.655 OFFCURVE",
"376.368 467 OFFCURVE",
"343 467 CURVE SMOOTH",
"297 467 LINE SMOOTH",
"240.368 467 OFFCURVE",
"191.977 452.602 OFFCURVE",
"152 423.272 CURVE",
"152 422 LINE",
"152 456.004 OFFCURVE",
"136.926 474 OFFCURVE",
"108 474 CURVE SMOOTH",
"81.365 474 OFFCURVE",
"68 457.405 OFFCURVE",
"68 425 CURVE SMOOTH",
"68 35 LINE SMOOTH",
"68 3.606 OFFCURVE",
"82.406 -13 OFFCURVE",
"110 -13 CURVE SMOOTH",
"137.594 -13 OFFCURVE",
"152 3.606 OFFCURVE",
"152 35 CURVE SMOOTH",
"152 229 LINE SMOOTH",
"152 330.012 OFFCURVE",
"201.95 383 OFFCURVE",
"297 383 CURVE SMOOTH",
"343 383 LINE SMOOTH"
);
}
);
width = 406;
}
);
leftKerningGroup = m;
note = r;
rightKerningGroup = r;
unicode = 0072;
},
{
glyphname = s;
lastChange = "2016-07-31 02:36:39 +0000";
layers = (
{
layerId = "AE6579ED-DC47-4075-A6A3-4B1A21099458";
paths = (
{
closed = 1;
nodes = (
"516.906 -6 OFFCURVE",
"572 36.845 OFFCURVE",
"572 130 CURVE SMOOTH",
"572 225.928 OFFCURVE",
"521.362 278 OFFCURVE",
"428 278 CURVE SMOOTH",
"181 278 LINE SMOOTH",
"154.843 278 OFFCURVE",
"138 298.975 OFFCURVE",
"138 334 CURVE SMOOTH",
"138 367.633 OFFCURVE",
"151.607 383 OFFCURVE",
"181 383 CURVE SMOOTH",
"447 383 LINE SMOOTH",
"477.442 383 OFFCURVE",
"486 373.666 OFFCURVE",
"486 340 CURVE SMOOTH",
"486 307.016 OFFCURVE",
"501.168 288 OFFCURVE",
"528 288 CURVE SMOOTH",
"555.637 288 OFFCURVE",
"570 308.142 OFFCURVE",
"570 344 CURVE SMOOTH",
"570 427.648 OFFCURVE",
"532.963 467 OFFCURVE",
"454 467 CURVE SMOOTH",
"229 467 LINE SMOOTH",
"107.942 467 OFFCURVE",
"54 426.556 OFFCURVE",
"54 335 CURVE SMOOTH",
"54 244.376 OFFCURVE",
"105.833 194 OFFCURVE",
"199 194 CURVE SMOOTH",
"445 194 LINE SMOOTH",
"469.808 194 OFFCURVE",
"488 168.868 OFFCURVE",
"488 132 CURVE SMOOTH",
"488 95.135 OFFCURVE",
"474.153 78 OFFCURVE",
"445 78 CURVE SMOOTH",
"177 78 LINE SMOOTH",
"145.385 78 OFFCURVE",
"138 86.532 OFFCURVE",
"138 124 CURVE SMOOTH",
"138 153.646 OFFCURVE",
"125.925 170.421 OFFCURVE",
"100.735 170.735 CURVE SMOOTH",
"100.735 170.735 OFFCURVE",
"100.735 170.735 OFFCURVE",
"101.354 171.22 CURVE",
"70.435 174.731 OFFCURVE",
"54 154.357 OFFCURVE",
"54 116 CURVE SMOOTH",
"54 32.748 OFFCURVE",
"90.777 -6 OFFCURVE",
"170 -6 CURVE SMOOTH",
"398 -6 LINE SMOOTH"
);
}
);
width = 625;
}
);
leftKerningGroup = s;
note = s;
rightKerningGroup = s;
unicode = 0073;
},
{
glyphname = t;
lastChange = "2016-07-31 02:36:39 +0000";
layers = (
{
layerId = "AE6579ED-DC47-4075-A6A3-4B1A21099458";
paths = (
{
closed = 1;
nodes = (
"280 383 LINE SMOOTH",
"314.402 383 OFFCURVE",
"332 396.308 OFFCURVE",
"332 423 CURVE SMOOTH",
"332 451.926 OFFCURVE",
"314.004 467 OFFCURVE",
"280 467 CURVE SMOOTH",
"158 467 LINE",
"158 555 LINE SMOOTH",
"158 589.004 OFFCURVE",
"142.926 607 OFFCURVE",
"114 607 CURVE SMOOTH",
"87.308 607 OFFCURVE",
"74 589.402 OFFCURVE",
"74 555 CURVE SMOOTH",
"74 465.006 LINE",
"53.704 460.49 OFFCURVE",
"43 447.461 OFFCURVE",
"43 427 CURVE SMOOTH",
"43 406.539 OFFCURVE",
"53.704 393.51 OFFCURVE",
"74 388.994 CURVE",
"74 178 LINE SMOOTH",
"74 45.461 OFFCURVE",
"138.289 -6 OFFCURVE",
"303 -6 CURVE SMOOTH",
"336.189 -6 OFFCURVE",
"354 9.23 OFFCURVE",
"354 38 CURVE SMOOTH",
"354 64.549 OFFCURVE",
"335.916 78 OFFCURVE",
"303 78 CURVE SMOOTH",
"181.014 78 OFFCURVE",
"158 93.976 OFFCURVE",
"158 181 CURVE SMOOTH",
"158 383 LINE"
);
}
);
width = 373;
}
);
leftKerningGroup = t;
note = t;
rightKerningGroup = t;
unicode = 0074;
},
{
glyphname = u;
lastChange = "2016-07-31 02:36:39 +0000";
layers = (
{
layerId = "AE6579ED-DC47-4075-A6A3-4B1A21099458";
paths = (
{
closed = 1;
nodes = (
"171.903 78 OFFCURVE",
"148 92.555 OFFCURVE",
"148 181 CURVE SMOOTH",
"148 426 LINE SMOOTH",
"148 457.394 OFFCURVE",
"133.594 474 OFFCURVE",
"106 474 CURVE SMOOTH",
"78.406 474 OFFCURVE",
"64 457.394 OFFCURVE",
"64 426 CURVE SMOOTH",
"64 178 LINE SMOOTH",
"64 40.833 OFFCURVE",
"130.728 -6 OFFCURVE",
"322 -6 CURVE SMOOTH",
"351 -6 LINE SMOOTH",
"424.824 -6 OFFCURVE",
"483.893 8.66 OFFCURVE",
"526 38.013 CURVE",
"526 39 LINE",
"526 4.996 OFFCURVE",
"541.074 -13 OFFCURVE",
"570 -13 CURVE SMOOTH",
"596.635 -13 OFFCURVE",
"610 3.595 OFFCURVE",
"610 36 CURVE SMOOTH",
"610 426 LINE SMOOTH",
"610 457.394 OFFCURVE",
"595.594 474 OFFCURVE",
"568 474 CURVE SMOOTH",
"540.406 474 OFFCURVE",
"526 457.394 OFFCURVE",
"526 426 CURVE SMOOTH",
"526 232 LINE SMOOTH",
"526 127.201 OFFCURVE",
"470.84 78 OFFCURVE",
"351 78 CURVE SMOOTH",
"322 78 LINE SMOOTH"
);
}
);
width = 678;
}
);
leftKerningGroup = u;
note = u;
rightKerningGroup = g;
unicode = 0075;
},
{
glyphname = v;
lastChange = "2016-07-31 02:36:39 +0000";
layers = (
{
layerId = "AE6579ED-DC47-4075-A6A3-4B1A21099458";
paths = (
{
closed = 1;
nodes = (
"505.488 429.574 LINE",
"508.387 435.357 OFFCURVE",
"510 441.899 OFFCURVE",
"510 450 CURVE SMOOTH",
"510 475.66 OFFCURVE",
"496.293 489 OFFCURVE",
"470 489 CURVE SMOOTH",
"450.346 489 OFFCURVE",
"435.414 478.456 OFFCURVE",
"426.517 458.437 CURVE SMOOTH",
"264.093 91.048 LINE",
"107.517 457.358 LINE",
"97.633 478.235 OFFCURVE",
"82.88 489 OFFCURVE",
"64 489 CURVE SMOOTH",
"43.314 489 OFFCURVE",
"24 472.802 OFFCURVE",
"24 454 CURVE SMOOTH",
"24 443.994 OFFCURVE",
"25.469 436.674 OFFCURVE",
"28.485 429.636 CURVE SMOOTH",
"210 -6 LINE",
"312.907 -6 LINE"
);
}
);
width = 533;
}
);
leftKerningGroup = v;
note = v;
rightKerningGroup = v;
unicode = 0076;
},
{
glyphname = w;
lastChange = "2016-07-31 02:36:39 +0000";
layers = (
{
layerId = "AE6579ED-DC47-4075-A6A3-4B1A21099458";
paths = (
{
closed = 1;
nodes = (
"807.622 429.904 OFFCURVE",
"809 436.672 OFFCURVE",
"809 442 CURVE SMOOTH",
"809 466.531 OFFCURVE",
"795.439 479 OFFCURVE",
"769 479 CURVE SMOOTH",
"748.032 479 OFFCURVE",
"733.094 468.038 OFFCURVE",
"725.37 447.074 CURVE SMOOTH",
"595.9 85.519 LINE",
"463.625 442.087 LINE SMOOTH",
"455.618 462.679 OFFCURVE",
"440.342 473 OFFCURVE",
"418 473 CURVE SMOOTH",
"395.658 473 OFFCURVE",
"380.382 462.679 OFFCURVE",
"372.408 442.175 CURVE SMOOTH",
"234.325 85.462 LINE",
"109.672 446.956 LINE SMOOTH",
"101.906 468.038 OFFCURVE",
"86.968 479 OFFCURVE",
"66 479 CURVE SMOOTH",
"39.561 479 OFFCURVE",
"26 466.531 OFFCURVE",
"26 442 CURVE SMOOTH",
"26 436.672 OFFCURVE",
"27.378 429.904 OFFCURVE",
"30.382 421.893 CURVE SMOOTH",
"179.739 -6 LINE",
"281.069 -6 LINE",
"417.751 337.16 LINE",
"542.8 -6 LINE",
"646.176 -6 LINE",
"804.627 421.917 LINE SMOOTH"
);
}
);
width = 834;
}
);
leftKerningGroup = w;
note = w;
rightKerningGroup = w;
unicode = 0077;
},
{
glyphname = x;
lastChange = "2016-07-31 02:36:39 +0000";
layers = (
{
layerId = "AE6579ED-DC47-4075-A6A3-4B1A21099458";
paths = (
{
closed = 1;
nodes = (
"507.361 406.88 LINE SMOOTH",
"516.334 416.97 OFFCURVE",
"521 427.352 OFFCURVE",
"521 439 CURVE SMOOTH",
"521 462.115 OFFCURVE",
"502.291 478 OFFCURVE",
"477 478 CURVE SMOOTH",
"464.64 478 OFFCURVE",
"452.951 473.436 OFFCURVE",
"443.757 464.243 CURVE",
"279.987 283.91 LINE",
"115.43 464.047 LINE",
"106.049 473.436 OFFCURVE",
"94.36 478 OFFCURVE",
"82 478 CURVE SMOOTH",
"55.915 478 OFFCURVE",
"37 462.311 OFFCURVE",
"37 439 CURVE SMOOTH",
"37 427.352 OFFCURVE",
"41.666 416.97 OFFCURVE",
"50.516 407.014 CURVE SMOOTH",
"217.735 230.011 LINE",
"50.65 54.132 LINE SMOOTH",
"41.929 45.414 OFFCURVE",
"37 34.881 OFFCURVE",
"37 23 CURVE SMOOTH",
"37 -0.436 OFFCURVE",
"56.858 -17 OFFCURVE",
"83 -17 CURVE SMOOTH",
"95.701 -17 OFFCURVE",
"106.282 -12.204 OFFCURVE",
"115.243 -3.243 CURVE",
"279.987 177.09 LINE",
"443.558 -3.034 LINE",
"452.718 -12.204 OFFCURVE",
"463.299 -17 OFFCURVE",
"476 -17 CURVE SMOOTH",
"501.342 -17 OFFCURVE",
"521 -0.223 OFFCURVE",
"521 23 CURVE SMOOTH",
"521 34.881 OFFCURVE",
"516.071 45.414 OFFCURVE",
"507.243 54.243 CURVE SMOOTH",
"340.265 230.011 LINE"
);
}
);
width = 558;
}
);
leftKerningGroup = x;
note = x;
rightKerningGroup = x;
unicode = 0078;
},
{
glyphname = y;
lastChange = "2016-07-31 02:36:39 +0000";
layers = (
{
layerId = "AE6579ED-DC47-4075-A6A3-4B1A21099458";
paths = (
{
closed = 1;
nodes = (
"610 457.394 OFFCURVE",
"595.594 474 OFFCURVE",
"568 474 CURVE SMOOTH",
"540.406 474 OFFCURVE",
"526 457.394 OFFCURVE",
"526 426 CURVE SMOOTH",
"526 232 LINE SMOOTH",
"526 128.605 OFFCURVE",
"468.63 78 OFFCURVE",
"351 78 CURVE SMOOTH",
"322 78 LINE SMOOTH",
"171.903 78 OFFCURVE",
"148 92.555 OFFCURVE",
"148 181 CURVE SMOOTH",
"148 426 LINE SMOOTH",
"148 457.394 OFFCURVE",
"133.594 474 OFFCURVE",
"106 474 CURVE SMOOTH",
"78.406 474 OFFCURVE",
"64 457.394 OFFCURVE",
"64 426 CURVE SMOOTH",
"64 178 LINE SMOOTH",
"64 40.833 OFFCURVE",
"130.728 -6 OFFCURVE",
"322 -6 CURVE SMOOTH",
"351 -6 LINE SMOOTH",
"424.824 -6 OFFCURVE",
"483.893 8.66 OFFCURVE",
"526 38.013 CURVE",
"526 -93 LINE SMOOTH",
"526 -123.362 OFFCURVE",
"522.673 -127 OFFCURVE",
"496 -127 CURVE SMOOTH",
"187 -127 LINE SMOOTH",
"155.385 -127 OFFCURVE",
"148 -118.468 OFFCURVE",
"148 -81 CURVE SMOOTH",
"148 -48.787 OFFCURVE",
"133.753 -32 OFFCURVE",
"106 -32 CURVE SMOOTH",
"78.363 -32 OFFCURVE",
"64 -52.142 OFFCURVE",
"64 -88 CURVE SMOOTH",
"64 -171.648 OFFCURVE",
"101.037 -211 OFFCURVE",
"180 -211 CURVE SMOOTH",
"503 -211 LINE SMOOTH",
"581.556 -211 OFFCURVE",
"610 -174.467 OFFCURVE",
"610 -77 CURVE SMOOTH",
"610 426 LINE SMOOTH"
);
}
);
width = 679;
}
);
leftKerningGroup = u;
note = y;
rightKerningGroup = g;
unicode = 0079;
},
{
glyphname = z;
lastChange = "2016-07-31 02:36:39 +0000";
layers = (
{
layerId = "AE6579ED-DC47-4075-A6A3-4B1A21099458";
paths = (
{
closed = 1;
nodes = (
"527 467 LINE",
"170 467 LINE SMOOTH",
"84.163 467 OFFCURVE",
"54 428.388 OFFCURVE",
"54 322 CURVE SMOOTH",
"54 287.812 OFFCURVE",
"68.196 270 OFFCURVE",
"96 270 CURVE SMOOTH",
"123.753 270 OFFCURVE",
"138 286.787 OFFCURVE",
"138 319 CURVE SMOOTH",
"138 373.266 OFFCURVE",
"144.32 383 OFFCURVE",
"177 383 CURVE SMOOTH",
"405.965 383 LINE",
"54 76.733 LINE",
"54 -6 LINE",
"432 -6 LINE SMOOTH",
"516.933 -6 OFFCURVE",
"548 33.742 OFFCURVE",
"548 139 CURVE SMOOTH",
"548 172.869 OFFCURVE",
"533.569 192 OFFCURVE",
"506 192 CURVE SMOOTH",
"505 192 LINE SMOOTH",
"478.221 192 OFFCURVE",
"464 175.182 OFFCURVE",
"464 144 CURVE SMOOTH",
"464 87.634 OFFCURVE",
"457.901 78 OFFCURVE",
"424 78 CURVE SMOOTH",
"178.051 78 LINE",
"527 381.265 LINE"
);
}
);
width = 594;
}
);
leftKerningGroup = z;
note = z;
rightKerningGroup = z;
unicode = 007A;
},
{
glyphname = braceleft;
lastChange = "2016-07-31 02:36:39 +0000";
layers = (
{
layerId = "AE6579ED-DC47-4075-A6A3-4B1A21099458";
paths = (
{
closed = 1;
nodes = (
"76.499 280.956 OFFCURVE",
"107 252.395 OFFCURVE",
"107 237 CURVE SMOOTH",
"107 227.658 OFFCURVE",
"103.001 210.303 OFFCURVE",
"93.238 176.673 CURVE SMOOTH",
"84.017 144.911 OFFCURVE",
"79 118.573 OFFCURVE",
"79 99 CURVE SMOOTH",
"79 76.61 OFFCURVE",
"81.501 53.899 OFFCURVE",
"86.117 30.823 CURVE",
"97.047 -37.521 OFFCURVE",
"141.305 -63.21 OFFCURVE",
"241 -63.021 CURVE",
"241 21.002 LINE",
"165.37 20.966 OFFCURVE",
"163 20.396 OFFCURVE",
"163 108 CURVE SMOOTH",
"163 112.526 OFFCURVE",
"166.432 125.746 OFFCURVE",
"176.762 161.327 CURVE SMOOTH",
"186.282 194.116 OFFCURVE",
"191 217.872 OFFCURVE",
"191 236 CURVE SMOOTH",
"191 264.46 OFFCURVE",
"171.816 291.369 OFFCURVE",
"133.565 317.253 CURVE",
"171.882 345.792 OFFCURVE",
"191 372.784 OFFCURVE",
"191 400 CURVE SMOOTH",
"191 418.441 OFFCURVE",
"186.084 443.563 OFFCURVE",
"176.762 475.673 CURVE SMOOTH",
"166.239 511.919 OFFCURVE",
"163 524.96 OFFCURVE",
"163 528 CURVE SMOOTH",
"163 615.604 OFFCURVE",
"165.37 615.034 OFFCURVE",
"241 614.998 CURVE",
"241 699 LINE",
"218.245 698.99 OFFCURVE",
"199.835 699.101 OFFCURVE",
"187.457 697.975 CURVE SMOOTH",
"154.845 695.258 OFFCURVE",
"122.481 678.988 OFFCURVE",
"108.974 658.278 CURVE SMOOTH",
"91.577 633.273 OFFCURVE",
"79 585.245 OFFCURVE",
"79 542 CURVE SMOOTH",
"79 519.152 OFFCURVE",
"83.741 493.04 OFFCURVE",
"93.238 460.327 CURVE SMOOTH",
"102.621 428.007 OFFCURVE",
"107 408.68 OFFCURVE",
"107 399 CURVE SMOOTH",
"107 382.947 OFFCURVE",
"71.513 349.081 OFFCURVE",
"34 330.699 CURVE",
"34 303.407 LINE"
);
}
);
width = 287;
}
);
note = braceleft;
rightKerningGroup = braceleft;
unicode = 007B;
},
{
glyphname = bar;
lastChange = "2016-07-31 02:36:39 +0000";
layers = (
{
layerId = "AE6579ED-DC47-4075-A6A3-4B1A21099458";
paths = (
{
closed = 1;
nodes = (
"159 632.576 OFFCURVE",
"144.429 649 OFFCURVE",
"117 649 CURVE SMOOTH",
"89.571 649 OFFCURVE",
"75 632.576 OFFCURVE",
"75 602 CURVE SMOOTH",
"75 33 LINE SMOOTH",
"75 2.752 OFFCURVE",
"89.296 -13 OFFCURVE",
"117 -13 CURVE SMOOTH",
"144.704 -13 OFFCURVE",
"159 2.752 OFFCURVE",
"159 33 CURVE SMOOTH",
"159 602 LINE SMOOTH"
);
}
);
width = 235;
}
);
note = bar;
rightKerningGroup = numbersign;
unicode = 007C;
},
{
glyphname = braceright;
lastChange = "2016-07-31 02:36:39 +0000";
layers = (
{
layerId = "AE6579ED-DC47-4075-A6A3-4B1A21099458";
paths = (
{
closed = 1;
nodes = (
"215.487 349.081 OFFCURVE",
"180 382.947 OFFCURVE",
"180 399 CURVE SMOOTH",
"180 408.68 OFFCURVE",
"184.379 428.007 OFFCURVE",
"193.762 460.327 CURVE SMOOTH",
"203.695 494.542 OFFCURVE",
"208 515.243 OFFCURVE",
"208 528 CURVE SMOOTH",
"208 587.124 OFFCURVE",
"198.347 629.806 OFFCURVE",
"178.965 658.369 CURVE SMOOTH",
"169.867 670.884 OFFCURVE",
"157.814 680.337 OFFCURVE",
"142.228 686.571 CURVE SMOOTH",
"109.641 699.606 OFFCURVE",
"90.161 698.97 OFFCURVE",
"46 699.001 CURVE",
"46 614.998 LINE",
"121.63 615.034 OFFCURVE",
"124 615.604 OFFCURVE",
"124 528 CURVE SMOOTH",
"124 524.96 OFFCURVE",
"120.761 511.919 OFFCURVE",
"110.238 475.673 CURVE SMOOTH",
"100.916 443.563 OFFCURVE",
"96 418.441 OFFCURVE",
"96 400 CURVE SMOOTH",
"96 372.784 OFFCURVE",
"115.118 345.792 OFFCURVE",
"153.435 317.253 CURVE",
"115.184 291.369 OFFCURVE",
"96 264.46 OFFCURVE",
"96 236 CURVE SMOOTH",
"96 217.872 OFFCURVE",
"100.718 194.116 OFFCURVE",
"110.238 161.327 CURVE SMOOTH",
"120.568 125.746 OFFCURVE",
"124 112.526 OFFCURVE",
"124 108 CURVE SMOOTH",
"124 20.396 OFFCURVE",
"121.63 20.966 OFFCURVE",
"46 21.002 CURVE",
"46 -62.976 LINE",
"81.457 -63.253 OFFCURVE",
"108.285 -61.129 OFFCURVE",
"128.527 -55.802 CURVE SMOOTH",
"154.478 -49.074 OFFCURVE",
"168.44 -37.417 OFFCURVE",
"186.088 -9.18 CURVE SMOOTH",
"200.205 12.463 OFFCURVE",
"208 52.099 OFFCURVE",
"208 99 CURVE SMOOTH",
"208 118.573 OFFCURVE",
"202.983 144.911 OFFCURVE",
"193.762 176.673 CURVE SMOOTH",
"183.999 210.303 OFFCURVE",
"180 227.658 OFFCURVE",
"180 237 CURVE SMOOTH",
"180 252.395 OFFCURVE",
"210.501 280.956 OFFCURVE",
"253 303.407 CURVE",
"253 330.699 LINE"
);
}
);
width = 287;
}
);
leftKerningGroup = braceright;
note = braceright;
rightKerningGroup = numbersign;
unicode = 007D;
},
{
glyphname = asciitilde;
lastChange = "2016-07-31 02:36:39 +0000";
layers = (
{
layerId = "AE6579ED-DC47-4075-A6A3-4B1A21099458";
paths = (
{
closed = 1;
nodes = (
"265.263 162.921 OFFCURVE",
"273.584 161 OFFCURVE",
"281 161 CURVE SMOOTH",
"289.491 161 OFFCURVE",
"299.339 165.313 OFFCURVE",
"310.441 173.085 CURVE",
"310.922 173.459 LINE",
"354.922 211.459 LINE",
"367.127 220.595 OFFCURVE",
"374.772 233.011 OFFCURVE",
"375.979 247.502 CURVE",
"376 272.544 OFFCURVE",
"357.665 290 OFFCURVE",
"332 290 CURVE SMOOTH",
"321.172 290 OFFCURVE",
"310.626 285.112 OFFCURVE",
"302.757 277.243 CURVE",
"273.07 251.534 LINE",
"270.584 249.069 OFFCURVE",
"269.97 250 OFFCURVE",
"272 250 CURVE SMOOTH",
"273.354 250 OFFCURVE",
"272.938 249.739 OFFCURVE",
"269.683 251.367 CURVE",
"269.128 251.61 LINE",
"182.128 284.61 LINE SMOOTH",
"171.994 288.41 OFFCURVE",
"163.776 290 OFFCURVE",
"156 290 CURVE SMOOTH",
"146.754 290 OFFCURVE",
"137.799 285.889 OFFCURVE",
"127.316 277.736 CURVE",
"82.129 239.584 LINE SMOOTH",
"69.344 228.931 OFFCURVE",
"62 216.253 OFFCURVE",
"62 203 CURVE SMOOTH",
"62 178.97 OFFCURVE",
"80.873 161 OFFCURVE",
"106 161 CURVE SMOOTH",
"116.828 161 OFFCURVE",
"127.374 165.888 OFFCURVE",
"135.243 173.757 CURVE",
"164.005 199.533 LINE",
"166.416 201.931 OFFCURVE",
"167.03 201 OFFCURVE",
"165 201 CURVE SMOOTH",
"162.931 201 OFFCURVE",
"165.02 200.669 OFFCURVE",
"169.103 199.308 CURVE",
"254.85 166.398 LINE"
);
}
);
width = 438;
}
);
note = asciitilde;
rightKerningGroup = numbersign;
unicode = 007E;
},
{
glyphname = exclamdown;
lastChange = "2016-07-31 02:36:39 +0000";
layers = (
{
layerId = "AE6579ED-DC47-4075-A6A3-4B1A21099458";
paths = (
{
closed = 1;
nodes = (
"82 -168.284 OFFCURVE",
"96.987 -186 OFFCURVE",
"123 -186 CURVE SMOOTH",
"151.409 -186 OFFCURVE",
"166 -169.597 OFFCURVE",
"166 -138 CURVE SMOOTH",
"166 282 LINE SMOOTH",
"166 312.242 OFFCURVE",
"150.064 331 OFFCURVE",
"124 331 CURVE SMOOTH",
"97.936 331 OFFCURVE",
"82 312.242 OFFCURVE",
"82 282 CURVE SMOOTH",
"82 -138 LINE SMOOTH"
);
},
{
closed = 1;
nodes = (
"183.065 419.123 OFFCURVE",
"191 432.776 OFFCURVE",
"191 450 CURVE SMOOTH",
"191 479.782 OFFCURVE",
"158.833 507 OFFCURVE",
"124 507 CURVE SMOOTH",
"88.875 507 OFFCURVE",
"56 479.603 OFFCURVE",
"56 450 CURVE SMOOTH",
"56 420.636 OFFCURVE",
"88.658 393 OFFCURVE",
"123 393 CURVE SMOOTH",
"137.151 393 OFFCURVE",
"152.385 398.33 OFFCURVE",
"167.487 409.118 CURVE"
);
}
);
width = 247;
}
);
note = exclamdown;
rightKerningGroup = exclamdown;
unicode = 00A1;
},
{
glyphname = cent;
lastChange = "2016-07-31 02:36:39 +0000";
layers = (
{
layerId = "AE6579ED-DC47-4075-A6A3-4B1A21099458";
paths = (
{
closed = 1;
nodes = (
"212 -10.284 OFFCURVE",
"226.987 -28 OFFCURVE",
"253 -28 CURVE SMOOTH",
"281.409 -28 OFFCURVE",
"296 -11.597 OFFCURVE",
"296 20 CURVE SMOOTH",
"296 102 LINE",
"330 102 LINE SMOOTH",
"409.231 102 OFFCURVE",
"447 141.774 OFFCURVE",
"447 225 CURVE SMOOTH",
"447 260.858 OFFCURVE",
"432.637 281 OFFCURVE",
"405 281 CURVE SMOOTH",
"377.501 281 OFFCURVE",
"363 263.548 OFFCURVE",
"363 231 CURVE SMOOTH",
"363 193.851 OFFCURVE",
"355.911 186 OFFCURVE",
"323 186 CURVE SMOOTH",
"296 186 LINE",
"296 452 LINE",
"325 452 LINE SMOOTH",
"356.51 452 OFFCURVE",
"363 444.497 OFFCURVE",
"363 407 CURVE SMOOTH",
"363 340.399 OFFCURVE",
"447 338.574 OFFCURVE",
"447 414 CURVE SMOOTH",
"447 497.678 OFFCURVE",
"410.953 536 OFFCURVE",
"332 536 CURVE SMOOTH",
"296 536 LINE",
"296 615 LINE SMOOTH",
"296 647.213 OFFCURVE",
"281.753 664 OFFCURVE",
"254 664 CURVE SMOOTH",
"226.247 664 OFFCURVE",
"212 647.213 OFFCURVE",
"212 615 CURVE SMOOTH",
"212 534.493 LINE",
"95.313 523.335 OFFCURVE",
"43 462.965 OFFCURVE",
"43 340 CURVE SMOOTH",
"43 298 LINE SMOOTH",
"43 173.105 OFFCURVE",
"94.313 113.536 OFFCURVE",
"212 102.498 CURVE",
"212 20 LINE SMOOTH"
);
},
{
closed = 1;
nodes = (
"144.802 195.406 OFFCURVE",
"127 219.349 OFFCURVE",
"127 298 CURVE SMOOTH",
"127 340 LINE SMOOTH",
"127 416.441 OFFCURVE",
"146.469 442.4 OFFCURVE",
"212 450.309 CURVE",
"212 187.664 LINE"
);
}
);
width = 498;
}
);
note = cent;
rightKerningGroup = numbersign;
unicode = 00A2;
},
{
glyphname = sterling;
lastChange = "2016-07-31 02:36:39 +0000";
layers = (
{
layerId = "AE6579ED-DC47-4075-A6A3-4B1A21099458";
paths = (
{
closed = 1;
nodes = (
"59.1 32.811 OFFCURVE",
"59 29.813 OFFCURVE",
"59 25 CURVE SMOOTH",
"59 -4.987 OFFCURVE",
"72.055 -21 OFFCURVE",
"97 -21 CURVE SMOOTH",
"420 -21 LINE SMOOTH",
"452.213 -21 OFFCURVE",
"469 -6.753 OFFCURVE",
"469 21 CURVE SMOOTH",
"469 48.753 OFFCURVE",
"452.213 63 OFFCURVE",
"420 63 CURVE SMOOTH",
"145.604 63 LINE",
"168.452 301 LINE",
"191 301 LINE SMOOTH",
"221.284 301 OFFCURVE",
"239 315.987 OFFCURVE",
"239 342 CURVE SMOOTH",
"239 368.73 OFFCURVE",
"220.723 385 OFFCURVE",
"191 385 CURVE SMOOTH",
"174.564 385 LINE",
"181.976 467.463 LINE SMOOTH",
"190.014 554.091 OFFCURVE",
"215.419 580 OFFCURVE",
"292 580 CURVE SMOOTH",
"366.156 580 OFFCURVE",
"383 565.907 OFFCURVE",
"383 501 CURVE SMOOTH",
"383 469.004 OFFCURVE",
"397.066 452 OFFCURVE",
"424 452 CURVE SMOOTH",
"450.413 452 OFFCURVE",
"467 471.04 OFFCURVE",
"467 501 CURVE SMOOTH",
"467 613.011 OFFCURVE",
"414.416 664 OFFCURVE",
"299 664 CURVE SMOOTH",
"169.98 664 OFFCURVE",
"109.313 604.872 OFFCURVE",
"98.02 468.495 CURVE SMOOTH",
"60.107 35.479 LINE"
);
}
);
width = 520;
}
);
note = sterling;
rightKerningGroup = numbersign;
unicode = 00A3;
},
{
glyphname = currency;
lastChange = "2016-07-31 02:36:39 +0000";
layers = (
{
layerId = "AE6579ED-DC47-4075-A6A3-4B1A21099458";
paths = (
{
closed = 1;
nodes = (
"308.521 319 OFFCURVE",
"349 279.181 OFFCURVE",
"349 231 CURVE SMOOTH",
"349 182.043 OFFCURVE",
"308.743 142 OFFCURVE",
"261 142 CURVE SMOOTH",
"211.819 142 OFFCURVE",
"172 182.479 OFFCURVE",
"172 231 CURVE SMOOTH",
"172 278.743 OFFCURVE",
"212.043 319 OFFCURVE",
"261 319 CURVE SMOOTH"
);
},
{
closed = 1;
nodes = (
"103.504 289.263 OFFCURVE",
"96 262.464 OFFCURVE",
"96 231 CURVE SMOOTH",
"96 198.744 OFFCURVE",
"103.435 171.85 OFFCURVE",
"118.274 148.76 CURVE",
"80.757 111.243 LINE",
"70.332 99.672 OFFCURVE",
"65 88.318 OFFCURVE",
"65 76 CURVE SMOOTH",
"65 52.283 OFFCURVE",
"83.389 35 OFFCURVE",
"107 35 CURVE SMOOTH",
"118.923 35 OFFCURVE",
"130.408 41.839 OFFCURVE",
"142.423 54.946 CURVE",
"177.792 89.394 LINE",
"202.966 73.922 OFFCURVE",
"230.557 66 OFFCURVE",
"261 66 CURVE SMOOTH",
"291.019 66 OFFCURVE",
"318.594 73.692 OFFCURVE",
"343.174 88.43 CURVE",
"377.814 54.701 LINE",
"389.225 42.239 OFFCURVE",
"401.784 35 OFFCURVE",
"414 35 CURVE SMOOTH",
"435.745 35 OFFCURVE",
"456 56.421 OFFCURVE",
"456 78 CURVE SMOOTH",
"456 89.294 OFFCURVE",
"449.697 100.788 OFFCURVE",
"438.243 112.243 CURVE SMOOTH",
"402.603 147.882 LINE",
"417.395 172.577 OFFCURVE",
"425 200.209 OFFCURVE",
"425 231 CURVE SMOOTH",
"425 261.019 OFFCURVE",
"417.308 288.594 OFFCURVE",
"402.57 313.174 CURVE",
"436.299 347.814 LINE",
"449.337 359.753 OFFCURVE",
"456 371.26 OFFCURVE",
"456 384 CURVE SMOOTH",
"456 407 OFFCURVE",
"437.074 425 OFFCURVE",
"413 425 CURVE SMOOTH",
"402.297 425 OFFCURVE",
"391 419.371 OFFCURVE",
"379.986 409.46 CURVE",
"343.118 372.603 LINE",
"318.553 387.319 OFFCURVE",
"290.996 395 OFFCURVE",
"261 395 CURVE SMOOTH",
"230.579 395 OFFCURVE",
"203.005 387.089 OFFCURVE",
"177.846 371.639 CURVE",
"140.243 409.243 LINE",
"139.799 409.644 LINE",
"127.032 420.09 OFFCURVE",
"117.204 425 OFFCURVE",
"107 425 CURVE SMOOTH",
"85.25 425 OFFCURVE",
"65 405.255 OFFCURVE",
"65 384 CURVE SMOOTH",
"65 373.52 OFFCURVE",
"70.323 362.463 OFFCURVE",
"80.356 350.201 CURVE",
"80.757 349.757 LINE",
"118.274 312.24 LINE"
);
}
);
width = 521;
}
);
note = currency;
rightKerningGroup = numbersign;
unicode = 00A4;
},
{
glyphname = yen;
lastChange = "2016-07-31 02:36:39 +0000";
layers = (
{
layerId = "AE6579ED-DC47-4075-A6A3-4B1A21099458";
paths = (
{
closed = 1;
nodes = (
"26 614.602 OFFCURVE",
"29.49 603.482 OFFCURVE",
"36.938 591.779 CURVE",
"239 302.114 LINE",
"239 293 LINE",
"155 293 LINE SMOOTH",
"123.818 293 OFFCURVE",
"107 278.779 OFFCURVE",
"107 252 CURVE SMOOTH",
"107 225.27 OFFCURVE",
"125.277 209 OFFCURVE",
"155 209 CURVE SMOOTH",
"239 209 LINE",
"239 204 LINE",
"155 204 LINE SMOOTH",
"123.606 204 OFFCURVE",
"107 189.594 OFFCURVE",
"107 162 CURVE SMOOTH",
"107 134.406 OFFCURVE",
"123.606 120 OFFCURVE",
"155 120 CURVE SMOOTH",
"239 120 LINE",
"239 20 LINE SMOOTH",
"239 -10.284 OFFCURVE",
"253.987 -28 OFFCURVE",
"280 -28 CURVE SMOOTH",
"307.594 -28 OFFCURVE",
"322 -11.394 OFFCURVE",
"322 20 CURVE SMOOTH",
"322 120 LINE",
"400 120 LINE SMOOTH",
"431.996 120 OFFCURVE",
"449 134.066 OFFCURVE",
"449 161 CURVE SMOOTH",
"449 187.413 OFFCURVE",
"429.96 204 OFFCURVE",
"400 204 CURVE SMOOTH",
"322 204 LINE",
"322 209 LINE",
"400 209 LINE SMOOTH",
"429.659 209 OFFCURVE",
"449 225.436 OFFCURVE",
"449 251 CURVE SMOOTH",
"449 276.564 OFFCURVE",
"429.659 293 OFFCURVE",
"400 293 CURVE SMOOTH",
"322 293 LINE",
"322 302.122 LINE",
"522.929 591.579 LINE SMOOTH",
"530.369 602.207 OFFCURVE",
"534 613.401 OFFCURVE",
"534 624 CURVE SMOOTH",
"534 646.197 OFFCURVE",
"513.188 664 OFFCURVE",
"489 664 CURVE SMOOTH",
"475.37 664 OFFCURVE",
"463.794 655.651 OFFCURVE",
"453.855 639.087 CURVE",
"279.986 391.424 LINE",
"104.902 639.46 LINE SMOOTH",
"93.092 655.566 OFFCURVE",
"81.391 664 OFFCURVE",
"69 664 CURVE SMOOTH",
"46.016 664 OFFCURVE",
"26 645.938 OFFCURVE",
"26 625 CURVE SMOOTH"
);
}
);
width = 560;
}
);
note = yen;
rightKerningGroup = numbersign;
unicode = 00A5;
},
{
glyphname = brokenbar;
lastChange = "2016-07-31 02:36:39 +0000";
layers = (
{
layerId = "AE6579ED-DC47-4075-A6A3-4B1A21099458";
paths = (
{
closed = 1;
nodes = (
"74 -8.363 OFFCURVE",
"89.511 -28 OFFCURVE",
"114 -28 CURVE SMOOTH",
"142.31 -28 OFFCURVE",
"157 -10.757 OFFCURVE",
"157 22 CURVE SMOOTH",
"157 235 LINE SMOOTH",
"157 263.295 OFFCURVE",
"141.248 284 OFFCURVE",
"118 284 CURVE SMOOTH",
"90.738 284 OFFCURVE",
"74 265.247 OFFCURVE",
"74 235 CURVE SMOOTH",
"74 22 LINE SMOOTH"
);
},
{
closed = 1;
nodes = (
"157 646.284 OFFCURVE",
"142.013 664 OFFCURVE",
"116 664 CURVE SMOOTH",
"88.406 664 OFFCURVE",
"74 647.394 OFFCURVE",
"74 616 CURVE SMOOTH",
"74 401 LINE SMOOTH",
"74 372.705 OFFCURVE",
"89.752 352 OFFCURVE",
"113 352 CURVE SMOOTH",
"140.262 352 OFFCURVE",
"157 370.753 OFFCURVE",
"157 401 CURVE SMOOTH",
"157 616 LINE SMOOTH"
);
}
);
width = 231;
}
);
note = brokenbar;
rightKerningGroup = numbersign;
unicode = 00A6;
},
{
glyphname = section;
lastChange = "2016-07-31 02:36:39 +0000";
layers = (
{
layerId = "AE6579ED-DC47-4075-A6A3-4B1A21099458";
paths = (
{
closed = 1;
nodes = (
"429.306 -21 OFFCURVE",
"470 19.35 OFFCURVE",
"470 99 CURVE SMOOTH",
"470 139.748 OFFCURVE",
"458.881 171.691 OFFCURVE",
"436.273 193.699 CURVE",
"458.903 213.391 OFFCURVE",
"470 245.557 OFFCURVE",
"470 289 CURVE SMOOTH",
"470 363.481 OFFCURVE",
"430.069 406.675 OFFCURVE",
"352.715 415.957 CURVE SMOOTH",
"177.849 440.94 LINE SMOOTH",
"160.427 443.428 OFFCURVE",
"152 460.44 OFFCURVE",
"152 495 CURVE SMOOTH",
"152 524.206 OFFCURVE",
"157.183 531 OFFCURVE",
"178 531 CURVE SMOOTH",
"362 531 LINE SMOOTH",
"385.796 531 OFFCURVE",
"386 531.19 OFFCURVE",
"386 509 CURVE SMOOTH",
"386 481.116 OFFCURVE",
"402.977 462 OFFCURVE",
"428 462 CURVE SMOOTH",
"455.753 462 OFFCURVE",
"470 478.787 OFFCURVE",
"470 511 CURVE SMOOTH",
"470 581.689 OFFCURVE",
"439.328 615 OFFCURVE",
"374 615 CURVE SMOOTH",
"189 615 LINE SMOOTH",
"108.694 615 OFFCURVE",
"68 574.65 OFFCURVE",
"68 495 CURVE SMOOTH",
"68 454.187 OFFCURVE",
"79.155 422.207 OFFCURVE",
"101.836 400.195 CURVE",
"79.221 379.816 OFFCURVE",
"68 347.83 OFFCURVE",
"68 306 CURVE SMOOTH",
"68 230.69 OFFCURVE",
"107.75 187.347 OFFCURVE",
"185.285 178.043 CURVE SMOOTH",
"360.151 153.06 LINE SMOOTH",
"377.573 150.572 OFFCURVE",
"386 133.56 OFFCURVE",
"386 99 CURVE SMOOTH",
"386 69.247 OFFCURVE",
"381.213 63 OFFCURVE",
"360 63 CURVE SMOOTH",
"176 63 LINE SMOOTH",
"152.204 63 OFFCURVE",
"152 62.81 OFFCURVE",
"152 85 CURVE SMOOTH",
"152 112.884 OFFCURVE",
"135.023 132 OFFCURVE",
"110 132 CURVE SMOOTH",
"85.167 132 OFFCURVE",
"68 112.443 OFFCURVE",
"68 86 CURVE SMOOTH",
"68 12.027 OFFCURVE",
"97.848 -21 OFFCURVE",
"165 -21 CURVE SMOOTH",
"349 -21 LINE SMOOTH"
);
},
{
closed = 1;
nodes = (
"320.922 352 OFFCURVE",
"386 325.391 OFFCURVE",
"386 289 CURVE SMOOTH",
"386 243.069 OFFCURVE",
"385.296 242 OFFCURVE",
"305 242 CURVE SMOOTH",
"214.955 242 OFFCURVE",
"152 270.006 OFFCURVE",
"152 308 CURVE SMOOTH",
"152 350.191 OFFCURVE",
"153.15 352 OFFCURVE",
"228 352 CURVE SMOOTH"
);
}
);
width = 539;
}
);
note = section;
rightKerningGroup = numbersign;
unicode = 00A7;
},
{
glyphname = dieresis;
lastChange = "2016-07-31 02:36:39 +0000";
layers = (
{
layerId = "AE6579ED-DC47-4075-A6A3-4B1A21099458";
paths = (
{
closed = 1;
nodes = (
"178 659.364 OFFCURVE",
"145.342 687 OFFCURVE",
"111 687 CURVE SMOOTH",
"76.658 687 OFFCURVE",
"44 659.364 OFFCURVE",
"44 630 CURVE SMOOTH",
"44 600.033 OFFCURVE",
"75.458 573 OFFCURVE",
"110 573 CURVE SMOOTH",
"145.125 573 OFFCURVE",
"178 600.397 OFFCURVE",
"178 630 CURVE SMOOTH"
);
},
{
closed = 1;
nodes = (
"348 659.364 OFFCURVE",
"315.342 687 OFFCURVE",
"281 687 CURVE SMOOTH",
"246.658 687 OFFCURVE",
"214 659.364 OFFCURVE",
"214 630 CURVE SMOOTH",
"214 600.033 OFFCURVE",
"245.458 573 OFFCURVE",
"280 573 CURVE SMOOTH",
"315.125 573 OFFCURVE",
"348 600.397 OFFCURVE",
"348 630 CURVE SMOOTH"
);
}
);
width = 392;
}
);
note = dieresis;
rightKerningGroup = numbersign;
unicode = 00A8;
},
{
glyphname = copyright;
lastChange = "2016-07-31 02:36:39 +0000";
layers = (
{
layerId = "AE6579ED-DC47-4075-A6A3-4B1A21099458";
paths = (
{
closed = 1;
nodes = (
"180.196 150 OFFCURVE",
"156 168.255 OFFCURVE",
"156 262 CURVE SMOOTH",
"156 373 LINE SMOOTH",
"156 466.745 OFFCURVE",
"180.196 485 OFFCURVE",
"301 485 CURVE SMOOTH",
"330 485 LINE SMOOTH",
"448.843 485 OFFCURVE",
"474 465.873 OFFCURVE",
"474 373 CURVE SMOOTH",
"474 262 LINE SMOOTH",
"474 169.127 OFFCURVE",
"448.843 150 OFFCURVE",
"330 150 CURVE SMOOTH",
"301 150 LINE SMOOTH"
);
},
{
closed = 1;
nodes = (
"72 119.129 OFFCURVE",
"134.957 66 OFFCURVE",
"301 66 CURVE SMOOTH",
"330 66 LINE SMOOTH",
"494.658 66 OFFCURVE",
"558 119.698 OFFCURVE",
"558 262 CURVE SMOOTH",
"558 373 LINE SMOOTH",
"558 515.302 OFFCURVE",
"494.658 569 OFFCURVE",
"330 569 CURVE SMOOTH",
"301 569 LINE SMOOTH",
"134.957 569 OFFCURVE",
"72 515.871 OFFCURVE",
"72 373 CURVE SMOOTH",
"72 262 LINE SMOOTH"
);
},
{
closed = 1;
nodes = (
"431 406.689 OFFCURVE",
"399.478 437 OFFCURVE",
"360 437 CURVE SMOOTH",
"310 437 LINE SMOOTH",
"243.539 437 OFFCURVE",
"199 396.973 OFFCURVE",
"199 337 CURVE SMOOTH",
"199 298 LINE SMOOTH",
"199 238.027 OFFCURVE",
"243.539 198 OFFCURVE",
"310 198 CURVE SMOOTH",
"360 198 LINE SMOOTH",
"401.328 198 OFFCURVE",
"431 227.007 OFFCURVE",
"431 266 CURVE SMOOTH",
"431 290.231 OFFCURVE",
"417.443 305 OFFCURVE",
"395 305 CURVE SMOOTH",
"372.888 305 OFFCURVE",
"362.817 294.087 OFFCURVE",
"359.056 266.82 CURVE",
"359 266 LINE",
"359 288.872 OFFCURVE",
"382.192 271 OFFCURVE",
"358 271 CURVE SMOOTH",
"310 271 LINE SMOOTH",
"285.706 271 OFFCURVE",
"271 281.487 OFFCURVE",
"271 298 CURVE SMOOTH",
"271 337 LINE SMOOTH",
"271 353.513 OFFCURVE",
"285.706 364 OFFCURVE",
"310 364 CURVE SMOOTH",
"358 364 LINE SMOOTH",
"358.556 364 OFFCURVE",
"359.045 363.989 OFFCURVE",
"359.473 363.972 CURVE",
"360.03 358.403 LINE SMOOTH",
"361.23 340.345 OFFCURVE",
"373.217 330 OFFCURVE",
"393 330 CURVE SMOOTH",
"416.813 330 OFFCURVE",
"431 344.986 OFFCURVE",
"431 370 CURVE SMOOTH"
);
}
);
width = 630;
}
);
note = copyright;
rightKerningGroup = numbersign;
unicode = 00A9;
},
{
glyphname = ordfeminine;
lastChange = "2016-07-31 02:36:39 +0000";
layers = (
{
layerId = "AE6579ED-DC47-4075-A6A3-4B1A21099458";
paths = (
{
closed = 1;
nodes = (
"198 406 LINE SMOOTH",
"116.422 406 OFFCURVE",
"80 376.871 OFFCURVE",
"80 311 CURVE SMOOTH",
"80 265.483 OFFCURVE",
"114.238 228 OFFCURVE",
"156 228 CURVE SMOOTH",
"193 228 LINE SMOOTH",
"214.024 228 OFFCURVE",
"231.512 232.059 OFFCURVE",
"245.073 239.722 CURVE",
"251.896 230.009 OFFCURVE",
"260.603 225 OFFCURVE",
"271 225 CURVE SMOOTH",
"296.123 225 OFFCURVE",
"312 237.054 OFFCURVE",
"312 258 CURVE SMOOTH",
"312 397 LINE SMOOTH",
"312 450.563 OFFCURVE",
"284.76 482 OFFCURVE",
"238 482 CURVE SMOOTH",
"153 482 LINE SMOOTH",
"107.293 482 OFFCURVE",
"80 457.419 OFFCURVE",
"80 416 CURVE SMOOTH",
"80 397.475 OFFCURVE",
"97.01 383 OFFCURVE",
"117 383 CURVE SMOOTH",
"135.466 383 OFFCURVE",
"151.528 395.486 OFFCURVE",
"152.904 411.735 CURVE",
"149.462 406.927 OFFCURVE",
"147.488 409 OFFCURVE",
"156 409 CURVE SMOOTH",
"235 409 LINE SMOOTH",
"239.632 409 OFFCURVE",
"239 410.924 OFFCURVE",
"239 404 CURVE",
"239 406 LINE"
);
},
{
closed = 1;
nodes = (
"73.772 220 OFFCURVE",
"55 203.581 OFFCURVE",
"55 183 CURVE SMOOTH",
"55 159.162 OFFCURVE",
"72.019 143 OFFCURVE",
"97 143 CURVE SMOOTH",
"293 143 LINE SMOOTH",
"319.134 143 OFFCURVE",
"337 157.724 OFFCURVE",
"337 181 CURVE SMOOTH",
"337 204.038 OFFCURVE",
"318.865 220 OFFCURVE",
"293 220 CURVE SMOOTH",
"97 220 LINE SMOOTH"
);
},
{
closed = 1;
nodes = (
"230.717 311.375 OFFCURVE",
"216.522 301 OFFCURVE",
"193 301 CURVE SMOOTH",
"156 301 LINE",
"156.986 300.918 LINE",
"154.217 301.38 OFFCURVE",
"153 303.722 OFFCURVE",
"153 312 CURVE SMOOTH",
"153 321.447 OFFCURVE",
"155.203 326.257 OFFCURVE",
"159.328 329.008 CURVE",
"158.683 328.633 LINE",
"163.738 331.161 OFFCURVE",
"177.572 333 OFFCURVE",
"198 333 CURVE SMOOTH",
"236.553 333 LINE"
);
}
);
width = 392;
}
);
note = ordfeminine;
rightKerningGroup = numbersign;
unicode = 00AA;
},
{
glyphname = logicalnot;
lastChange = "2016-07-31 02:36:39 +0000";
layers = (
{
layerId = "AE6579ED-DC47-4075-A6A3-4B1A21099458";
paths = (
{
closed = 1;
nodes = (
"383 112.835 OFFCURVE",
"399.719 92 OFFCURVE",
"424 92 CURVE SMOOTH",
"452.88 92 OFFCURVE",
"468 108.951 OFFCURVE",
"468 141 CURVE SMOOTH",
"468 225 LINE SMOOTH",
"468 256.352 OFFCURVE",
"450.617 273 OFFCURVE",
"418 273 CURVE SMOOTH",
"120 273 LINE SMOOTH",
"92.37 273 OFFCURVE",
"73 255.796 OFFCURVE",
"73 231 CURVE SMOOTH",
"73 202.76 OFFCURVE",
"89.226 188 OFFCURVE",
"120 188 CURVE SMOOTH",
"383 188 LINE",
"383 141 LINE SMOOTH"
);
}
);
width = 543;
}
);
note = logicalnot;
rightKerningGroup = numbersign;
unicode = 00AC;
},
{
glyphname = registered;
lastChange = "2016-07-31 02:36:39 +0000";
layers = (
{
layerId = "AE6579ED-DC47-4075-A6A3-4B1A21099458";
paths = (
{
closed = 1;
nodes = (
"180.196 150 OFFCURVE",
"156 168.255 OFFCURVE",
"156 262 CURVE SMOOTH",
"156 373 LINE SMOOTH",
"156 466.745 OFFCURVE",
"180.196 485 OFFCURVE",
"301 485 CURVE SMOOTH",
"330 485 LINE SMOOTH",
"448.843 485 OFFCURVE",
"474 465.873 OFFCURVE",
"474 373 CURVE SMOOTH",
"474 262 LINE SMOOTH",
"474 169.127 OFFCURVE",
"448.843 150 OFFCURVE",
"330 150 CURVE SMOOTH",
"301 150 LINE SMOOTH"
);
},
{
closed = 1;
nodes = (
"72 119.129 OFFCURVE",
"134.957 66 OFFCURVE",
"301 66 CURVE SMOOTH",
"330 66 LINE SMOOTH",
"494.658 66 OFFCURVE",
"558 119.698 OFFCURVE",
"558 262 CURVE SMOOTH",
"558 373 LINE SMOOTH",
"558 515.302 OFFCURVE",
"494.658 569 OFFCURVE",
"330 569 CURVE SMOOTH",
"301 569 LINE SMOOTH",
"134.957 569 OFFCURVE",
"72 515.871 OFFCURVE",
"72 373 CURVE SMOOTH",
"72 262 LINE SMOOTH"
);
},
{
closed = 1;
nodes = (
"425.155 187 OFFCURVE",
"442 200.731 OFFCURVE",
"442 217 CURVE SMOOTH",
"442 236.725 OFFCURVE",
"428.123 262.814 OFFCURVE",
"401.255 295.31 CURVE",
"426.398 310.526 OFFCURVE",
"439 332.419 OFFCURVE",
"439 361 CURVE SMOOTH",
"439 414.81 OFFCURVE",
"396.5 442 OFFCURVE",
"314 442 CURVE SMOOTH",
"230 442 LINE SMOOTH",
"211.19 442 OFFCURVE",
"195 427.774 OFFCURVE",
"195 411 CURVE SMOOTH",
"195 217 LINE SMOOTH",
"195 200.315 OFFCURVE",
"212.314 187 OFFCURVE",
"232 187 CURVE SMOOTH",
"252.062 187 OFFCURVE",
"268 200.116 OFFCURVE",
"268 217 CURVE SMOOTH",
"268 282 LINE",
"318.281 282 LINE",
"344.272 265.314 OFFCURVE",
"365.456 226.503 OFFCURVE",
"369.203 212.454 CURVE",
"372.718 196.012 OFFCURVE",
"386.126 187 OFFCURVE",
"407 187 CURVE SMOOTH"
);
},
{
closed = 1;
nodes = (
"268 369 LINE",
"314 369 LINE SMOOTH",
"338.813 369 OFFCURVE",
"354.388 368.027 OFFCURVE",
"361.151 367.06 CURVE",
"360.352 367.231 LINE",
"364.693 365.99 OFFCURVE",
"366 364.408 OFFCURVE",
"366 361 CURVE SMOOTH",
"366 360.364 OFFCURVE",
"365.503 358.952 OFFCURVE",
"362.745 357.426 CURVE",
"363.941 356.409 OFFCURVE",
"345.356 355 OFFCURVE",
"314 355 CURVE SMOOTH",
"268 355 LINE"
);
}
);
width = 630;
}
);
leftKerningGroup = registered;
note = registered;
rightKerningGroup = registered;
unicode = 00AE;
},
{
glyphname = macron;
lastChange = "2016-07-31 02:36:39 +0000";
layers = (
{
layerId = "AE6579ED-DC47-4075-A6A3-4B1A21099458";
paths = (
{
closed = 1;
nodes = (
"63.37 742 OFFCURVE",
"44 724.796 OFFCURVE",
"44 700 CURVE SMOOTH",
"44 671.76 OFFCURVE",
"60.226 657 OFFCURVE",
"91 657 CURVE SMOOTH",
"336 657 LINE SMOOTH",
"364.473 657 OFFCURVE",
"386 673.932 OFFCURVE",
"386 698 CURVE SMOOTH",
"386 726.608 OFFCURVE",
"368.374 742 OFFCURVE",
"336 742 CURVE SMOOTH",
"91 742 LINE SMOOTH"
);
}
);
width = 429;
}
);
note = macron;
rightKerningGroup = numbersign;
unicode = 00AF;
},
{
glyphname = degree;
lastChange = "2016-07-31 02:36:39 +0000";
layers = (
{
layerId = "AE6579ED-DC47-4075-A6A3-4B1A21099458";
paths = (
{
closed = 1;
nodes = (
"256.521 616 OFFCURVE",
"294 579.181 OFFCURVE",
"294 535 CURVE SMOOTH",
"294 490.044 OFFCURVE",
"256.744 453 OFFCURVE",
"213 453 CURVE SMOOTH",
"168.479 453 OFFCURVE",
"131 489.819 OFFCURVE",
"131 535 CURVE SMOOTH",
"131 578.744 OFFCURVE",
"168.044 616 OFFCURVE",
"213 616 CURVE SMOOTH"
);
},
{
closed = 1;
nodes = (
"377 625.479 OFFCURVE",
"302.819 699 OFFCURVE",
"213 699 CURVE SMOOTH",
"121.749 699 OFFCURVE",
"48 625.044 OFFCURVE",
"48 535 CURVE SMOOTH",
"48 444.181 OFFCURVE",
"121.521 370 OFFCURVE",
"213 370 CURVE SMOOTH",
"303.044 370 OFFCURVE",
"377 443.749 OFFCURVE",
"377 535 CURVE SMOOTH"
);
}
);
width = 424;
}
);
note = degree;
rightKerningGroup = numbersign;
unicode = 00B0;
},
{
glyphname = plusminus;
lastChange = "2016-07-31 02:36:39 +0000";
layers = (
{
layerId = "AE6579ED-DC47-4075-A6A3-4B1A21099458";
paths = (
{
closed = 1;
nodes = (
"509.473 -16 OFFCURVE",
"531 0.932 OFFCURVE",
"531 25 CURVE SMOOTH",
"531 53.608 OFFCURVE",
"513.374 69 OFFCURVE",
"481 69 CURVE SMOOTH",
"103 69 LINE SMOOTH",
"72.632 69 OFFCURVE",
"56 54.618 OFFCURVE",
"56 28 CURVE SMOOTH",
"56 1.182 OFFCURVE",
"74.421 -16 OFFCURVE",
"103 -16 CURVE SMOOTH",
"481 -16 LINE SMOOTH"
);
},
{
closed = 1;
nodes = (
"251 111.606 OFFCURVE",
"265.406 95 OFFCURVE",
"293 95 CURVE SMOOTH",
"320.594 95 OFFCURVE",
"335 111.606 OFFCURVE",
"335 143 CURVE SMOOTH",
"335 249 LINE",
"481 249 LINE SMOOTH",
"508.76 249 OFFCURVE",
"531 267.419 OFFCURVE",
"531 292 CURVE SMOOTH",
"531 317.14 OFFCURVE",
"510.739 334 OFFCURVE",
"481 334 CURVE SMOOTH",
"335 334 LINE",
"335 440 LINE SMOOTH",
"335 472.213 OFFCURVE",
"320.753 489 OFFCURVE",
"293 489 CURVE SMOOTH",
"265.247 489 OFFCURVE",
"251 472.213 OFFCURVE",
"251 440 CURVE SMOOTH",
"251 334 LINE",
"103 334 LINE SMOOTH",
"72.632 334 OFFCURVE",
"56 319.618 OFFCURVE",
"56 293 CURVE SMOOTH",
"56 266.467 OFFCURVE",
"74.725 249 OFFCURVE",
"103 249 CURVE SMOOTH",
"251 249 LINE",
"251 143 LINE SMOOTH"
);
}
);
width = 587;
}
);
note = plusminus;
rightKerningGroup = numbersign;
unicode = 00B1;
},
{
glyphname = twosuperior;
lastChange = "2016-07-31 02:36:39 +0000";
layers = (
{
layerId = "AE6579ED-DC47-4075-A6A3-4B1A21099458";
paths = (
{
closed = 1;
nodes = (
"288.57 440 OFFCURVE",
"311 459.123 OFFCURVE",
"311 478 CURVE SMOOTH",
"311 496.113 OFFCURVE",
"289.86 513.724 OFFCURVE",
"268.352 514.99 CURVE",
"129.93 515 LINE",
"142.362 533.72 OFFCURVE",
"173.183 555.319 OFFCURVE",
"224.647 580.615 CURVE SMOOTH",
"282.343 609.987 OFFCURVE",
"311 642.703 OFFCURVE",
"311 680 CURVE",
"305 680 LINE",
"305 681 OFFCURVE",
"305 681 OFFCURVE",
"305 682 CURVE",
"311 682 LINE",
"311 769.21 OFFCURVE",
"259.052 788 OFFCURVE",
"170 788 CURVE SMOOTH",
"140 788 LINE SMOOTH",
"86.27 788 OFFCURVE",
"44 750.688 OFFCURVE",
"44 703 CURVE SMOOTH",
"44 681.465 OFFCURVE",
"62.411 664 OFFCURVE",
"85 664 CURVE SMOOTH",
"105.632 664 OFFCURVE",
"122 681.776 OFFCURVE",
"122 704 CURVE SMOOTH",
"122 709.81 OFFCURVE",
"128.363 713 OFFCURVE",
"144 713 CURVE SMOOTH",
"170 713 LINE SMOOTH",
"200.893 713 OFFCURVE",
"219.92 710.914 OFFCURVE",
"227.563 707.517 CURVE",
"232.937 704.823 OFFCURVE",
"236 696.569 OFFCURVE",
"236 682 CURVE SMOOTH",
"236 672.61 OFFCURVE",
"219.166 659.938 OFFCURVE",
"171.259 635.337 CURVE SMOOTH",
"152.143 626.286 OFFCURVE",
"133.834 615.097 OFFCURVE",
"114.796 603.073 CURVE SMOOTH",
"70.911 574.607 OFFCURVE",
"44 529.02 OFFCURVE",
"44 483 CURVE SMOOTH",
"44 440 LINE",
"268 440 LINE SMOOTH"
);
}
);
width = 355;
}
);
note = twosuperior;
rightKerningGroup = numbersign;
unicode = 00B2;
},
{
glyphname = threesuperior;
lastChange = "2016-07-31 02:36:39 +0000";
layers = (
{
layerId = "AE6579ED-DC47-4075-A6A3-4B1A21099458";
paths = (
{
closed = 1;
nodes = (
"212 673.556 OFFCURVE",
"178.105 655 OFFCURVE",
"147 655 CURVE SMOOTH",
"120.226 655 OFFCURVE",
"102 640.618 OFFCURVE",
"102 619 CURVE SMOOTH",
"102 594.926 OFFCURVE",
"118.558 580 OFFCURVE",
"145 580 CURVE SMOOTH",
"172.203 580 OFFCURVE",
"212 556.419 OFFCURVE",
"212 541 CURVE SMOOTH",
"212 526.209 OFFCURVE",
"205.516 518.478 OFFCURVE",
"190.957 515.909 CURVE SMOOTH",
"186.406 515 OFFCURVE",
"181 515 OFFCURVE",
"173 515 CURVE SMOOTH",
"169 515 OFFCURVE",
"164.66 515 OFFCURVE",
"159 515 CURVE SMOOTH",
"129.991 515 OFFCURVE",
"113.266 519.226 OFFCURVE",
"108.887 526.664 CURVE",
"107.001 546.229 OFFCURVE",
"90.381 561 OFFCURVE",
"70 561 CURVE SMOOTH",
"47.209 561 OFFCURVE",
"31 546.114 OFFCURVE",
"31 525 CURVE SMOOTH",
"31 478.315 OFFCURVE",
"86.425 440 OFFCURVE",
"153 440 CURVE SMOOTH",
"222.463 440 OFFCURVE",
"286 449.859 OFFCURVE",
"286 540 CURVE SMOOTH",
"286 569.429 OFFCURVE",
"271.486 595.467 OFFCURVE",
"243.816 617.39 CURVE",
"271.806 634.958 OFFCURVE",
"286 657.231 OFFCURVE",
"286 684 CURVE SMOOTH",
"286 760.767 OFFCURVE",
"249.811 788 OFFCURVE",
"149 788 CURVE SMOOTH",
"85.899 788 OFFCURVE",
"31 748.732 OFFCURVE",
"31 703 CURVE SMOOTH",
"31 681.886 OFFCURVE",
"47.209 667 OFFCURVE",
"70 667 CURVE SMOOTH",
"92.293 667 OFFCURVE",
"109 680.862 OFFCURVE",
"109 701 CURVE",
"109.463 706.306 OFFCURVE",
"136.337 713 OFFCURVE",
"168 713 CURVE SMOOTH",
"202.07 713 OFFCURVE",
"212 707.494 OFFCURVE",
"212 690 CURVE SMOOTH"
);
}
);
width = 325;
}
);
note = threesuperior;
rightKerningGroup = numbersign;
unicode = 00B3;
},
{
glyphname = acute;
lastChange = "2016-07-31 02:36:39 +0000";
layers = (
{
layerId = "AE6579ED-DC47-4075-A6A3-4B1A21099458";
paths = (
{
closed = 1;
nodes = (
"195.647 634.342 OFFCURVE",
"200 644.822 OFFCURVE",
"200 657 CURVE SMOOTH",
"200 680.979 OFFCURVE",
"181.319 699 OFFCURVE",
"158 699 CURVE SMOOTH",
"145.441 699 OFFCURVE",
"132.79 691.314 OFFCURVE",
"121.42 677.876 CURVE SMOOTH",
"25.394 562.845 LINE",
"25.085 562.441 LINE",
"16.964 550.84 OFFCURVE",
"13 539.723 OFFCURVE",
"13 530 CURVE SMOOTH",
"13 507.508 OFFCURVE",
"33.119 489 OFFCURVE",
"56 489 CURVE SMOOTH",
"67.732 489 OFFCURVE",
"80.403 496.915 OFFCURVE",
"91.58 510.124 CURVE SMOOTH",
"187.606 625.155 LINE SMOOTH"
);
}
);
width = 212;
}
);
note = acute;
rightKerningGroup = numbersign;
unicode = 00B4;
},
{
glyphname = paragraph;
lastChange = "2016-07-31 02:36:39 +0000";
layers = (
{
layerId = "AE6579ED-DC47-4075-A6A3-4B1A21099458";
paths = (
{
closed = 1;
nodes = (
"339 -11.597 OFFCURVE",
"353.591 -28 OFFCURVE",
"382 -28 CURVE SMOOTH",
"408.013 -28 OFFCURVE",
"423 -10.284 OFFCURVE",
"423 20 CURVE SMOOTH",
"423 657 LINE",
"257 657 LINE SMOOTH",
"100.339 657 OFFCURVE",
"29 605.965 OFFCURVE",
"29 493 CURVE SMOOTH",
"29 378.776 OFFCURVE",
"95.019 316 OFFCURVE",
"215 316 CURVE SMOOTH",
"236 316 LINE",
"236 20 LINE SMOOTH",
"236 -11.597 OFFCURVE",
"250.591 -28 OFFCURVE",
"279 -28 CURVE SMOOTH",
"305.013 -28 OFFCURVE",
"320 -10.284 OFFCURVE",
"320 20 CURVE SMOOTH",
"320 573 LINE",
"339 573 LINE",
"339 20 LINE SMOOTH"
);
}
);
width = 506;
}
);
note = paragraph;
rightKerningGroup = numbersign;
unicode = 00B6;
},
{
glyphname = periodcentered;
lastChange = "2016-07-31 02:36:39 +0000";
layers = (
{
layerId = "AE6579ED-DC47-4075-A6A3-4B1A21099458";
paths = (
{
closed = 1;
nodes = (
"193 416.364 OFFCURVE",
"160.342 444 OFFCURVE",
"126 444 CURVE SMOOTH",
"91.658 444 OFFCURVE",
"59 416.364 OFFCURVE",
"59 387 CURVE SMOOTH",
"59 357.033 OFFCURVE",
"90.458 330 OFFCURVE",
"125 330 CURVE SMOOTH",
"160.125 330 OFFCURVE",
"193 357.397 OFFCURVE",
"193 387 CURVE SMOOTH"
);
}
);
width = 252;
}
);
note = periodcentered;
rightKerningGroup = numbersign;
unicode = 00B7;
},
{
glyphname = cedilla;
lastChange = "2016-07-31 02:36:39 +0000";
layers = (
{
layerId = "AE6579ED-DC47-4075-A6A3-4B1A21099458";
paths = (
{
closed = 1;
nodes = (
"75 16 LINE",
"75 5 LINE SMOOTH",
"75 -38.314 OFFCURVE",
"106.074 -72.603 OFFCURVE",
"129.722 -88.026 CURVE",
"145.294 -99.36 OFFCURVE",
"144 -102.18 OFFCURVE",
"144 -98 CURVE",
"144 -102.751 OFFCURVE",
"142.886 -107.822 OFFCURVE",
"140.544 -111.41 CURVE",
"139.384 -115.299 OFFCURVE",
"135.728 -117 OFFCURVE",
"120 -117 CURVE SMOOTH",
"115.016 -117 OFFCURVE",
"105.723 -114.116 OFFCURVE",
"89.537 -106.563 CURVE SMOOTH",
"74.362 -99.481 OFFCURVE",
"62.309 -96 OFFCURVE",
"54 -96 CURVE SMOOTH",
"32.783 -96 OFFCURVE",
"21 -109.719 OFFCURVE",
"21 -134 CURVE SMOOTH",
"21 -167.324 OFFCURVE",
"64.637 -196 OFFCURVE",
"116 -196 CURVE SMOOTH",
"180.657 -196 OFFCURVE",
"228 -155.131 OFFCURVE",
"228 -99 CURVE SMOOTH",
"228 -73.011 OFFCURVE",
"213.613 -46.327 OFFCURVE",
"191.399 -31.056 CURVE",
"190.952 -30.777 LINE",
"170.688 -19.323 OFFCURVE",
"159.856 -6.777 OFFCURVE",
"158.985 5.427 CURVE",
"159 16 LINE"
);
}
);
width = 242;
}
);
note = cedilla;
rightKerningGroup = numbersign;
unicode = 00B8;
},
{
glyphname = onesuperior;
lastChange = "2016-07-31 02:36:39 +0000";
layers = (
{
layerId = "AE6579ED-DC47-4075-A6A3-4B1A21099458";
paths = (
{
closed = 1;
nodes = (
"53 451.965 OFFCURVE",
"66.109 437 OFFCURVE",
"91 437 CURVE SMOOTH",
"115.891 437 OFFCURVE",
"129 451.965 OFFCURVE",
"129 480 CURVE SMOOTH",
"129 751 LINE SMOOTH",
"129 773.814 OFFCURVE",
"111.36 791 OFFCURVE",
"88 791 CURVE SMOOTH",
"77.78 791 OFFCURVE",
"67.382 785.816 OFFCURVE",
"56.986 776.46 CURVE",
"7.673 725.157 LINE SMOOTH",
"-3.066 714.419 OFFCURVE",
"-9 704.016 OFFCURVE",
"-9 694 CURVE SMOOTH",
"-9 672.504 OFFCURVE",
"6.504 657 OFFCURVE",
"28 657 CURVE SMOOTH",
"36.56 657 OFFCURVE",
"44.799 660.049 OFFCURVE",
"53 665.94 CURVE",
"53 480 LINE SMOOTH"
);
}
);
width = 182;
}
);
note = onesuperior;
rightKerningGroup = numbersign;
unicode = 00B9;
},
{
glyphname = ordmasculine;
lastChange = "2016-07-31 02:36:39 +0000";
layers = (
{
layerId = "AE6579ED-DC47-4075-A6A3-4B1A21099458";
paths = (
{
closed = 1;
nodes = (
"153.41 301 OFFCURVE",
"153 301.702 OFFCURVE",
"153 333 CURVE SMOOTH",
"153 377 LINE SMOOTH",
"153 408.298 OFFCURVE",
"153.41 409 OFFCURVE",
"191 409 CURVE SMOOTH",
"200 409 LINE SMOOTH",
"238.59 409 OFFCURVE",
"239 408.298 OFFCURVE",
"239 377 CURVE SMOOTH",
"239 333 LINE SMOOTH",
"239 301.702 OFFCURVE",
"238.59 301 OFFCURVE",
"200 301 CURVE SMOOTH",
"191 301 LINE SMOOTH"
);
},
{
closed = 1;
nodes = (
"80 256.091 OFFCURVE",
"109.753 228 OFFCURVE",
"191 228 CURVE SMOOTH",
"200 228 LINE SMOOTH",
"282.123 228 OFFCURVE",
"312 255.947 OFFCURVE",
"312 333 CURVE SMOOTH",
"312 377 LINE SMOOTH",
"312 454.053 OFFCURVE",
"282.123 482 OFFCURVE",
"200 482 CURVE SMOOTH",
"191 482 LINE SMOOTH",
"109.753 482 OFFCURVE",
"80 453.909 OFFCURVE",
"80 377 CURVE SMOOTH",
"80 333 LINE SMOOTH"
);
},
{
closed = 1;
nodes = (
"74.054 220 OFFCURVE",
"55 202.856 OFFCURVE",
"55 182 CURVE SMOOTH",
"55 158.998 OFFCURVE",
"72.305 143 OFFCURVE",
"97 143 CURVE SMOOTH",
"293 143 LINE SMOOTH",
"318.898 143 OFFCURVE",
"337 157.509 OFFCURVE",
"337 180 CURVE",
"335.761 203.691 OFFCURVE",
"317.646 220 OFFCURVE",
"293 220 CURVE SMOOTH",
"97 220 LINE SMOOTH"
);
}
);
width = 392;
}
);
note = ordmasculine;
rightKerningGroup = numbersign;
unicode = 00BA;
},
{
glyphname = onequarter;
lastChange = "2016-07-31 02:36:39 +0000";
layers = (
{
layerId = "AE6579ED-DC47-4075-A6A3-4B1A21099458";
paths = (
{
closed = 1;
nodes = (
"523 79 LINE",
"523 85 LINE",
"524 85 OFFCURVE",
"524 85 OFFCURVE",
"525 85 CURVE",
"525 79 LINE",
"551.439 79 OFFCURVE",
"565 91.469 OFFCURVE",
"565 116 CURVE SMOOTH",
"565 140.726 OFFCURVE",
"550.224 154 OFFCURVE",
"523 154 CURVE SMOOTH",
"495 154 LINE",
"495 326 LINE",
"415.989 326 LINE",
"287 152.991 LINE",
"287 79 LINE",
"419 79 LINE",
"419 18 LINE SMOOTH",
"419 -10.035 OFFCURVE",
"432.109 -25 OFFCURVE",
"457 -25 CURVE SMOOTH",
"481.891 -25 OFFCURVE",
"495 -10.035 OFFCURVE",
"495 18 CURVE SMOOTH",
"495 79 LINE"
);
},
{
closed = 1;
nodes = (
"419 207.876 LINE",
"419 154 LINE",
"378.939 154 LINE"
);
},
{
closed = 1;
nodes = (
"144 317.965 OFFCURVE",
"157.109 303 OFFCURVE",
"182 303 CURVE SMOOTH",
"206.891 303 OFFCURVE",
"220 317.965 OFFCURVE",
"220 346 CURVE SMOOTH",
"220 617 LINE SMOOTH",
"220 639.814 OFFCURVE",
"202.36 657 OFFCURVE",
"179 657 CURVE SMOOTH",
"168.78 657 OFFCURVE",
"158.382 651.816 OFFCURVE",
"147.986 642.46 CURVE",
"98.673 591.157 LINE SMOOTH",
"87.934 580.419 OFFCURVE",
"82 570.016 OFFCURVE",
"82 560 CURVE SMOOTH",
"82 538.504 OFFCURVE",
"97.504 523 OFFCURVE",
"119 523 CURVE SMOOTH",
"127.56 523 OFFCURVE",
"135.799 526.049 OFFCURVE",
"144 531.94 CURVE",
"144 346 LINE SMOOTH"
);
},
{
closed = 1;
nodes = (
"528.668 495.328 OFFCURVE",
"534 506.682 OFFCURVE",
"534 519 CURVE SMOOTH",
"534 541.953 OFFCURVE",
"520.173 555 OFFCURVE",
"496 555 CURVE SMOOTH",
"485.297 555 OFFCURVE",
"474 549.371 OFFCURVE",
"462.986 539.46 CURVE",
"51.757 128.243 LINE",
"41.332 116.672 OFFCURVE",
"36 105.318 OFFCURVE",
"36 93 CURVE SMOOTH",
"36 70.047 OFFCURVE",
"49.827 57 OFFCURVE",
"74 57 CURVE SMOOTH",
"84.703 57 OFFCURVE",
"96 62.629 OFFCURVE",
"107.014 72.54 CURVE",
"518.243 483.757 LINE"
);
}
);
width = 602;
}
);
note = onequarter;
rightKerningGroup = numbersign;
unicode = 00BC;
},
{
glyphname = onehalf;
lastChange = "2016-07-31 02:36:39 +0000";
layers = (
{
layerId = "AE6579ED-DC47-4075-A6A3-4B1A21099458";
paths = (
{
closed = 1;
nodes = (
"561.57 -22 OFFCURVE",
"584 -2.877 OFFCURVE",
"584 16 CURVE SMOOTH",
"584 34.113 OFFCURVE",
"562.86 51.724 OFFCURVE",
"541.352 52.99 CURVE",
"402.93 53 LINE",
"415.362 71.72 OFFCURVE",
"446.183 93.319 OFFCURVE",
"497.647 118.615 CURVE SMOOTH",
"555.343 147.987 OFFCURVE",
"584 180.703 OFFCURVE",
"584 218 CURVE",
"578 218 LINE",
"578 219 OFFCURVE",
"578 219 OFFCURVE",
"578 220 CURVE",
"584 220 LINE",
"584 307.21 OFFCURVE",
"532.052 326 OFFCURVE",
"443 326 CURVE SMOOTH",
"413 326 LINE SMOOTH",
"359.27 326 OFFCURVE",
"317 288.688 OFFCURVE",
"317 241 CURVE SMOOTH",
"317 219.465 OFFCURVE",
"335.411 202 OFFCURVE",
"358 202 CURVE SMOOTH",
"378.632 202 OFFCURVE",
"395 219.776 OFFCURVE",
"395 242 CURVE SMOOTH",
"395 247.81 OFFCURVE",
"401.363 251 OFFCURVE",
"417 251 CURVE SMOOTH",
"443 251 LINE SMOOTH",
"473.893 251 OFFCURVE",
"492.92 248.914 OFFCURVE",
"500.563 245.517 CURVE",
"505.937 242.823 OFFCURVE",
"509 234.569 OFFCURVE",
"509 220 CURVE SMOOTH",
"509 210.61 OFFCURVE",
"492.166 197.938 OFFCURVE",
"444.259 173.337 CURVE SMOOTH",
"425.143 164.286 OFFCURVE",
"406.834 153.097 OFFCURVE",
"387.796 141.073 CURVE SMOOTH",
"343.911 112.607 OFFCURVE",
"317 67.02 OFFCURVE",
"317 21 CURVE SMOOTH",
"317 -22 LINE",
"541 -22 LINE SMOOTH"
);
},
{
closed = 1;
nodes = (
"152 317.965 OFFCURVE",
"165.109 303 OFFCURVE",
"190 303 CURVE SMOOTH",
"214.891 303 OFFCURVE",
"228 317.965 OFFCURVE",
"228 346 CURVE SMOOTH",
"228 617 LINE SMOOTH",
"228 639.814 OFFCURVE",
"210.36 657 OFFCURVE",
"187 657 CURVE SMOOTH",
"176.78 657 OFFCURVE",
"166.382 651.816 OFFCURVE",
"155.986 642.46 CURVE",
"106.673 591.157 LINE SMOOTH",
"95.934 580.419 OFFCURVE",
"90 570.016 OFFCURVE",
"90 560 CURVE SMOOTH",
"90 538.504 OFFCURVE",
"105.504 523 OFFCURVE",
"127 523 CURVE SMOOTH",
"135.56 523 OFFCURVE",
"143.799 526.049 OFFCURVE",
"152 531.94 CURVE",
"152 346 LINE SMOOTH"
);
},
{
closed = 1;
nodes = (
"525.668 495.328 OFFCURVE",
"531 506.682 OFFCURVE",
"531 519 CURVE SMOOTH",
"531 541.953 OFFCURVE",
"517.173 555 OFFCURVE",
"493 555 CURVE SMOOTH",
"482.297 555 OFFCURVE",
"471 549.371 OFFCURVE",
"459.986 539.46 CURVE",
"48.757 128.243 LINE",
"38.332 116.672 OFFCURVE",
"33 105.318 OFFCURVE",
"33 93 CURVE SMOOTH",
"33 70.047 OFFCURVE",
"46.827 57 OFFCURVE",
"71 57 CURVE SMOOTH",
"81.703 57 OFFCURVE",
"93 62.629 OFFCURVE",
"104.014 72.54 CURVE",
"515.243 483.757 LINE"
);
}
);
width = 631;
}
);
note = onehalf;
rightKerningGroup = numbersign;
unicode = 00BD;
},
{
glyphname = threequarters;
lastChange = "2016-07-31 02:36:39 +0000";
layers = (
{
layerId = "AE6579ED-DC47-4075-A6A3-4B1A21099458";
paths = (
{
closed = 1;
nodes = (
"569 79 LINE",
"569 85 LINE",
"570 85 OFFCURVE",
"570 85 OFFCURVE",
"571 85 CURVE",
"571 79 LINE",
"597.439 79 OFFCURVE",
"611 91.469 OFFCURVE",
"611 116 CURVE SMOOTH",
"611 140.726 OFFCURVE",
"596.224 154 OFFCURVE",
"569 154 CURVE SMOOTH",
"541 154 LINE",
"541 326 LINE",
"461.989 326 LINE",
"333 152.991 LINE",
"333 79 LINE",
"465 79 LINE",
"465 18 LINE SMOOTH",
"465 -10.035 OFFCURVE",
"478.109 -25 OFFCURVE",
"503 -25 CURVE SMOOTH",
"527.891 -25 OFFCURVE",
"541 -10.035 OFFCURVE",
"541 18 CURVE SMOOTH",
"541 79 LINE"
);
},
{
closed = 1;
nodes = (
"465 207.876 LINE",
"465 154 LINE",
"424.939 154 LINE"
);
},
{
closed = 1;
nodes = (
"237 542.556 OFFCURVE",
"203.105 524 OFFCURVE",
"172 524 CURVE SMOOTH",
"145.226 524 OFFCURVE",
"127 509.618 OFFCURVE",
"127 488 CURVE SMOOTH",
"127 463.926 OFFCURVE",
"143.558 449 OFFCURVE",
"170 449 CURVE SMOOTH",
"197.203 449 OFFCURVE",
"237 425.419 OFFCURVE",
"237 410 CURVE SMOOTH",
"237 395.209 OFFCURVE",
"230.516 387.478 OFFCURVE",
"215.957 384.909 CURVE SMOOTH",
"211.406 384 OFFCURVE",
"206 384 OFFCURVE",
"198 384 CURVE SMOOTH",
"194 384 OFFCURVE",
"189.66 384 OFFCURVE",
"184 384 CURVE SMOOTH",
"154.991 384 OFFCURVE",
"138.266 388.226 OFFCURVE",
"133.887 395.664 CURVE",
"132.001 415.229 OFFCURVE",
"115.381 430 OFFCURVE",
"95 430 CURVE SMOOTH",
"72.209 430 OFFCURVE",
"56 415.114 OFFCURVE",
"56 394 CURVE SMOOTH",
"56 347.315 OFFCURVE",
"111.425 309 OFFCURVE",
"178 309 CURVE SMOOTH",
"247.463 309 OFFCURVE",
"311 318.859 OFFCURVE",
"311 409 CURVE SMOOTH",
"311 438.429 OFFCURVE",
"296.486 464.467 OFFCURVE",
"268.816 486.39 CURVE",
"296.806 503.958 OFFCURVE",
"311 526.231 OFFCURVE",
"311 553 CURVE SMOOTH",
"311 629.767 OFFCURVE",
"274.811 657 OFFCURVE",
"174 657 CURVE SMOOTH",
"110.899 657 OFFCURVE",
"56 617.732 OFFCURVE",
"56 572 CURVE SMOOTH",
"56 550.886 OFFCURVE",
"72.209 536 OFFCURVE",
"95 536 CURVE SMOOTH",
"117.293 536 OFFCURVE",
"134 549.862 OFFCURVE",
"134 570 CURVE",
"134.463 575.306 OFFCURVE",
"161.337 582 OFFCURVE",
"193 582 CURVE SMOOTH",
"227.07 582 OFFCURVE",
"237 576.494 OFFCURVE",
"237 559 CURVE SMOOTH"
);
},
{
closed = 1;
nodes = (
"579.668 495.328 OFFCURVE",
"585 506.682 OFFCURVE",
"585 519 CURVE SMOOTH",
"585 541.953 OFFCURVE",
"571.173 555 OFFCURVE",
"547 555 CURVE SMOOTH",
"536.297 555 OFFCURVE",
"525 549.371 OFFCURVE",
"513.986 539.46 CURVE",
"102.757 128.243 LINE",
"92.332 116.672 OFFCURVE",
"87 105.318 OFFCURVE",
"87 93 CURVE SMOOTH",
"87 70.047 OFFCURVE",
"100.827 57 OFFCURVE",
"125 57 CURVE SMOOTH",
"135.703 57 OFFCURVE",
"147 62.629 OFFCURVE",
"158.014 72.54 CURVE",
"569.243 483.757 LINE"
);
}
);
width = 650;
}
);
note = threequarters;
rightKerningGroup = numbersign;
unicode = 00BE;
},
{
glyphname = questiondown;
lastChange = "2016-07-31 02:36:39 +0000";
layers = (
{
layerId = "AE6579ED-DC47-4075-A6A3-4B1A21099458";
paths = (
{
closed = 1;
nodes = (
"222 420.295 OFFCURVE",
"254.755 393 OFFCURVE",
"290 393 CURVE SMOOTH",
"324.342 393 OFFCURVE",
"357 420.636 OFFCURVE",
"357 450 CURVE SMOOTH",
"357 479.603 OFFCURVE",
"324.125 507 OFFCURVE",
"289 507 CURVE SMOOTH",
"253.566 507 OFFCURVE",
"222 480.294 OFFCURVE",
"222 450 CURVE SMOOTH"
);
},
{
closed = 1;
nodes = (
"331 317.213 OFFCURVE",
"316.753 334 OFFCURVE",
"289 334 CURVE SMOOTH",
"261.247 334 OFFCURVE",
"247 317.213 OFFCURVE",
"247 285 CURVE SMOOTH",
"247 192.533 LINE",
"170.361 170.772 LINE SMOOTH",
"69.59 142.271 OFFCURVE",
"30 92.452 OFFCURVE",
"30 -6 CURVE SMOOTH",
"30 -118.298 OFFCURVE",
"98.852 -186 OFFCURVE",
"213 -186 CURVE SMOOTH",
"289 -186 LINE SMOOTH",
"368.732 -186 OFFCURVE",
"411.795 -177.074 OFFCURVE",
"453.191 -151.081 CURVE SMOOTH",
"496.242 -124.831 OFFCURVE",
"518 -71.086 OFFCURVE",
"518 8 CURVE SMOOTH",
"518 38.247 OFFCURVE",
"501.262 57 OFFCURVE",
"474 57 CURVE SMOOTH",
"450.234 57 OFFCURVE",
"433 35.55 OFFCURVE",
"433 8 CURVE SMOOTH",
"433 -85.605 OFFCURVE",
"410.98 -102 OFFCURVE",
"289 -102 CURVE SMOOTH",
"195 -102 LINE SMOOTH",
"146.774 -102 OFFCURVE",
"114 -62.496 OFFCURVE",
"114 -6 CURVE SMOOTH",
"114 37.563 OFFCURVE",
"134.2 74.659 OFFCURVE",
"161.596 82.216 CURVE SMOOTH",
"331 128.417 LINE",
"331 285 LINE SMOOTH"
);
}
);
width = 545;
}
);
note = questiondown;
rightKerningGroup = questiondown;
unicode = 00BF;
},
{
glyphname = Agrave;
lastChange = "2016-07-31 02:36:39 +0000";
layers = (
{
layerId = "AE6579ED-DC47-4075-A6A3-4B1A21099458";
paths = (
{
closed = 1;
nodes = (
"248.128 818.357 OFFCURVE",
"235.604 825 OFFCURVE",
"224 825 CURVE SMOOTH",
"201.65 825 OFFCURVE",
"181 805.986 OFFCURVE",
"181 784 CURVE SMOOTH",
"181 772.79 OFFCURVE",
"187.173 760.39 OFFCURVE",
"197.56 748.964 CURVE",
"266.788 680.727 LINE",
"277.855 668.54 OFFCURVE",
"289.417 662 OFFCURVE",
"302 662 CURVE SMOOTH",
"325.734 662 OFFCURVE",
"345 680.795 OFFCURVE",
"345 704 CURVE SMOOTH",
"345 714.703 OFFCURVE",
"339.371 726 OFFCURVE",
"329.46 737.014 CURVE",
"259.243 807.243 LINE SMOOTH"
);
},
{
closed = 1;
nodes = (
"21.421 39.207 LINE",
"18.97 31.883 OFFCURVE",
"18 22.979 OFFCURVE",
"18 14 CURVE SMOOTH",
"18 -5.37 OFFCURVE",
"37.567 -22 OFFCURVE",
"60 -22 CURVE SMOOTH",
"79.607 -22 OFFCURVE",
"93.619 -11.491 OFFCURVE",
"102.53 9.672 CURVE SMOOTH",
"170.101 183 LINE",
"439.899 183 LINE",
"507.41 9.821 LINE SMOOTH",
"515.022 -10.844 OFFCURVE",
"529.857 -22 OFFCURVE",
"550 -22 CURVE SMOOTH",
"572.433 -22 OFFCURVE",
"592 -5.37 OFFCURVE",
"592 14 CURVE SMOOTH",
"592 22.979 OFFCURVE",
"591.03 31.883 OFFCURVE",
"588.692 38.897 CURVE",
"350.079 642 LINE",
"259.921 642 LINE"
);
},
{
closed = 1;
nodes = (
"406.059 267 LINE",
"203.88 267 LINE",
"304.051 516.047 LINE"
);
}
);
width = 610;
}
);
leftKerningGroup = A;
note = Agrave;
rightKerningGroup = A;
unicode = 00C0;
},
{
glyphname = Aacute;
lastChange = "2016-07-31 02:36:39 +0000";
layers = (
{
layerId = "AE6579ED-DC47-4075-A6A3-4B1A21099458";
paths = (
{
closed = 1;
nodes = (
"260.356 736.799 LINE",
"249.91 724.032 OFFCURVE",
"245 714.204 OFFCURVE",
"245 704 CURVE SMOOTH",
"245 680.804 OFFCURVE",
"264.275 662 OFFCURVE",
"288 662 CURVE SMOOTH",
"300.583 662 OFFCURVE",
"312.145 668.54 OFFCURVE",
"323.44 680.964 CURVE",
"392.212 748.727 LINE",
"402.827 760.39 OFFCURVE",
"409 772.79 OFFCURVE",
"409 784 CURVE SMOOTH",
"409 805.482 OFFCURVE",
"387.821 825 OFFCURVE",
"366 825 CURVE SMOOTH",
"354.396 825 OFFCURVE",
"341.872 818.357 OFFCURVE",
"330.757 807.243 CURVE SMOOTH",
"260.757 737.243 LINE"
);
},
{
closed = 1;
nodes = (
"21.421 39.207 LINE",
"18.97 31.883 OFFCURVE",
"18 22.979 OFFCURVE",
"18 14 CURVE SMOOTH",
"18 -5.37 OFFCURVE",
"37.567 -22 OFFCURVE",
"60 -22 CURVE SMOOTH",
"79.607 -22 OFFCURVE",
"93.619 -11.491 OFFCURVE",
"102.53 9.672 CURVE SMOOTH",
"170.101 183 LINE",
"439.899 183 LINE",
"507.41 9.821 LINE SMOOTH",
"515.022 -10.844 OFFCURVE",
"529.857 -22 OFFCURVE",
"550 -22 CURVE SMOOTH",
"572.433 -22 OFFCURVE",
"592 -5.37 OFFCURVE",
"592 14 CURVE SMOOTH",
"592 22.979 OFFCURVE",
"591.03 31.883 OFFCURVE",
"588.692 38.897 CURVE",
"350.079 642 LINE",
"259.921 642 LINE"
);
},
{
closed = 1;
nodes = (
"406.059 267 LINE",
"203.88 267 LINE",
"304.051 516.047 LINE"
);
}
);
width = 610;
}
);
leftKerningGroup = A;
note = Aacute;
rightKerningGroup = A;
unicode = 00C1;
},
{
glyphname = Acircumflex;
lastChange = "2016-07-31 02:36:39 +0000";
layers = (
{
layerId = "AE6579ED-DC47-4075-A6A3-4B1A21099458";
paths = (
{
closed = 1;
nodes = (
"157.118 706.487 LINE",
"150.881 697.756 OFFCURVE",
"148 688.451 OFFCURVE",
"148 679 CURVE SMOOTH",
"148 656.562 OFFCURVE",
"161.408 645 OFFCURVE",
"187 645 CURVE SMOOTH",
"197.099 645 OFFCURVE",
"206.115 647.241 OFFCURVE",
"212.314 651.975 CURVE",
"215.375 653.767 OFFCURVE",
"217.387 656.902 OFFCURVE",
"220.243 659.757 CURVE SMOOTH",
"223.021 662.536 OFFCURVE",
"224.554 663.069 OFFCURVE",
"226.243 664.757 CURVE",
"225.836 664.386 LINE",
"305.023 730.216 LINE",
"385.192 664.364 LINE SMOOTH",
"393.149 657.397 OFFCURVE",
"397.992 653.522 OFFCURVE",
"400.757 650.757 CURVE SMOOTH",
"405.132 646.383 OFFCURVE",
"412.132 645 OFFCURVE",
"424 645 CURVE SMOOTH",
"449.592 645 OFFCURVE",
"463 656.562 OFFCURVE",
"463 679 CURVE SMOOTH",
"463 688.451 OFFCURVE",
"460.119 697.756 OFFCURVE",
"453.882 706.487 CURVE",
"453.335 707.148 LINE",
"340.563 825 LINE",
"268.405 825 LINE",
"157.627 707.109 LINE"
);
},
{
closed = 1;
nodes = (
"21.421 39.207 LINE",
"18.97 31.883 OFFCURVE",
"18 22.979 OFFCURVE",
"18 14 CURVE SMOOTH",
"18 -5.37 OFFCURVE",
"37.567 -22 OFFCURVE",
"60 -22 CURVE SMOOTH",
"79.607 -22 OFFCURVE",
"93.619 -11.491 OFFCURVE",
"102.53 9.672 CURVE SMOOTH",
"170.101 183 LINE",
"439.899 183 LINE",
"507.41 9.821 LINE SMOOTH",
"515.022 -10.844 OFFCURVE",
"529.857 -22 OFFCURVE",
"550 -22 CURVE SMOOTH",
"572.433 -22 OFFCURVE",
"592 -5.37 OFFCURVE",
"592 14 CURVE SMOOTH",
"592 22.979 OFFCURVE",
"591.03 31.883 OFFCURVE",
"588.692 38.897 CURVE",
"350.079 642 LINE",
"259.921 642 LINE"
);
},
{
closed = 1;
nodes = (
"406.059 267 LINE",
"203.88 267 LINE",
"304.051 516.047 LINE"
);
}
);
width = 610;
}
);
leftKerningGroup = A;
note = Acircumflex;
rightKerningGroup = A;
unicode = 00C2;
},
{
glyphname = Atilde;
lastChange = "2016-07-31 02:36:39 +0000";
layers = (
{
layerId = "AE6579ED-DC47-4075-A6A3-4B1A21099458";
paths = (
{
closed = 1;
nodes = (
"351.263 686.921 OFFCURVE",
"359.584 685 OFFCURVE",
"367 685 CURVE SMOOTH",
"375.491 685 OFFCURVE",
"385.339 689.313 OFFCURVE",
"396.441 697.085 CURVE",
"396.922 697.459 LINE",
"440.922 735.459 LINE",
"453.127 744.595 OFFCURVE",
"460.772 757.011 OFFCURVE",
"461.979 771.502 CURVE",
"462 796.544 OFFCURVE",
"443.665 814 OFFCURVE",
"418 814 CURVE SMOOTH",
"407.172 814 OFFCURVE",
"396.626 809.112 OFFCURVE",
"388.757 801.243 CURVE",
"359.07 775.534 LINE",
"356.584 773.069 OFFCURVE",
"355.97 774 OFFCURVE",
"358 774 CURVE SMOOTH",
"359.354 774 OFFCURVE",
"358.938 773.739 OFFCURVE",
"355.683 775.367 CURVE",
"355.128 775.61 LINE",
"268.128 808.61 LINE SMOOTH",
"257.994 812.41 OFFCURVE",
"249.776 814 OFFCURVE",
"242 814 CURVE SMOOTH",
"232.754 814 OFFCURVE",
"223.799 809.889 OFFCURVE",
"213.316 801.736 CURVE",
"168.129 763.584 LINE SMOOTH",
"155.344 752.931 OFFCURVE",
"148 740.253 OFFCURVE",
"148 727 CURVE SMOOTH",
"148 702.97 OFFCURVE",
"166.873 685 OFFCURVE",
"192 685 CURVE SMOOTH",
"202.828 685 OFFCURVE",
"213.374 689.888 OFFCURVE",
"221.243 697.757 CURVE",
"250.005 723.533 LINE",
"252.416 725.931 OFFCURVE",
"253.03 725 OFFCURVE",
"251 725 CURVE SMOOTH",
"248.931 725 OFFCURVE",
"251.02 724.669 OFFCURVE",
"255.103 723.308 CURVE",
"340.85 690.398 LINE"
);
},
{
closed = 1;
nodes = (
"21.421 39.207 LINE",
"18.97 31.883 OFFCURVE",
"18 22.979 OFFCURVE",
"18 14 CURVE SMOOTH",
"18 -5.37 OFFCURVE",
"37.567 -22 OFFCURVE",
"60 -22 CURVE SMOOTH",
"79.607 -22 OFFCURVE",
"93.619 -11.491 OFFCURVE",
"102.53 9.672 CURVE SMOOTH",
"170.101 183 LINE",
"439.899 183 LINE",
"507.41 9.821 LINE SMOOTH",
"515.022 -10.844 OFFCURVE",
"529.857 -22 OFFCURVE",
"550 -22 CURVE SMOOTH",
"572.433 -22 OFFCURVE",
"592 -5.37 OFFCURVE",
"592 14 CURVE SMOOTH",
"592 22.979 OFFCURVE",
"591.03 31.883 OFFCURVE",
"588.692 38.897 CURVE",
"350.079 642 LINE",
"259.921 642 LINE"
);
},
{
closed = 1;
nodes = (
"406.059 267 LINE",
"203.88 267 LINE",
"304.051 516.047 LINE"
);
}
);
width = 610;
}
);
leftKerningGroup = A;
note = Atilde;
rightKerningGroup = A;
unicode = 00C3;
},
{
glyphname = Adieresis;
lastChange = "2016-07-31 02:36:39 +0000";
layers = (
{
layerId = "AE6579ED-DC47-4075-A6A3-4B1A21099458";
paths = (
{
closed = 1;
nodes = (
"287 786.364 OFFCURVE",
"254.342 814 OFFCURVE",
"220 814 CURVE SMOOTH",
"185.658 814 OFFCURVE",
"153 786.364 OFFCURVE",
"153 757 CURVE SMOOTH",
"153 727.033 OFFCURVE",
"184.458 700 OFFCURVE",
"219 700 CURVE SMOOTH",
"254.125 700 OFFCURVE",
"287 727.397 OFFCURVE",
"287 757 CURVE SMOOTH"
);
},
{
closed = 1;
nodes = (
"457 786.364 OFFCURVE",
"424.342 814 OFFCURVE",
"390 814 CURVE SMOOTH",
"355.658 814 OFFCURVE",
"323 786.364 OFFCURVE",
"323 757 CURVE SMOOTH",
"323 727.033 OFFCURVE",
"354.458 700 OFFCURVE",
"389 700 CURVE SMOOTH",
"424.125 700 OFFCURVE",
"457 727.397 OFFCURVE",
"457 757 CURVE SMOOTH"
);
},
{
closed = 1;
nodes = (
"21.421 39.207 LINE",
"18.97 31.883 OFFCURVE",
"18 22.979 OFFCURVE",
"18 14 CURVE SMOOTH",
"18 -5.37 OFFCURVE",
"37.567 -22 OFFCURVE",
"60 -22 CURVE SMOOTH",
"79.607 -22 OFFCURVE",
"93.619 -11.491 OFFCURVE",
"102.53 9.672 CURVE SMOOTH",
"170.101 183 LINE",
"439.899 183 LINE",
"507.41 9.821 LINE SMOOTH",
"515.022 -10.844 OFFCURVE",
"529.857 -22 OFFCURVE",
"550 -22 CURVE SMOOTH",
"572.433 -22 OFFCURVE",
"592 -5.37 OFFCURVE",
"592 14 CURVE SMOOTH",
"592 22.979 OFFCURVE",
"591.03 31.883 OFFCURVE",
"588.692 38.897 CURVE",
"350.079 642 LINE",
"259.921 642 LINE"
);
},
{
closed = 1;
nodes = (
"406.059 267 LINE",
"203.88 267 LINE",
"304.051 516.047 LINE"
);
}
);
width = 610;
}
);
leftKerningGroup = A;
note = Adieresis;
rightKerningGroup = A;
unicode = 00C4;
},
{
glyphname = Aring;
lastChange = "2016-07-31 02:36:39 +0000";
layers = (
{
layerId = "AE6579ED-DC47-4075-A6A3-4B1A21099458";
paths = (
{
closed = 1;
nodes = (
"292.387 757 OFFCURVE",
"298.1 759 OFFCURVE",
"305 759 CURVE SMOOTH",
"319.518 759 OFFCURVE",
"332 747.178 OFFCURVE",
"332 732 CURVE SMOOTH",
"332 716.822 OFFCURVE",
"319.518 705 OFFCURVE",
"305 705 CURVE SMOOTH",
"290.482 705 OFFCURVE",
"278 716.822 OFFCURVE",
"278 732 CURVE SMOOTH",
"278 739.543 OFFCURVE",
"280.37 745.885 OFFCURVE",
"286.243 751.757 CURVE"
);
},
{
closed = 1;
nodes = (
"221.75 780.235 OFFCURVE",
"212 757.627 OFFCURVE",
"212 732 CURVE SMOOTH",
"212 680.521 OFFCURVE",
"254.181 639 OFFCURVE",
"305 639 CURVE SMOOTH",
"356.479 639 OFFCURVE",
"398 681.181 OFFCURVE",
"398 732 CURVE SMOOTH",
"398 783.479 OFFCURVE",
"355.819 825 OFFCURVE",
"305 825 CURVE SMOOTH",
"279.57 825 OFFCURVE",
"257.904 816.39 OFFCURVE",
"239.757 798.243 CURVE SMOOTH"
);
},
{
closed = 1;
nodes = (
"21.421 39.207 LINE",
"18.97 31.883 OFFCURVE",
"18 22.979 OFFCURVE",
"18 14 CURVE SMOOTH",
"18 -5.37 OFFCURVE",
"37.567 -22 OFFCURVE",
"60 -22 CURVE SMOOTH",
"79.607 -22 OFFCURVE",
"93.619 -11.491 OFFCURVE",
"102.53 9.672 CURVE SMOOTH",
"170.101 183 LINE",
"439.899 183 LINE",
"507.41 9.821 LINE SMOOTH",
"515.022 -10.844 OFFCURVE",
"529.857 -22 OFFCURVE",
"550 -22 CURVE SMOOTH",
"572.433 -22 OFFCURVE",
"592 -5.37 OFFCURVE",
"592 14 CURVE SMOOTH",
"592 22.979 OFFCURVE",
"591.03 31.883 OFFCURVE",
"588.692 38.897 CURVE",
"350.079 642 LINE",
"259.921 642 LINE"
);
},
{
closed = 1;
nodes = (
"406.059 267 LINE",
"203.88 267 LINE",
"304.051 516.047 LINE"
);
}
);
width = 610;
}
);
leftKerningGroup = A;
note = Aring;
rightKerningGroup = A;
unicode = 00C5;
},
{
glyphname = AE;
lastChange = "2016-07-31 02:36:39 +0000";
layers = (
{
layerId = "AE6579ED-DC47-4075-A6A3-4B1A21099458";
paths = (
{
closed = 1;
nodes = (
"726.921 311 OFFCURVE",
"746 324.387 OFFCURVE",
"746 351 CURVE SMOOTH",
"746 379.826 OFFCURVE",
"727.152 395 OFFCURVE",
"692 395 CURVE SMOOTH",
"488 395 LINE",
"488 563 LINE",
"813 563 LINE SMOOTH",
"845.091 563 OFFCURVE",
"863 576.601 OFFCURVE",
"863 603 CURVE SMOOTH",
"863 631.608 OFFCURVE",
"845.374 647 OFFCURVE",
"813 647 CURVE SMOOTH",
"442 647 LINE SMOOTH",
"428.44 647 OFFCURVE",
"417.43 641.183 OFFCURVE",
"409.264 630.684 CURVE",
"15.016 42.34 LINE",
"7.981 33.32 OFFCURVE",
"4 23.135 OFFCURVE",
"4 12 CURVE SMOOTH",
"4 -6.683 OFFCURVE",
"20.276 -22 OFFCURVE",
"40 -22 CURVE SMOOTH",
"57.452 -22 OFFCURVE",
"73.32 -11.337 OFFCURVE",
"85.992 7.672 CURVE SMOOTH",
"204.14 178 LINE",
"402 178 LINE",
"402 44 LINE SMOOTH",
"402 11.909 OFFCURVE",
"415.601 -6 OFFCURVE",
"442 -6 CURVE SMOOTH",
"813 -6 LINE SMOOTH",
"845.091 -6 OFFCURVE",
"863 7.601 OFFCURVE",
"863 34 CURVE SMOOTH",
"863 62.608 OFFCURVE",
"845.374 78 OFFCURVE",
"813 78 CURVE SMOOTH",
"488 78 LINE",
"488 311 LINE",
"692 311 LINE SMOOTH"
);
},
{
closed = 1;
nodes = (
"260.224 262 LINE",
"402 474.218 LINE",
"402 262 LINE"
);
}
);
width = 904;
}
);
leftKerningGroup = AE;
note = AE;
rightKerningGroup = E;
unicode = 00C6;
},
{
glyphname = Ccedilla;
lastChange = "2016-07-31 02:36:39 +0000";
layers = (
{
layerId = "AE6579ED-DC47-4075-A6A3-4B1A21099458";
paths = (
{
closed = 1;
nodes = (
"295.038 -44.506 OFFCURVE",
"325.274 -74.377 OFFCURVE",
"346.779 -88.062 CURVE SMOOTH",
"353.03 -92.04 OFFCURVE",
"360 -97.801 OFFCURVE",
"360 -98 CURVE SMOOTH",
"360 -102.751 OFFCURVE",
"358.886 -107.822 OFFCURVE",
"356.544 -111.41 CURVE",
"355.384 -115.299 OFFCURVE",
"351.728 -117 OFFCURVE",
"336 -117 CURVE SMOOTH",
"331.016 -117 OFFCURVE",
"321.723 -114.116 OFFCURVE",
"305.537 -106.563 CURVE SMOOTH",
"290.362 -99.481 OFFCURVE",
"278.309 -96 OFFCURVE",
"270 -96 CURVE SMOOTH",
"248.783 -96 OFFCURVE",
"237 -109.719 OFFCURVE",
"237 -134 CURVE SMOOTH",
"237 -167.324 OFFCURVE",
"280.637 -196 OFFCURVE",
"332 -196 CURVE SMOOTH",
"396.657 -196 OFFCURVE",
"444 -155.131 OFFCURVE",
"444 -99 CURVE SMOOTH",
"444 -60.217 OFFCURVE",
"415.659 -36.237 OFFCURVE",
"392.426 -20.075 CURVE SMOOTH",
"384.731 -14.943 OFFCURVE",
"379.929 -10.349 OFFCURVE",
"377.327 -6 CURVE",
"465 -6 LINE SMOOTH",
"544.43 -6 OFFCURVE",
"581 32.857 OFFCURVE",
"581 117 CURVE SMOOTH",
"581 152.858 OFFCURVE",
"566.637 173 OFFCURVE",
"539 173 CURVE SMOOTH",
"512.168 173 OFFCURVE",
"497 153.984 OFFCURVE",
"497 121 CURVE SMOOTH",
"497 86.817 OFFCURVE",
"488.91 78 OFFCURVE",
"458 78 CURVE SMOOTH",
"324 78 LINE SMOOTH",
"173.803 78 OFFCURVE",
"149 93.687 OFFCURVE",
"149 186 CURVE SMOOTH",
"149 450 LINE SMOOTH",
"149 541.146 OFFCURVE",
"174.01 558 OFFCURVE",
"306 558 CURVE SMOOTH",
"458 558 LINE SMOOTH",
"488.815 558 OFFCURVE",
"497 549.261 OFFCURVE",
"497 516 CURVE SMOOTH",
"497 482.269 OFFCURVE",
"512.063 463 OFFCURVE",
"539 463 CURVE SMOOTH",
"566.637 463 OFFCURVE",
"581 483.142 OFFCURVE",
"581 519 CURVE SMOOTH",
"581 602.648 OFFCURVE",
"543.963 642 OFFCURVE",
"465 642 CURVE SMOOTH",
"306 642 LINE SMOOTH",
"129.834 642 OFFCURVE",
"65 591.687 OFFCURVE",
"65 452 CURVE SMOOTH",
"65 184 LINE SMOOTH",
"65 49.032 OFFCURVE",
"125.327 -1.678 OFFCURVE",
"291.349 -5.877 CURVE"
);
}
);
width = 631;
}
);
leftKerningGroup = C;
note = Ccedilla;
rightKerningGroup = C;
unicode = 00C7;
},
{
glyphname = Egrave;
lastChange = "2016-07-31 02:36:39 +0000";
layers = (
{
layerId = "AE6579ED-DC47-4075-A6A3-4B1A21099458";
paths = (
{
closed = 1;
nodes = (
"275.128 818.357 OFFCURVE",
"262.604 825 OFFCURVE",
"251 825 CURVE SMOOTH",
"228.65 825 OFFCURVE",
"208 805.986 OFFCURVE",
"208 784 CURVE SMOOTH",
"208 772.79 OFFCURVE",
"214.173 760.39 OFFCURVE",
"224.56 748.964 CURVE",
"293.788 680.727 LINE",
"304.855 668.54 OFFCURVE",
"316.417 662 OFFCURVE",
"329 662 CURVE SMOOTH",
"352.734 662 OFFCURVE",
"372 680.795 OFFCURVE",
"372 704 CURVE SMOOTH",
"372 714.703 OFFCURVE",
"366.371 726 OFFCURVE",
"356.46 737.014 CURVE",
"286.243 807.243 LINE SMOOTH"
);
},
{
closed = 1;
nodes = (
"457.104 316 OFFCURVE",
"477 329.456 OFFCURVE",
"477 356 CURVE SMOOTH",
"477 384.738 OFFCURVE",
"457.305 400 OFFCURVE",
"421 400 CURVE SMOOTH",
"162 400 LINE",
"162 558 LINE",
"544 558 LINE SMOOTH",
"576.091 558 OFFCURVE",
"594 571.601 OFFCURVE",
"594 598 CURVE SMOOTH",
"594 626.608 OFFCURVE",
"576.374 642 OFFCURVE",
"544 642 CURVE SMOOTH",
"118 642 LINE SMOOTH",
"91.601 642 OFFCURVE",
"78 624.091 OFFCURVE",
"78 592 CURVE SMOOTH",
"78 44 LINE SMOOTH",
"78 11.909 OFFCURVE",
"91.601 -6 OFFCURVE",
"118 -6 CURVE SMOOTH",
"544 -6 LINE SMOOTH",
"576.091 -6 OFFCURVE",
"594 7.601 OFFCURVE",
"594 34 CURVE SMOOTH",
"594 62.608 OFFCURVE",
"576.374 78 OFFCURVE",
"544 78 CURVE SMOOTH",
"162 78 LINE",
"162 316 LINE",
"421 316 LINE SMOOTH"
);
}
);
width = 636;
}
);
leftKerningGroup = B;
note = Egrave;
rightKerningGroup = E;
unicode = 00C8;
},
{
glyphname = Eacute;
lastChange = "2016-07-31 02:36:39 +0000";
layers = (
{
layerId = "AE6579ED-DC47-4075-A6A3-4B1A21099458";
paths = (
{
closed = 1;
nodes = (
"274.356 736.799 LINE",
"263.91 724.032 OFFCURVE",
"259 714.204 OFFCURVE",
"259 704 CURVE SMOOTH",
"259 680.804 OFFCURVE",
"278.275 662 OFFCURVE",
"302 662 CURVE SMOOTH",
"314.583 662 OFFCURVE",
"326.145 668.54 OFFCURVE",
"337.44 680.964 CURVE",
"406.212 748.727 LINE",
"416.827 760.39 OFFCURVE",
"423 772.79 OFFCURVE",
"423 784 CURVE SMOOTH",
"423 805.482 OFFCURVE",
"401.821 825 OFFCURVE",
"380 825 CURVE SMOOTH",
"368.396 825 OFFCURVE",
"355.872 818.357 OFFCURVE",
"344.757 807.243 CURVE SMOOTH",
"274.757 737.243 LINE"
);
},
{
closed = 1;
nodes = (
"457.104 316 OFFCURVE",
"477 329.456 OFFCURVE",
"477 356 CURVE SMOOTH",
"477 384.738 OFFCURVE",
"457.305 400 OFFCURVE",
"421 400 CURVE SMOOTH",
"162 400 LINE",
"162 558 LINE",
"544 558 LINE SMOOTH",
"576.091 558 OFFCURVE",
"594 571.601 OFFCURVE",
"594 598 CURVE SMOOTH",
"594 626.608 OFFCURVE",
"576.374 642 OFFCURVE",
"544 642 CURVE SMOOTH",
"118 642 LINE SMOOTH",
"91.601 642 OFFCURVE",
"78 624.091 OFFCURVE",
"78 592 CURVE SMOOTH",
"78 44 LINE SMOOTH",
"78 11.909 OFFCURVE",
"91.601 -6 OFFCURVE",
"118 -6 CURVE SMOOTH",
"544 -6 LINE SMOOTH",
"576.091 -6 OFFCURVE",
"594 7.601 OFFCURVE",
"594 34 CURVE SMOOTH",
"594 62.608 OFFCURVE",
"576.374 78 OFFCURVE",
"544 78 CURVE SMOOTH",
"162 78 LINE",
"162 316 LINE",
"421 316 LINE SMOOTH"
);
}
);
width = 636;
}
);
leftKerningGroup = B;
note = Eacute;
rightKerningGroup = E;
unicode = 00C9;
},
{
glyphname = Ecircumflex;
lastChange = "2016-07-31 02:36:39 +0000";
layers = (
{
layerId = "AE6579ED-DC47-4075-A6A3-4B1A21099458";
paths = (
{
closed = 1;
nodes = (
"183.118 706.487 LINE",
"176.881 697.756 OFFCURVE",
"174 688.451 OFFCURVE",
"174 679 CURVE SMOOTH",
"174 656.562 OFFCURVE",
"187.408 645 OFFCURVE",
"213 645 CURVE SMOOTH",
"223.099 645 OFFCURVE",
"232.115 647.241 OFFCURVE",
"238.314 651.975 CURVE",
"241.375 653.767 OFFCURVE",
"243.387 656.902 OFFCURVE",
"246.243 659.757 CURVE SMOOTH",
"249.021 662.536 OFFCURVE",
"250.554 663.069 OFFCURVE",
"252.243 664.757 CURVE",
"251.836 664.386 LINE",
"331.023 730.216 LINE",
"411.192 664.364 LINE SMOOTH",
"419.149 657.397 OFFCURVE",
"423.992 653.522 OFFCURVE",
"426.757 650.757 CURVE SMOOTH",
"431.132 646.383 OFFCURVE",
"438.132 645 OFFCURVE",
"450 645 CURVE SMOOTH",
"475.592 645 OFFCURVE",
"489 656.562 OFFCURVE",
"489 679 CURVE SMOOTH",
"489 688.451 OFFCURVE",
"486.119 697.756 OFFCURVE",
"479.882 706.487 CURVE",
"479.335 707.148 LINE",
"366.563 825 LINE",
"294.405 825 LINE",
"183.627 707.109 LINE"
);
},
{
closed = 1;
nodes = (
"457.104 316 OFFCURVE",
"477 329.456 OFFCURVE",
"477 356 CURVE SMOOTH",
"477 384.738 OFFCURVE",
"457.305 400 OFFCURVE",
"421 400 CURVE SMOOTH",
"162 400 LINE",
"162 558 LINE",
"544 558 LINE SMOOTH",
"576.091 558 OFFCURVE",
"594 571.601 OFFCURVE",
"594 598 CURVE SMOOTH",
"594 626.608 OFFCURVE",
"576.374 642 OFFCURVE",
"544 642 CURVE SMOOTH",
"118 642 LINE SMOOTH",
"91.601 642 OFFCURVE",
"78 624.091 OFFCURVE",
"78 592 CURVE SMOOTH",
"78 44 LINE SMOOTH",
"78 11.909 OFFCURVE",
"91.601 -6 OFFCURVE",
"118 -6 CURVE SMOOTH",
"544 -6 LINE SMOOTH",
"576.091 -6 OFFCURVE",
"594 7.601 OFFCURVE",
"594 34 CURVE SMOOTH",
"594 62.608 OFFCURVE",
"576.374 78 OFFCURVE",
"544 78 CURVE SMOOTH",
"162 78 LINE",
"162 316 LINE",
"421 316 LINE SMOOTH"
);
}
);
width = 636;
}
);
leftKerningGroup = B;
note = Ecircumflex;
rightKerningGroup = E;
unicode = 00CA;
},
{
glyphname = Edieresis;
lastChange = "2016-07-31 02:36:39 +0000";
layers = (
{
layerId = "AE6579ED-DC47-4075-A6A3-4B1A21099458";
paths = (
{
closed = 1;
nodes = (
"313 786.364 OFFCURVE",
"280.342 814 OFFCURVE",
"246 814 CURVE SMOOTH",
"211.658 814 OFFCURVE",
"179 786.364 OFFCURVE",
"179 757 CURVE SMOOTH",
"179 727.033 OFFCURVE",
"210.458 700 OFFCURVE",
"245 700 CURVE SMOOTH",
"280.125 700 OFFCURVE",
"313 727.397 OFFCURVE",
"313 757 CURVE SMOOTH"
);
},
{
closed = 1;
nodes = (
"483 786.364 OFFCURVE",
"450.342 814 OFFCURVE",
"416 814 CURVE SMOOTH",
"381.658 814 OFFCURVE",
"349 786.364 OFFCURVE",
"349 757 CURVE SMOOTH",
"349 727.033 OFFCURVE",
"380.458 700 OFFCURVE",
"415 700 CURVE SMOOTH",
"450.125 700 OFFCURVE",
"483 727.397 OFFCURVE",
"483 757 CURVE SMOOTH"
);
},
{
closed = 1;
nodes = (
"457.104 316 OFFCURVE",
"477 329.456 OFFCURVE",
"477 356 CURVE SMOOTH",
"477 384.738 OFFCURVE",
"457.305 400 OFFCURVE",
"421 400 CURVE SMOOTH",
"162 400 LINE",
"162 558 LINE",
"544 558 LINE SMOOTH",
"576.091 558 OFFCURVE",
"594 571.601 OFFCURVE",
"594 598 CURVE SMOOTH",
"594 626.608 OFFCURVE",
"576.374 642 OFFCURVE",
"544 642 CURVE SMOOTH",
"118 642 LINE SMOOTH",
"91.601 642 OFFCURVE",
"78 624.091 OFFCURVE",
"78 592 CURVE SMOOTH",
"78 44 LINE SMOOTH",
"78 11.909 OFFCURVE",
"91.601 -6 OFFCURVE",
"118 -6 CURVE SMOOTH",
"544 -6 LINE SMOOTH",
"576.091 -6 OFFCURVE",
"594 7.601 OFFCURVE",
"594 34 CURVE SMOOTH",
"594 62.608 OFFCURVE",
"576.374 78 OFFCURVE",
"544 78 CURVE SMOOTH",
"162 78 LINE",
"162 316 LINE",
"421 316 LINE SMOOTH"
);
}
);
width = 636;
}
);
leftKerningGroup = B;
note = Edieresis;
rightKerningGroup = E;
unicode = 00CB;
},
{
glyphname = Igrave;
lastChange = "2016-07-31 02:36:39 +0000";
layers = (
{
layerId = "AE6579ED-DC47-4075-A6A3-4B1A21099458";
paths = (
{
closed = 1;
nodes = (
"65.128 818.357 OFFCURVE",
"52.604 825 OFFCURVE",
"41 825 CURVE SMOOTH",
"18.65 825 OFFCURVE",
"-2 805.986 OFFCURVE",
"-2 784 CURVE SMOOTH",
"-2 772.79 OFFCURVE",
"4.173 760.39 OFFCURVE",
"14.56 748.964 CURVE",
"83.788 680.727 LINE",
"94.855 668.54 OFFCURVE",
"106.417 662 OFFCURVE",
"119 662 CURVE SMOOTH",
"142.734 662 OFFCURVE",
"162 680.795 OFFCURVE",
"162 704 CURVE SMOOTH",
"162 714.703 OFFCURVE",
"156.371 726 OFFCURVE",
"146.46 737.014 CURVE",
"76.243 807.243 LINE SMOOTH"
);
},
{
closed = 1;
nodes = (
"162 632.576 OFFCURVE",
"147.429 649 OFFCURVE",
"120 649 CURVE SMOOTH",
"92.571 649 OFFCURVE",
"78 632.576 OFFCURVE",
"78 602 CURVE SMOOTH",
"78 33 LINE SMOOTH",
"78 2.752 OFFCURVE",
"92.296 -13 OFFCURVE",
"120 -13 CURVE SMOOTH",
"147.704 -13 OFFCURVE",
"162 2.752 OFFCURVE",
"162 33 CURVE SMOOTH",
"162 602 LINE SMOOTH"
);
}
);
width = 240;
}
);
leftKerningGroup = B;
note = Igrave;
rightKerningGroup = H;
unicode = 00CC;
},
{
glyphname = Iacute;
lastChange = "2016-07-31 02:36:39 +0000";
layers = (
{
layerId = "AE6579ED-DC47-4075-A6A3-4B1A21099458";
paths = (
{
closed = 1;
nodes = (
"94.356 736.799 LINE",
"83.91 724.032 OFFCURVE",
"79 714.204 OFFCURVE",
"79 704 CURVE SMOOTH",
"79 680.804 OFFCURVE",
"98.275 662 OFFCURVE",
"122 662 CURVE SMOOTH",
"134.583 662 OFFCURVE",
"146.145 668.54 OFFCURVE",
"157.44 680.964 CURVE",
"226.212 748.727 LINE",
"236.827 760.39 OFFCURVE",
"243 772.79 OFFCURVE",
"243 784 CURVE SMOOTH",
"243 805.482 OFFCURVE",
"221.821 825 OFFCURVE",
"200 825 CURVE SMOOTH",
"188.396 825 OFFCURVE",
"175.872 818.357 OFFCURVE",
"164.757 807.243 CURVE SMOOTH",
"94.757 737.243 LINE"
);
},
{
closed = 1;
nodes = (
"162 632.576 OFFCURVE",
"147.429 649 OFFCURVE",
"120 649 CURVE SMOOTH",
"92.571 649 OFFCURVE",
"78 632.576 OFFCURVE",
"78 602 CURVE SMOOTH",
"78 33 LINE SMOOTH",
"78 2.752 OFFCURVE",
"92.296 -13 OFFCURVE",
"120 -13 CURVE SMOOTH",
"147.704 -13 OFFCURVE",
"162 2.752 OFFCURVE",
"162 33 CURVE SMOOTH",
"162 602 LINE SMOOTH"
);
}
);
width = 240;
}
);
leftKerningGroup = B;
note = Iacute;
rightKerningGroup = H;
unicode = 00CD;
},
{
glyphname = Icircumflex;
lastChange = "2016-07-31 02:36:39 +0000";
layers = (
{
layerId = "AE6579ED-DC47-4075-A6A3-4B1A21099458";
paths = (
{
closed = 1;
nodes = (
"-26.882 706.487 LINE",
"-33.119 697.756 OFFCURVE",
"-36 688.451 OFFCURVE",
"-36 679 CURVE SMOOTH",
"-36 656.562 OFFCURVE",
"-22.592 645 OFFCURVE",
"3 645 CURVE SMOOTH",
"13.099 645 OFFCURVE",
"22.115 647.241 OFFCURVE",
"28.314 651.975 CURVE",
"31.375 653.767 OFFCURVE",
"33.387 656.902 OFFCURVE",
"36.243 659.757 CURVE SMOOTH",
"39.021 662.536 OFFCURVE",
"40.554 663.069 OFFCURVE",
"42.243 664.757 CURVE",
"41.836 664.386 LINE",
"121.023 730.216 LINE",
"201.192 664.364 LINE SMOOTH",
"209.149 657.397 OFFCURVE",
"213.992 653.522 OFFCURVE",
"216.757 650.757 CURVE SMOOTH",
"221.132 646.383 OFFCURVE",
"228.132 645 OFFCURVE",
"240 645 CURVE SMOOTH",
"265.592 645 OFFCURVE",
"279 656.562 OFFCURVE",
"279 679 CURVE SMOOTH",
"279 688.451 OFFCURVE",
"276.119 697.756 OFFCURVE",
"269.882 706.487 CURVE",
"269.335 707.148 LINE",
"156.563 825 LINE",
"84.405 825 LINE",
"-26.373 707.109 LINE"
);
},
{
closed = 1;
nodes = (
"162 632.576 OFFCURVE",
"147.429 649 OFFCURVE",
"120 649 CURVE SMOOTH",
"92.571 649 OFFCURVE",
"78 632.576 OFFCURVE",
"78 602 CURVE SMOOTH",
"78 33 LINE SMOOTH",
"78 2.752 OFFCURVE",
"92.296 -13 OFFCURVE",
"120 -13 CURVE SMOOTH",
"147.704 -13 OFFCURVE",
"162 2.752 OFFCURVE",
"162 33 CURVE SMOOTH",
"162 602 LINE SMOOTH"
);
}
);
width = 240;
}
);
leftKerningGroup = B;
note = Icircumflex;
rightKerningGroup = H;
unicode = 00CE;
},
{
glyphname = Idieresis;
lastChange = "2016-07-31 02:36:39 +0000";
layers = (
{
layerId = "AE6579ED-DC47-4075-A6A3-4B1A21099458";
paths = (
{
closed = 1;
nodes = (
"102 786.364 OFFCURVE",
"69.342 814 OFFCURVE",
"35 814 CURVE SMOOTH",
"0.658 814 OFFCURVE",
"-32 786.364 OFFCURVE",
"-32 757 CURVE SMOOTH",
"-32 727.033 OFFCURVE",
"-0.542 700 OFFCURVE",
"34 700 CURVE SMOOTH",
"69.125 700 OFFCURVE",
"102 727.397 OFFCURVE",
"102 757 CURVE SMOOTH"
);
},
{
closed = 1;
nodes = (
"272 786.364 OFFCURVE",
"239.342 814 OFFCURVE",
"205 814 CURVE SMOOTH",
"170.658 814 OFFCURVE",
"138 786.364 OFFCURVE",
"138 757 CURVE SMOOTH",
"138 727.033 OFFCURVE",
"169.458 700 OFFCURVE",
"204 700 CURVE SMOOTH",
"239.125 700 OFFCURVE",
"272 727.397 OFFCURVE",
"272 757 CURVE SMOOTH"
);
},
{
closed = 1;
nodes = (
"162 632.576 OFFCURVE",
"147.429 649 OFFCURVE",
"120 649 CURVE SMOOTH",
"92.571 649 OFFCURVE",
"78 632.576 OFFCURVE",
"78 602 CURVE SMOOTH",
"78 33 LINE SMOOTH",
"78 2.752 OFFCURVE",
"92.296 -13 OFFCURVE",
"120 -13 CURVE SMOOTH",
"147.704 -13 OFFCURVE",
"162 2.752 OFFCURVE",
"162 33 CURVE SMOOTH",
"162 602 LINE SMOOTH"
);
}
);
width = 240;
}
);
leftKerningGroup = B;
note = Idieresis;
rightKerningGroup = H;
unicode = 00CF;
},
{
glyphname = Eth;
lastChange = "2016-07-31 02:36:39 +0000";
layers = (
{
layerId = "AE6579ED-DC47-4075-A6A3-4B1A21099458";
paths = (
{
closed = 1;
nodes = (
"510 93.414 OFFCURVE",
"485.774 78 OFFCURVE",
"336 78 CURVE SMOOTH",
"162 78 LINE",
"162 282 LINE",
"240 282 LINE SMOOTH",
"269.739 282 OFFCURVE",
"290 298.86 OFFCURVE",
"290 324 CURVE SMOOTH",
"290 352.31 OFFCURVE",
"272.757 367 OFFCURVE",
"240 367 CURVE SMOOTH",
"162 367 LINE",
"162 558 LINE",
"354 558 LINE SMOOTH",
"485.567 558 OFFCURVE",
"510 541.439 OFFCURVE",
"510 450 CURVE SMOOTH",
"510 186 LINE SMOOTH"
);
},
{
closed = 1;
nodes = (
"594 591.108 OFFCURVE",
"529.453 642 OFFCURVE",
"354 642 CURVE SMOOTH",
"118 642 LINE SMOOTH",
"91.601 642 OFFCURVE",
"78 624.091 OFFCURVE",
"78 592 CURVE SMOOTH",
"78 366.793 LINE",
"51.389 364.911 OFFCURVE",
"36 350.244 OFFCURVE",
"36 326 CURVE SMOOTH",
"36 299.182 OFFCURVE",
"50.623 284.078 OFFCURVE",
"78 282.2 CURVE",
"78 44 LINE SMOOTH",
"78 11.909 OFFCURVE",
"91.601 -6 OFFCURVE",
"118 -6 CURVE SMOOTH",
"336 -6 LINE SMOOTH",
"527.474 -6 OFFCURVE",
"594 42.244 OFFCURVE",
"594 184 CURVE SMOOTH",
"594 452 LINE SMOOTH"
);
}
);
width = 659;
}
);
leftKerningGroup = B;
note = Eth;
rightKerningGroup = D;
unicode = 00D0;
},
{
glyphname = Ntilde;
lastChange = "2016-07-31 02:36:39 +0000";
layers = (
{
layerId = "AE6579ED-DC47-4075-A6A3-4B1A21099458";
paths = (
{
closed = 1;
nodes = (
"381.263 686.921 OFFCURVE",
"389.584 685 OFFCURVE",
"397 685 CURVE SMOOTH",
"405.491 685 OFFCURVE",
"415.339 689.313 OFFCURVE",
"426.441 697.085 CURVE",
"426.922 697.459 LINE",
"470.922 735.459 LINE",
"483.127 744.595 OFFCURVE",
"490.772 757.011 OFFCURVE",
"491.979 771.502 CURVE",
"492 796.544 OFFCURVE",
"473.665 814 OFFCURVE",
"448 814 CURVE SMOOTH",
"437.172 814 OFFCURVE",
"426.626 809.112 OFFCURVE",
"418.757 801.243 CURVE",
"389.07 775.534 LINE",
"386.584 773.069 OFFCURVE",
"385.97 774 OFFCURVE",
"388 774 CURVE SMOOTH",
"389.354 774 OFFCURVE",
"388.938 773.739 OFFCURVE",
"385.683 775.367 CURVE",
"385.128 775.61 LINE",
"298.128 808.61 LINE SMOOTH",
"287.994 812.41 OFFCURVE",
"279.776 814 OFFCURVE",
"272 814 CURVE SMOOTH",
"262.754 814 OFFCURVE",
"253.799 809.889 OFFCURVE",
"243.316 801.736 CURVE",
"198.129 763.584 LINE SMOOTH",
"185.344 752.931 OFFCURVE",
"178 740.253 OFFCURVE",
"178 727 CURVE SMOOTH",
"178 702.97 OFFCURVE",
"196.873 685 OFFCURVE",
"222 685 CURVE SMOOTH",
"232.828 685 OFFCURVE",
"243.374 689.888 OFFCURVE",
"251.243 697.757 CURVE",
"280.005 723.533 LINE",
"282.416 725.931 OFFCURVE",
"283.03 725 OFFCURVE",
"281 725 CURVE SMOOTH",
"278.931 725 OFFCURVE",
"281.02 724.669 OFFCURVE",
"285.103 723.308 CURVE",
"370.85 690.398 LINE"
);
},
{
closed = 1;
nodes = (
"579.779 -13 OFFCURVE",
"594 3.818 OFFCURVE",
"594 35 CURVE SMOOTH",
"594 600 LINE SMOOTH",
"594 632.213 OFFCURVE",
"579.753 649 OFFCURVE",
"552 649 CURVE SMOOTH",
"524.196 649 OFFCURVE",
"510 631.188 OFFCURVE",
"510 597 CURVE SMOOTH",
"510 136.662 LINE",
"160.876 623.497 LINE SMOOTH",
"148.533 640.329 OFFCURVE",
"134.598 649 OFFCURVE",
"118 649 CURVE SMOOTH",
"91.365 649 OFFCURVE",
"78 632.405 OFFCURVE",
"78 600 CURVE SMOOTH",
"78 35 LINE SMOOTH",
"78 3.606 OFFCURVE",
"92.406 -13 OFFCURVE",
"120 -13 CURVE SMOOTH",
"147.535 -13 OFFCURVE",
"162 2.569 OFFCURVE",
"162 32 CURVE SMOOTH",
"162 498.265 LINE",
"520.116 -3.486 LINE",
"524.083 -10.133 OFFCURVE",
"534.562 -13 OFFCURVE",
"553 -13 CURVE SMOOTH"
);
}
);
width = 672;
}
);
leftKerningGroup = B;
note = Ntilde;
rightKerningGroup = H;
unicode = 00D1;
},
{
glyphname = Ograve;
lastChange = "2016-07-31 02:36:39 +0000";
layers = (
{
layerId = "AE6579ED-DC47-4075-A6A3-4B1A21099458";
paths = (
{
closed = 1;
nodes = (
"260.128 818.357 OFFCURVE",
"247.604 825 OFFCURVE",
"236 825 CURVE SMOOTH",
"213.65 825 OFFCURVE",
"193 805.986 OFFCURVE",
"193 784 CURVE SMOOTH",
"193 772.79 OFFCURVE",
"199.173 760.39 OFFCURVE",
"209.56 748.964 CURVE",
"278.788 680.727 LINE",
"289.855 668.54 OFFCURVE",
"301.417 662 OFFCURVE",
"314 662 CURVE SMOOTH",
"337.734 662 OFFCURVE",
"357 680.795 OFFCURVE",
"357 704 CURVE SMOOTH",
"357 714.703 OFFCURVE",
"351.371 726 OFFCURVE",
"341.46 737.014 CURVE",
"271.243 807.243 LINE SMOOTH"
);
},
{
closed = 1;
nodes = (
"574 555.118 OFFCURVE",
"472.978 651 OFFCURVE",
"316 651 CURVE SMOOTH",
"157.995 651 OFFCURVE",
"58 556.093 OFFCURVE",
"58 406 CURVE SMOOTH",
"58 230 LINE SMOOTH",
"58 79.907 OFFCURVE",
"157.995 -15 OFFCURVE",
"316 -15 CURVE SMOOTH",
"472.978 -15 OFFCURVE",
"574 80.882 OFFCURVE",
"574 230 CURVE SMOOTH",
"574 406 LINE SMOOTH"
);
},
{
closed = 1;
nodes = (
"475.398 496.117 OFFCURVE",
"490 455.849 OFFCURVE",
"490 403 CURVE SMOOTH",
"490 233 LINE SMOOTH",
"490 126.771 OFFCURVE",
"428.767 69 OFFCURVE",
"316 69 CURVE SMOOTH",
"203.233 69 OFFCURVE",
"142 126.771 OFFCURVE",
"142 233 CURVE SMOOTH",
"142 403 LINE SMOOTH",
"142 509.674 OFFCURVE",
"202.761 567 OFFCURVE",
"316 567 CURVE SMOOTH",
"373.394 567 OFFCURVE",
"417.006 552.585 OFFCURVE",
"446.901 524.618 CURVE SMOOTH"
);
}
);
width = 632;
}
);
leftKerningGroup = O;
note = Ograve;
rightKerningGroup = O;
unicode = 00D2;
},
{
glyphname = Oacute;
lastChange = "2016-07-31 02:36:39 +0000";
layers = (
{
layerId = "AE6579ED-DC47-4075-A6A3-4B1A21099458";
paths = (
{
closed = 1;
nodes = (
"289.356 736.799 LINE",
"278.91 724.032 OFFCURVE",
"274 714.204 OFFCURVE",
"274 704 CURVE SMOOTH",
"274 680.804 OFFCURVE",
"293.275 662 OFFCURVE",
"317 662 CURVE SMOOTH",
"329.583 662 OFFCURVE",
"341.145 668.54 OFFCURVE",
"352.44 680.964 CURVE",
"421.212 748.727 LINE",
"431.827 760.39 OFFCURVE",
"438 772.79 OFFCURVE",
"438 784 CURVE SMOOTH",
"438 805.482 OFFCURVE",
"416.821 825 OFFCURVE",
"395 825 CURVE SMOOTH",
"383.396 825 OFFCURVE",
"370.872 818.357 OFFCURVE",
"359.757 807.243 CURVE SMOOTH",
"289.757 737.243 LINE"
);
},
{
closed = 1;
nodes = (
"574 555.118 OFFCURVE",
"472.978 651 OFFCURVE",
"316 651 CURVE SMOOTH",
"157.995 651 OFFCURVE",
"58 556.093 OFFCURVE",
"58 406 CURVE SMOOTH",
"58 230 LINE SMOOTH",
"58 79.907 OFFCURVE",
"157.995 -15 OFFCURVE",
"316 -15 CURVE SMOOTH",
"472.978 -15 OFFCURVE",
"574 80.882 OFFCURVE",
"574 230 CURVE SMOOTH",
"574 406 LINE SMOOTH"
);
},
{
closed = 1;
nodes = (
"475.398 496.117 OFFCURVE",
"490 455.849 OFFCURVE",
"490 403 CURVE SMOOTH",
"490 233 LINE SMOOTH",
"490 126.771 OFFCURVE",
"428.767 69 OFFCURVE",
"316 69 CURVE SMOOTH",
"203.233 69 OFFCURVE",
"142 126.771 OFFCURVE",
"142 233 CURVE SMOOTH",
"142 403 LINE SMOOTH",
"142 509.674 OFFCURVE",
"202.761 567 OFFCURVE",
"316 567 CURVE SMOOTH",
"373.394 567 OFFCURVE",
"417.006 552.585 OFFCURVE",
"446.901 524.618 CURVE SMOOTH"
);
}
);
width = 632;
}
);
leftKerningGroup = O;
note = Oacute;
rightKerningGroup = O;
unicode = 00D3;
},
{
glyphname = Ocircumflex;
lastChange = "2016-07-31 02:36:39 +0000";
layers = (
{
layerId = "AE6579ED-DC47-4075-A6A3-4B1A21099458";
paths = (
{
closed = 1;
nodes = (
"168.118 706.487 LINE",
"161.881 697.756 OFFCURVE",
"159 688.451 OFFCURVE",
"159 679 CURVE SMOOTH",
"159 656.562 OFFCURVE",
"172.408 645 OFFCURVE",
"198 645 CURVE SMOOTH",
"208.099 645 OFFCURVE",
"217.115 647.241 OFFCURVE",
"223.314 651.975 CURVE",
"226.375 653.767 OFFCURVE",
"228.387 656.902 OFFCURVE",
"231.243 659.757 CURVE SMOOTH",
"234.021 662.536 OFFCURVE",
"235.554 663.069 OFFCURVE",
"237.243 664.757 CURVE",
"236.836 664.386 LINE",
"316.023 730.216 LINE",
"396.192 664.364 LINE SMOOTH",
"404.149 657.397 OFFCURVE",
"408.992 653.522 OFFCURVE",
"411.757 650.757 CURVE SMOOTH",
"416.132 646.383 OFFCURVE",
"423.132 645 OFFCURVE",
"435 645 CURVE SMOOTH",
"460.592 645 OFFCURVE",
"474 656.562 OFFCURVE",
"474 679 CURVE SMOOTH",
"474 688.451 OFFCURVE",
"471.119 697.756 OFFCURVE",
"464.882 706.487 CURVE",
"464.335 707.148 LINE",
"351.563 825 LINE",
"279.405 825 LINE",
"168.627 707.109 LINE"
);
},
{
closed = 1;
nodes = (
"574 555.118 OFFCURVE",
"472.978 651 OFFCURVE",
"316 651 CURVE SMOOTH",
"157.995 651 OFFCURVE",
"58 556.093 OFFCURVE",
"58 406 CURVE SMOOTH",
"58 230 LINE SMOOTH",
"58 79.907 OFFCURVE",
"157.995 -15 OFFCURVE",
"316 -15 CURVE SMOOTH",
"472.978 -15 OFFCURVE",
"574 80.882 OFFCURVE",
"574 230 CURVE SMOOTH",
"574 406 LINE SMOOTH"
);
},
{
closed = 1;
nodes = (
"475.398 496.117 OFFCURVE",
"490 455.849 OFFCURVE",
"490 403 CURVE SMOOTH",
"490 233 LINE SMOOTH",
"490 126.771 OFFCURVE",
"428.767 69 OFFCURVE",
"316 69 CURVE SMOOTH",
"203.233 69 OFFCURVE",
"142 126.771 OFFCURVE",
"142 233 CURVE SMOOTH",
"142 403 LINE SMOOTH",
"142 509.674 OFFCURVE",
"202.761 567 OFFCURVE",
"316 567 CURVE SMOOTH",
"373.394 567 OFFCURVE",
"417.006 552.585 OFFCURVE",
"446.901 524.618 CURVE SMOOTH"
);
}
);
width = 632;
}
);
leftKerningGroup = O;
note = Ocircumflex;
rightKerningGroup = O;
unicode = 00D4;
},
{
glyphname = Otilde;
lastChange = "2016-07-31 02:36:39 +0000";
layers = (
{
layerId = "AE6579ED-DC47-4075-A6A3-4B1A21099458";
paths = (
{
closed = 1;
nodes = (
"362.263 686.921 OFFCURVE",
"370.584 685 OFFCURVE",
"378 685 CURVE SMOOTH",
"386.491 685 OFFCURVE",
"396.339 689.313 OFFCURVE",
"407.441 697.085 CURVE",
"407.922 697.459 LINE",
"451.922 735.459 LINE",
"464.127 744.595 OFFCURVE",
"471.772 757.011 OFFCURVE",
"472.979 771.502 CURVE",
"473 796.544 OFFCURVE",
"454.665 814 OFFCURVE",
"429 814 CURVE SMOOTH",
"418.172 814 OFFCURVE",
"407.626 809.112 OFFCURVE",
"399.757 801.243 CURVE",
"370.07 775.534 LINE",
"367.584 773.069 OFFCURVE",
"366.97 774 OFFCURVE",
"369 774 CURVE SMOOTH",
"370.354 774 OFFCURVE",
"369.938 773.739 OFFCURVE",
"366.683 775.367 CURVE",
"366.128 775.61 LINE",
"279.128 808.61 LINE SMOOTH",
"268.994 812.41 OFFCURVE",
"260.776 814 OFFCURVE",
"253 814 CURVE SMOOTH",
"243.754 814 OFFCURVE",
"234.799 809.889 OFFCURVE",
"224.316 801.736 CURVE",
"179.129 763.584 LINE SMOOTH",
"166.344 752.931 OFFCURVE",
"159 740.253 OFFCURVE",
"159 727 CURVE SMOOTH",
"159 702.97 OFFCURVE",
"177.873 685 OFFCURVE",
"203 685 CURVE SMOOTH",
"213.828 685 OFFCURVE",
"224.374 689.888 OFFCURVE",
"232.243 697.757 CURVE",
"261.005 723.533 LINE",
"263.416 725.931 OFFCURVE",
"264.03 725 OFFCURVE",
"262 725 CURVE SMOOTH",
"259.931 725 OFFCURVE",
"262.02 724.669 OFFCURVE",
"266.103 723.308 CURVE",
"351.85 690.398 LINE"
);
},
{
closed = 1;
nodes = (
"574 555.118 OFFCURVE",
"472.978 651 OFFCURVE",
"316 651 CURVE SMOOTH",
"157.995 651 OFFCURVE",
"58 556.093 OFFCURVE",
"58 406 CURVE SMOOTH",
"58 230 LINE SMOOTH",
"58 79.907 OFFCURVE",
"157.995 -15 OFFCURVE",
"316 -15 CURVE SMOOTH",
"472.978 -15 OFFCURVE",
"574 80.882 OFFCURVE",
"574 230 CURVE SMOOTH",
"574 406 LINE SMOOTH"
);
},
{
closed = 1;
nodes = (
"475.398 496.117 OFFCURVE",
"490 455.849 OFFCURVE",
"490 403 CURVE SMOOTH",
"490 233 LINE SMOOTH",
"490 126.771 OFFCURVE",
"428.767 69 OFFCURVE",
"316 69 CURVE SMOOTH",
"203.233 69 OFFCURVE",
"142 126.771 OFFCURVE",
"142 233 CURVE SMOOTH",
"142 403 LINE SMOOTH",
"142 509.674 OFFCURVE",
"202.761 567 OFFCURVE",
"316 567 CURVE SMOOTH",
"373.394 567 OFFCURVE",
"417.006 552.585 OFFCURVE",
"446.901 524.618 CURVE SMOOTH"
);
}
);
width = 632;
}
);
leftKerningGroup = O;
note = Otilde;
rightKerningGroup = O;
unicode = 00D5;
},
{
glyphname = Odieresis;
lastChange = "2016-07-31 02:36:39 +0000";
layers = (
{
layerId = "AE6579ED-DC47-4075-A6A3-4B1A21099458";
paths = (
{
closed = 1;
nodes = (
"298 786.364 OFFCURVE",
"265.342 814 OFFCURVE",
"231 814 CURVE SMOOTH",
"196.658 814 OFFCURVE",
"164 786.364 OFFCURVE",
"164 757 CURVE SMOOTH",
"164 727.033 OFFCURVE",
"195.458 700 OFFCURVE",
"230 700 CURVE SMOOTH",
"265.125 700 OFFCURVE",
"298 727.397 OFFCURVE",
"298 757 CURVE SMOOTH"
);
},
{
closed = 1;
nodes = (
"468 786.364 OFFCURVE",
"435.342 814 OFFCURVE",
"401 814 CURVE SMOOTH",
"366.658 814 OFFCURVE",
"334 786.364 OFFCURVE",
"334 757 CURVE SMOOTH",
"334 727.033 OFFCURVE",
"365.458 700 OFFCURVE",
"400 700 CURVE SMOOTH",
"435.125 700 OFFCURVE",
"468 727.397 OFFCURVE",
"468 757 CURVE SMOOTH"
);
},
{
closed = 1;
nodes = (
"574 555.118 OFFCURVE",
"472.978 651 OFFCURVE",
"316 651 CURVE SMOOTH",
"157.995 651 OFFCURVE",
"58 556.093 OFFCURVE",
"58 406 CURVE SMOOTH",
"58 230 LINE SMOOTH",
"58 79.907 OFFCURVE",
"157.995 -15 OFFCURVE",
"316 -15 CURVE SMOOTH",
"472.978 -15 OFFCURVE",
"574 80.882 OFFCURVE",
"574 230 CURVE SMOOTH",
"574 406 LINE SMOOTH"
);
},
{
closed = 1;
nodes = (
"475.398 496.117 OFFCURVE",
"490 455.849 OFFCURVE",
"490 403 CURVE SMOOTH",
"490 233 LINE SMOOTH",
"490 126.771 OFFCURVE",
"428.767 69 OFFCURVE",
"316 69 CURVE SMOOTH",
"203.233 69 OFFCURVE",
"142 126.771 OFFCURVE",
"142 233 CURVE SMOOTH",
"142 403 LINE SMOOTH",
"142 509.674 OFFCURVE",
"202.761 567 OFFCURVE",
"316 567 CURVE SMOOTH",
"373.394 567 OFFCURVE",
"417.006 552.585 OFFCURVE",
"446.901 524.618 CURVE SMOOTH"
);
}
);
width = 632;
}
);
leftKerningGroup = O;
note = Odieresis;
rightKerningGroup = O;
unicode = 00D6;
},
{
glyphname = multiply;
lastChange = "2016-07-31 02:36:39 +0000";
layers = (
{
layerId = "AE6579ED-DC47-4075-A6A3-4B1A21099458";
paths = (
{
closed = 1;
nodes = (
"78.757 113.243 LINE SMOOTH",
"68.438 102.923 OFFCURVE",
"63 92.456 OFFCURVE",
"63 81 CURVE SMOOTH",
"63 57.294 OFFCURVE",
"82.414 39 OFFCURVE",
"106 39 CURVE SMOOTH",
"118.095 39 OFFCURVE",
"128.592 44.106 OFFCURVE",
"138.243 53.757 CURVE SMOOTH",
"255 170.515 LINE",
"371.757 53.757 LINE",
"384.323 42.231 OFFCURVE",
"395.736 36 OFFCURVE",
"406 36 CURVE SMOOTH",
"426.702 36 OFFCURVE",
"447 58.894 OFFCURVE",
"447 82 CURVE SMOOTH",
"447 93.696 OFFCURVE",
"441.231 104.378 OFFCURVE",
"430.986 113.484 CURVE",
"314.485 230 LINE",
"431.243 346.757 LINE SMOOTH",
"441.231 356.746 OFFCURVE",
"447 368.256 OFFCURVE",
"447 380 CURVE SMOOTH",
"447 402.881 OFFCURVE",
"428.492 423 OFFCURVE",
"406 423 CURVE SMOOTH",
"394.49 423 OFFCURVE",
"383.174 417.528 OFFCURVE",
"371.986 407.46 CURVE",
"255 290.485 LINE",
"139.243 406.243 LINE SMOOTH",
"128.604 416.881 OFFCURVE",
"117.126 423 OFFCURVE",
"106 423 CURVE SMOOTH",
"82.681 423 OFFCURVE",
"63 403.979 OFFCURVE",
"63 380 CURVE SMOOTH",
"63 367.315 OFFCURVE",
"68.746 356.656 OFFCURVE",
"79.986 346.54 CURVE",
"195.532 230.018 LINE"
);
}
);
width = 510;
}
);
note = multiply;
rightKerningGroup = numbersign;
unicode = 00D7;
},
{
glyphname = Oslash;
lastChange = "2016-07-31 02:36:39 +0000";
layers = (
{
layerId = "AE6579ED-DC47-4075-A6A3-4B1A21099458";
paths = (
{
closed = 1;
nodes = (
"144.879 186.24 OFFCURVE",
"142 207.928 OFFCURVE",
"142 233 CURVE SMOOTH",
"142 403 LINE SMOOTH",
"142 507.729 OFFCURVE",
"202.692 567 OFFCURVE",
"310 567 CURVE SMOOTH",
"361.797 567 OFFCURVE",
"401.531 557.054 OFFCURVE",
"429.533 537.741 CURVE",
"150.772 168.309 LINE"
);
},
{
closed = 1;
nodes = (
"435.911 635.392 OFFCURVE",
"379.438 651 OFFCURVE",
"309 651 CURVE SMOOTH",
"158.16 651 OFFCURVE",
"58 553.258 OFFCURVE",
"58 406 CURVE SMOOTH",
"58 230 LINE SMOOTH",
"58 176.397 OFFCURVE",
"70.068 130.801 OFFCURVE",
"93.706 93.248 CURVE",
"64.187 53.582 LINE",
"56.618 44.96 OFFCURVE",
"53 34.536 OFFCURVE",
"53 23 CURVE SMOOTH",
"53 0.493 OFFCURVE",
"74.054 -18 OFFCURVE",
"98 -18 CURVE SMOOTH",
"110.358 -18 OFFCURVE",
"122.125 -10.5 OFFCURVE",
"131.8 2.4 CURVE SMOOTH",
"153.311 30.794 LINE",
"198.454 0.35 OFFCURVE",
"255.061 -15 OFFCURVE",
"324 -15 CURVE SMOOTH",
"473.02 -15 OFFCURVE",
"574 83.941 OFFCURVE",
"574 230 CURVE SMOOTH",
"574 406 LINE SMOOTH",
"574 459.589 OFFCURVE",
"561.938 505.176 OFFCURVE",
"538.313 542.723 CURVE",
"566.786 580.381 LINE SMOOTH",
"574.409 590.181 OFFCURVE",
"579 601.383 OFFCURVE",
"579 612 CURVE SMOOTH",
"579 633.468 OFFCURVE",
"557.856 652 OFFCURVE",
"535 652 CURVE SMOOTH",
"521.497 652 OFFCURVE",
"509.668 644.283 OFFCURVE",
"500.067 630.415 CURVE",
"479.824 604.282 LINE"
);
},
{
closed = 1;
nodes = (
"487.094 448.848 OFFCURVE",
"490 427.328 OFFCURVE",
"490 403 CURVE SMOOTH",
"490 233 LINE SMOOTH",
"490 128.086 OFFCURVE",
"429.143 69 OFFCURVE",
"321 69 CURVE SMOOTH",
"270.027 69 OFFCURVE",
"230.926 78.633 OFFCURVE",
"203.48 97.294 CURVE",
"481.236 466.671 LINE"
);
}
);
width = 632;
}
);
leftKerningGroup = O;
note = Oslash;
rightKerningGroup = O;
unicode = 00D8;
},
{
glyphname = Ugrave;
lastChange = "2016-07-31 02:36:39 +0000";
layers = (
{
layerId = "AE6579ED-DC47-4075-A6A3-4B1A21099458";
paths = (
{
closed = 1;
nodes = (
"274.21 817.314 OFFCURVE",
"261.559 825 OFFCURVE",
"249 825 CURVE SMOOTH",
"225.681 825 OFFCURVE",
"207 806.979 OFFCURVE",
"207 783 CURVE SMOOTH",
"207 770.822 OFFCURVE",
"211.353 760.342 OFFCURVE",
"219.485 751.049 CURVE SMOOTH",
"315.394 636.155 LINE",
"327.878 622.619 OFFCURVE",
"340.472 615 OFFCURVE",
"352 615 CURVE SMOOTH",
"374.083 615 OFFCURVE",
"394 633.775 OFFCURVE",
"394 656 CURVE SMOOTH",
"394 665.723 OFFCURVE",
"390.036 676.84 OFFCURVE",
"381.915 688.441 CURVE",
"381.606 688.845 LINE",
"285.606 803.845 LINE SMOOTH"
);
},
{
closed = 1;
nodes = (
"503 126.771 OFFCURVE",
"441.767 69 OFFCURVE",
"329 69 CURVE SMOOTH",
"216.233 69 OFFCURVE",
"155 126.771 OFFCURVE",
"155 233 CURVE SMOOTH",
"155 603 LINE SMOOTH",
"155 630.995 OFFCURVE",
"138.647 649 OFFCURVE",
"113 649 CURVE SMOOTH",
"85.571 649 OFFCURVE",
"71 632.576 OFFCURVE",
"71 602 CURVE SMOOTH",
"71 230 LINE SMOOTH",
"71 79.623 OFFCURVE",
"170.306 -15 OFFCURVE",
"328 -15 CURVE SMOOTH",
"485.785 -15 OFFCURVE",
"587 80.69 OFFCURVE",
"587 230 CURVE SMOOTH",
"587 602 LINE SMOOTH",
"587 632.576 OFFCURVE",
"572.429 649 OFFCURVE",
"545 649 CURVE SMOOTH",
"517.296 649 OFFCURVE",
"503 633.248 OFFCURVE",
"503 603 CURVE SMOOTH",
"503 233 LINE SMOOTH"
);
}
);
width = 658;
}
);
leftKerningGroup = U;
note = Ugrave;
rightKerningGroup = U;
unicode = 00D9;
},
{
glyphname = Uacute;
lastChange = "2016-07-31 02:36:39 +0000";
layers = (
{
layerId = "AE6579ED-DC47-4075-A6A3-4B1A21099458";
paths = (
{
closed = 1;
nodes = (
"470.647 760.342 OFFCURVE",
"475 770.822 OFFCURVE",
"475 783 CURVE SMOOTH",
"475 806.979 OFFCURVE",
"456.319 825 OFFCURVE",
"433 825 CURVE SMOOTH",
"420.441 825 OFFCURVE",
"407.79 817.314 OFFCURVE",
"396.42 803.876 CURVE SMOOTH",
"300.394 688.845 LINE",
"300.085 688.441 LINE",
"291.964 676.84 OFFCURVE",
"288 665.723 OFFCURVE",
"288 656 CURVE SMOOTH",
"288 633.508 OFFCURVE",
"308.119 615 OFFCURVE",
"331 615 CURVE SMOOTH",
"342.732 615 OFFCURVE",
"355.403 622.915 OFFCURVE",
"366.58 636.124 CURVE SMOOTH",
"462.606 751.155 LINE SMOOTH"
);
},
{
closed = 1;
nodes = (
"503 126.771 OFFCURVE",
"441.767 69 OFFCURVE",
"329 69 CURVE SMOOTH",
"216.233 69 OFFCURVE",
"155 126.771 OFFCURVE",
"155 233 CURVE SMOOTH",
"155 603 LINE SMOOTH",
"155 630.995 OFFCURVE",
"138.647 649 OFFCURVE",
"113 649 CURVE SMOOTH",
"85.571 649 OFFCURVE",
"71 632.576 OFFCURVE",
"71 602 CURVE SMOOTH",
"71 230 LINE SMOOTH",
"71 79.623 OFFCURVE",
"170.306 -15 OFFCURVE",
"328 -15 CURVE SMOOTH",
"485.785 -15 OFFCURVE",
"587 80.69 OFFCURVE",
"587 230 CURVE SMOOTH",
"587 602 LINE SMOOTH",
"587 632.576 OFFCURVE",
"572.429 649 OFFCURVE",
"545 649 CURVE SMOOTH",
"517.296 649 OFFCURVE",
"503 633.248 OFFCURVE",
"503 603 CURVE SMOOTH",
"503 233 LINE SMOOTH"
);
}
);
width = 658;
}
);
leftKerningGroup = U;
note = Uacute;
rightKerningGroup = U;
unicode = 00DA;
},
{
glyphname = Ucircumflex;
lastChange = "2016-07-31 02:36:39 +0000";
layers = (
{
layerId = "AE6579ED-DC47-4075-A6A3-4B1A21099458";
paths = (
{
closed = 1;
nodes = (
"181.118 706.487 LINE",
"174.881 697.756 OFFCURVE",
"172 688.451 OFFCURVE",
"172 679 CURVE SMOOTH",
"172 656.562 OFFCURVE",
"185.408 645 OFFCURVE",
"211 645 CURVE SMOOTH",
"221.099 645 OFFCURVE",
"230.115 647.241 OFFCURVE",
"236.314 651.975 CURVE",
"239.375 653.767 OFFCURVE",
"241.387 656.902 OFFCURVE",
"244.243 659.757 CURVE SMOOTH",
"247.021 662.536 OFFCURVE",
"248.554 663.069 OFFCURVE",
"250.243 664.757 CURVE",
"249.836 664.386 LINE",
"329.023 730.216 LINE",
"409.192 664.364 LINE SMOOTH",
"417.149 657.397 OFFCURVE",
"421.992 653.522 OFFCURVE",
"424.757 650.757 CURVE SMOOTH",
"429.132 646.383 OFFCURVE",
"436.132 645 OFFCURVE",
"448 645 CURVE SMOOTH",
"473.592 645 OFFCURVE",
"487 656.562 OFFCURVE",
"487 679 CURVE SMOOTH",
"487 688.451 OFFCURVE",
"484.119 697.756 OFFCURVE",
"477.882 706.487 CURVE",
"477.335 707.148 LINE",
"364.563 825 LINE",
"292.405 825 LINE",
"181.627 707.109 LINE"
);
},
{
closed = 1;
nodes = (
"503 126.771 OFFCURVE",
"441.767 69 OFFCURVE",
"329 69 CURVE SMOOTH",
"216.233 69 OFFCURVE",
"155 126.771 OFFCURVE",
"155 233 CURVE SMOOTH",
"155 603 LINE SMOOTH",
"155 630.995 OFFCURVE",
"138.647 649 OFFCURVE",
"113 649 CURVE SMOOTH",
"85.571 649 OFFCURVE",
"71 632.576 OFFCURVE",
"71 602 CURVE SMOOTH",
"71 230 LINE SMOOTH",
"71 79.623 OFFCURVE",
"170.306 -15 OFFCURVE",
"328 -15 CURVE SMOOTH",
"485.785 -15 OFFCURVE",
"587 80.69 OFFCURVE",
"587 230 CURVE SMOOTH",
"587 602 LINE SMOOTH",
"587 632.576 OFFCURVE",
"572.429 649 OFFCURVE",
"545 649 CURVE SMOOTH",
"517.296 649 OFFCURVE",
"503 633.248 OFFCURVE",
"503 603 CURVE SMOOTH",
"503 233 LINE SMOOTH"
);
}
);
width = 658;
}
);
leftKerningGroup = U;
note = Ucircumflex;
rightKerningGroup = U;
unicode = 00DB;
},
